SplineFontDB: 3.2
FontName: lexis
FullName: Lexis 6x8
FamilyName: Lexis
Weight: Book
Copyright: CC0 1.0 Universal
Version: 1.000
ItalicAngle: 0
UnderlinePosition: -100
UnderlineWidth: 40
Ascent: 700
Descent: 100
InvalidEm: 0
sfntRevision: 0x00010000
LayerCount: 2
Layer: 0 1 "Atr+AOEA-s" 1
Layer: 1 1 "Fore" 0
XUID: [1021 999 1154514124 8272832]
StyleMap: 0x0040
FSType: 0
OS2Version: 4
OS2_WeightWidthSlopeOnly: 0
OS2_UseTypoMetrics: 1
CreationTime: 1621270988
ModificationTime: 1675069854
PfmFamily: 81
TTFWeight: 400
TTFWidth: 5
LineGap: 0
VLineGap: 0
Panose: 0 0 0 9 0 0 0 0 0 0
OS2TypoAscent: 700
OS2TypoAOffset: 0
OS2TypoDescent: -100
OS2TypoDOffset: 0
OS2TypoLinegap: 0
OS2WinAscent: 700
OS2WinAOffset: 0
OS2WinDescent: 100
OS2WinDOffset: 0
HheadAscent: 700
HheadAOffset: 0
HheadDescent: -100
HheadDOffset: 0
OS2SubXSize: 520
OS2SubYSize: 480
OS2SubXOff: 0
OS2SubYOff: 60
OS2SupXSize: 520
OS2SupYSize: 480
OS2SupXOff: 0
OS2SupYOff: 280
OS2StrikeYSize: 100
OS2StrikeYPos: 350
OS2CapHeight: 700
OS2XHeight: 500
OS2Vendor: 'DEVR'
OS2CodePages: a002002d.80000000
OS2UnicodeRanges: e0000aef.1087f9f2.02000002.00000000
DEI: 91125
ShortTable: maxp 16
  1
  0
  658
  96
  24
  4
  1
  1
  2
  30
  6
  0
  100
  0
  1
  1
EndShort
LangName: 1033 "" "" "Regular" "1.000;DEVR;lexis" "" "Version 1.000" "" "" "Damian Vila Rio" "Damian Vila Rio" "" "https://damianvila.com" "https://damianvila.com" "https://creativecommons.org/publicdomain/zero/1.0/" "http://creativecommons.org/licenses/by-sa/4.0/" "" "Lexis 6x8" "Regular"
Encoding: UnicodeBmp
UnicodeInterp: none
NameList: AGL For New Fonts
DisplaySize: -48
AntiAlias: 1
FitToEm: 0
WinInfo: 64980 38 15
BeginChars: 65538 658

StartChar: .notdef
Encoding: 65536 -1 0
Width: 600
GlyphClass: 1
Flags: WO
LayerCount: 2
Fore
SplineSet
428 -100 m 1,0,-1
 174 -100 l 1,1,-1
 174 700 l 1,2,-1
 428 700 l 1,3,-1
 428 -100 l 1,0,-1
366 -45 m 1,4,-1
 366 -18 l 1,5,-1
 285 -18 l 1,6,-1
 341 19 l 1,7,-1
 366 19 l 1,8,-1
 366 46 l 1,9,-1
 234 46 l 1,10,-1
 234 19 l 1,11,-1
 290 19 l 1,12,-1
 234 -18 l 1,13,-1
 234 -45 l 1,14,-1
 366 -45 l 1,4,-1
366 64 m 1,15,-1
 366 154 l 1,16,-1
 234 154 l 1,17,-1
 234 64 l 1,18,-1
 366 64 l 1,15,-1
366 202 m 1,19,-1
 366 293 l 1,20,-1
 286 293 l 1,21,-1
 286 248 l 1,22,-1
 314 248 l 1,23,-1
 314 266 l 1,24,-1
 340 266 l 1,25,-1
 340 229 l 1,26,-1
 260 229 l 1,27,-1
 260 293 l 1,28,-1
 234 293 l 1,29,-1
 234 202 l 1,30,-1
 366 202 l 1,19,-1
366 310 m 1,31,-1
 366 390 l 1,32,-1
 340 390 l 1,33,-1
 340 338 l 1,34,-1
 234 338 l 1,35,-1
 234 310 l 1,36,-1
 366 310 l 1,31,-1
314 356 m 1,37,-1
 314 412 l 1,38,-1
 366 412 l 1,39,-1
 366 438 l 1,40,-1
 234 438 l 1,41,-1
 234 412 l 1,42,-1
 286 412 l 1,43,-1
 286 382 l 1,44,-1
 234 382 l 1,45,-1
 234 356 l 1,46,-1
 314 356 l 1,37,-1
366 460 m 1,47,-1
 366 487 l 1,48,-1
 314 487 l 1,49,-1
 314 543 l 1,50,-1
 234 543 l 1,51,-1
 234 460 l 1,52,-1
 366 460 l 1,47,-1
366 564 m 1,53,-1
 366 590 l 1,54,-1
 314 590 l 1,55,-1
 314 620 l 1,56,-1
 366 620 l 1,57,-1
 366 646 l 1,58,-1
 234 646 l 1,59,-1
 234 620 l 1,60,-1
 286 620 l 1,61,-1
 286 590 l 1,62,-1
 234 590 l 1,63,-1
 234 564 l 1,64,-1
 366 564 l 1,53,-1
260 128 m 1,65,-1
 340 128 l 1,66,-1
 340 90 l 1,67,-1
 260 90 l 1,68,-1
 260 128 l 1,65,-1
260 516 m 1,69,-1
 286 516 l 1,70,-1
 286 487 l 1,71,-1
 260 487 l 1,72,-1
 260 516 l 1,69,-1
EndSplineSet
EndChar

StartChar: A
Encoding: 65 65 2
Width: 600
GlyphClass: 1
Flags: W
LayerCount: 2
Fore
SplineSet
0 500 m 1,0,-1
 100 500 l 1,1,-1
 100 300 l 1,2,-1
 400 300 l 1,3,-1
 400 500 l 1,4,-1
 500 500 l 1,5,-1
 500 0 l 1,6,-1
 400 0 l 1,7,-1
 400 200 l 1,8,-1
 100 200 l 1,9,-1
 100 0 l 1,10,-1
 0 0 l 1,11,-1
 0 500 l 1,0,-1
100 600 m 1,12,-1
 200 600 l 1,13,-1
 200 500 l 1,14,-1
 100 500 l 1,15,-1
 100 600 l 1,12,-1
200 700 m 1,16,-1
 300 700 l 1,17,-1
 300 600 l 1,18,-1
 200 600 l 1,19,-1
 200 700 l 1,16,-1
300 600 m 1,20,-1
 400 600 l 1,21,-1
 400 500 l 1,22,-1
 300 500 l 1,23,-1
 300 600 l 1,20,-1
EndSplineSet
EndChar

StartChar: Aacute
Encoding: 193 193 3
Width: 600
GlyphClass: 1
Flags: W
LayerCount: 2
Fore
SplineSet
100 200 m 1,0,-1
 400 200 l 1,1,-1
 400 300 l 1,2,-1
 500 300 l 1,3,-1
 500 0 l 1,4,-1
 400 0 l 1,5,-1
 400 100 l 1,6,-1
 100 100 l 1,7,-1
 100 0 l 1,8,-1
 0 0 l 1,9,-1
 0 300 l 1,10,-1
 100 300 l 1,11,-1
 100 200 l 1,0,-1
100 400 m 1,12,-1
 200 400 l 1,13,-1
 200 300 l 1,14,-1
 100 300 l 1,15,-1
 100 400 l 1,12,-1
200 600 m 1,16,-1
 300 600 l 1,17,-1
 300 400 l 1,18,-1
 200 400 l 1,19,-1
 200 600 l 1,16,-1
300 400 m 1,20,-1
 400 400 l 1,21,-1
 400 300 l 1,22,-1
 300 300 l 1,23,-1
 300 400 l 1,20,-1
300 700 m 1,24,-1
 400 700 l 1,25,-1
 400 600 l 1,26,-1
 300 600 l 1,27,-1
 300 700 l 1,24,-1
EndSplineSet
EndChar

StartChar: Acircumflex
Encoding: 194 194 4
Width: 600
GlyphClass: 1
Flags: W
LayerCount: 2
Fore
SplineSet
100 600 m 1,0,-1
 200 600 l 1,1,-1
 200 500 l 1,2,-1
 100 500 l 1,3,-1
 100 600 l 1,0,-1
0 300 m 1,4,-1
 100 300 l 1,5,-1
 100 200 l 1,6,-1
 400 200 l 1,7,-1
 400 300 l 1,8,-1
 500 300 l 1,9,-1
 500 0 l 1,10,-1
 400 0 l 1,11,-1
 400 100 l 1,12,-1
 100 100 l 1,13,-1
 100 0 l 1,14,-1
 0 0 l 1,15,-1
 0 300 l 1,4,-1
100 400 m 1,16,-1
 200 400 l 1,17,-1
 200 300 l 1,18,-1
 100 300 l 1,19,-1
 100 400 l 1,16,-1
200 500 m 1,20,-1
 300 500 l 1,21,-1
 300 400 l 1,22,-1
 200 400 l 1,23,-1
 200 500 l 1,20,-1
200 700 m 1,24,-1
 300 700 l 1,25,-1
 300 600 l 1,26,-1
 200 600 l 1,27,-1
 200 700 l 1,24,-1
300 400 m 1,28,-1
 400 400 l 1,29,-1
 400 300 l 1,30,-1
 300 300 l 1,31,-1
 300 400 l 1,28,-1
300 600 m 1,32,-1
 400 600 l 1,33,-1
 400 500 l 1,34,-1
 300 500 l 1,35,-1
 300 600 l 1,32,-1
EndSplineSet
EndChar

StartChar: Adieresis
Encoding: 196 196 5
Width: 600
GlyphClass: 1
Flags: W
LayerCount: 2
Fore
SplineSet
400 100 m 1,0,-1
 100 100 l 1,1,-1
 100 0 l 1,2,-1
 0 0 l 1,3,-1
 0 300 l 1,4,-1
 100 300 l 1,5,-1
 100 200 l 1,6,-1
 400 200 l 1,7,-1
 400 300 l 1,8,-1
 500 300 l 1,9,-1
 500 0 l 1,10,-1
 400 0 l 1,11,-1
 400 100 l 1,0,-1
100 400 m 1,12,-1
 200 400 l 1,13,-1
 200 300 l 1,14,-1
 100 300 l 1,15,-1
 100 400 l 1,12,-1
100 700 m 1,16,-1
 200 700 l 1,17,-1
 200 600 l 1,18,-1
 100 600 l 1,19,-1
 100 700 l 1,16,-1
200 500 m 1,20,-1
 300 500 l 1,21,-1
 300 400 l 1,22,-1
 200 400 l 1,23,-1
 200 500 l 1,20,-1
300 400 m 1,24,-1
 400 400 l 1,25,-1
 400 300 l 1,26,-1
 300 300 l 1,27,-1
 300 400 l 1,24,-1
300 700 m 1,28,-1
 400 700 l 1,29,-1
 400 600 l 1,30,-1
 300 600 l 1,31,-1
 300 700 l 1,28,-1
EndSplineSet
EndChar

StartChar: Agrave
Encoding: 192 192 6
Width: 600
GlyphClass: 1
Flags: W
LayerCount: 2
Fore
SplineSet
0 300 m 1,0,-1
 100 300 l 1,1,-1
 100 200 l 1,2,-1
 400 200 l 1,3,-1
 400 300 l 1,4,-1
 500 300 l 1,5,-1
 500 0 l 1,6,-1
 400 0 l 1,7,-1
 400 100 l 1,8,-1
 100 100 l 1,9,-1
 100 0 l 1,10,-1
 0 0 l 1,11,-1
 0 300 l 1,0,-1
100 400 m 1,12,-1
 200 400 l 1,13,-1
 200 300 l 1,14,-1
 100 300 l 1,15,-1
 100 400 l 1,12,-1
100 700 m 1,16,-1
 200 700 l 1,17,-1
 200 600 l 1,18,-1
 100 600 l 1,19,-1
 100 700 l 1,16,-1
200 600 m 1,20,-1
 300 600 l 1,21,-1
 300 400 l 1,22,-1
 200 400 l 1,23,-1
 200 600 l 1,20,-1
300 400 m 1,24,-1
 400 400 l 1,25,-1
 400 300 l 1,26,-1
 300 300 l 1,27,-1
 300 400 l 1,24,-1
EndSplineSet
EndChar

StartChar: Aring
Encoding: 197 197 7
Width: 600
GlyphClass: 1
Flags: W
LayerCount: 2
Fore
SplineSet
0 300 m 1,0,-1
 100 300 l 1,1,-1
 100 200 l 1,2,-1
 400 200 l 1,3,-1
 400 300 l 1,4,-1
 500 300 l 1,5,-1
 500 0 l 1,6,-1
 400 0 l 1,7,-1
 400 100 l 1,8,-1
 100 100 l 1,9,-1
 100 0 l 1,10,-1
 0 0 l 1,11,-1
 0 300 l 1,0,-1
100 400 m 1,12,-1
 200 400 l 1,13,-1
 200 300 l 1,14,-1
 100 300 l 1,15,-1
 100 400 l 1,12,-1
200 500 m 1,16,-1
 300 500 l 1,17,-1
 300 400 l 1,18,-1
 200 400 l 1,19,-1
 200 500 l 1,16,-1
200 700 m 1,20,-1
 300 700 l 1,21,-1
 300 600 l 1,22,-1
 200 600 l 1,23,-1
 200 700 l 1,20,-1
300 400 m 1,24,-1
 400 400 l 1,25,-1
 400 300 l 1,26,-1
 300 300 l 1,27,-1
 300 400 l 1,24,-1
EndSplineSet
EndChar

StartChar: Atilde
Encoding: 195 195 8
Width: 600
GlyphClass: 1
Flags: W
LayerCount: 2
Fore
SplineSet
0 300 m 1,0,-1
 100 300 l 1,1,-1
 100 200 l 1,2,-1
 400 200 l 1,3,-1
 400 300 l 1,4,-1
 500 300 l 1,5,-1
 500 0 l 1,6,-1
 400 0 l 1,7,-1
 400 100 l 1,8,-1
 100 100 l 1,9,-1
 100 0 l 1,10,-1
 0 0 l 1,11,-1
 0 300 l 1,0,-1
100 400 m 1,12,-1
 200 400 l 1,13,-1
 200 300 l 1,14,-1
 100 300 l 1,15,-1
 100 400 l 1,12,-1
100 700 m 1,16,-1
 400 700 l 1,17,-1
 400 600 l 1,18,-1
 100 600 l 1,19,-1
 100 700 l 1,16,-1
200 500 m 1,20,-1
 300 500 l 1,21,-1
 300 400 l 1,22,-1
 200 400 l 1,23,-1
 200 500 l 1,20,-1
300 400 m 1,24,-1
 400 400 l 1,25,-1
 400 300 l 1,26,-1
 300 300 l 1,27,-1
 300 400 l 1,24,-1
EndSplineSet
EndChar

StartChar: AE
Encoding: 198 198 9
Width: 600
GlyphClass: 1
Flags: W
LayerCount: 2
Fore
SplineSet
100 600 m 1,0,-1
 100 700 l 1,1,-1
 500 700 l 1,2,-1
 500 600 l 1,3,-1
 300 600 l 1,4,-1
 300 400 l 1,5,-1
 400 400 l 1,6,-1
 400 300 l 1,7,-1
 300 300 l 1,8,-1
 300 100 l 1,9,-1
 500 100 l 1,10,-1
 500 0 l 1,11,-1
 200 0 l 1,12,-1
 200 300 l 1,13,-1
 100 300 l 1,14,-1
 100 0 l 1,15,-1
 0 0 l 1,16,-1
 0 600 l 1,17,-1
 100 600 l 1,18,-1
 100 400 l 1,19,-1
 200 400 l 1,20,-1
 200 600 l 1,21,-1
 100 600 l 1,0,-1
EndSplineSet
EndChar

StartChar: B
Encoding: 66 66 10
Width: 600
GlyphClass: 1
Flags: W
LayerCount: 2
Fore
SplineSet
0 700 m 1,0,-1
 400 700 l 1,1,-1
 400 600 l 1,2,-1
 100 600 l 1,3,-1
 100 400 l 1,4,-1
 400 400 l 1,5,-1
 400 300 l 1,6,-1
 100 300 l 1,7,-1
 100 100 l 1,8,-1
 400 100 l 1,9,-1
 400 0 l 1,10,-1
 0 0 l 1,11,-1
 0 700 l 1,0,-1
400 300 m 1,12,-1
 500 300 l 1,13,-1
 500 100 l 1,14,-1
 400 100 l 1,15,-1
 400 300 l 1,12,-1
400 600 m 1,16,-1
 500 600 l 1,17,-1
 500 400 l 1,18,-1
 400 400 l 1,19,-1
 400 600 l 1,16,-1
EndSplineSet
EndChar

StartChar: C
Encoding: 67 67 11
Width: 600
GlyphClass: 1
Flags: W
LayerCount: 2
Fore
SplineSet
400 600 m 1,0,-1
 500 600 l 1,1,-1
 500 500 l 1,2,-1
 400 500 l 1,3,-1
 400 600 l 1,0,-1
0 600 m 1,4,-1
 100 600 l 1,5,-1
 100 100 l 1,6,-1
 0 100 l 1,7,-1
 0 600 l 1,4,-1
100 100 m 1,8,-1
 400 100 l 1,9,-1
 400 0 l 1,10,-1
 100 0 l 1,11,-1
 100 100 l 1,8,-1
100 700 m 1,12,-1
 400 700 l 1,13,-1
 400 600 l 1,14,-1
 100 600 l 1,15,-1
 100 700 l 1,12,-1
400 200 m 1,16,-1
 500 200 l 1,17,-1
 500 100 l 1,18,-1
 400 100 l 1,19,-1
 400 200 l 1,16,-1
EndSplineSet
EndChar

StartChar: Ccedilla
Encoding: 199 199 12
Width: 600
GlyphClass: 1
Flags: W
LayerCount: 2
Fore
SplineSet
0 0 m 1,0,-1
 100 0 l 1,1,-1
 100 100 l 1,2,-1
 400 100 l 1,3,-1
 400 0 l 1,4,-1
 300 0 l 1,5,-1
 300 -100 l 1,6,-1
 0 -100 l 1,7,-1
 0 0 l 1,0,-1
0 600 m 1,8,-1
 100 600 l 1,9,-1
 100 100 l 1,10,-1
 0 100 l 1,11,-1
 0 600 l 1,8,-1
100 700 m 1,12,-1
 400 700 l 1,13,-1
 400 600 l 1,14,-1
 100 600 l 1,15,-1
 100 700 l 1,12,-1
400 300 m 1,16,-1
 500 300 l 1,17,-1
 500 100 l 1,18,-1
 400 100 l 1,19,-1
 400 300 l 1,16,-1
400 600 m 1,20,-1
 500 600 l 1,21,-1
 500 500 l 1,22,-1
 400 500 l 1,23,-1
 400 600 l 1,20,-1
EndSplineSet
EndChar

StartChar: D
Encoding: 68 68 13
Width: 600
GlyphClass: 1
Flags: W
LayerCount: 2
Fore
SplineSet
100 100 m 1,0,-1
 300 100 l 1,1,-1
 300 0 l 1,2,-1
 0 0 l 1,3,-1
 0 700 l 1,4,-1
 300 700 l 1,5,-1
 300 600 l 1,6,-1
 100 600 l 1,7,-1
 100 100 l 1,0,-1
300 200 m 1,8,-1
 400 200 l 1,9,-1
 400 100 l 1,10,-1
 300 100 l 1,11,-1
 300 200 l 1,8,-1
300 600 m 1,12,-1
 400 600 l 1,13,-1
 400 500 l 1,14,-1
 300 500 l 1,15,-1
 300 600 l 1,12,-1
400 500 m 1,16,-1
 500 500 l 1,17,-1
 500 200 l 1,18,-1
 400 200 l 1,19,-1
 400 500 l 1,16,-1
EndSplineSet
EndChar

StartChar: Eth
Encoding: 208 208 14
Width: 600
GlyphClass: 1
Flags: W
LayerCount: 2
Fore
SplineSet
300 700 m 1,0,-1
 300 600 l 1,1,-1
 200 600 l 1,2,-1
 200 400 l 1,3,-1
 300 400 l 1,4,-1
 300 300 l 1,5,-1
 200 300 l 1,6,-1
 200 100 l 1,7,-1
 300 100 l 1,8,-1
 300 0 l 1,9,-1
 100 0 l 1,10,-1
 100 300 l 1,11,-1
 0 300 l 1,12,-1
 0 400 l 1,13,-1
 100 400 l 1,14,-1
 100 700 l 1,15,-1
 300 700 l 1,0,-1
300 200 m 1,16,-1
 400 200 l 1,17,-1
 400 100 l 1,18,-1
 300 100 l 1,19,-1
 300 200 l 1,16,-1
300 600 m 1,20,-1
 400 600 l 1,21,-1
 400 500 l 1,22,-1
 300 500 l 1,23,-1
 300 600 l 1,20,-1
400 500 m 1,24,-1
 500 500 l 1,25,-1
 500 200 l 1,26,-1
 400 200 l 1,27,-1
 400 500 l 1,24,-1
EndSplineSet
EndChar

StartChar: E
Encoding: 69 69 15
Width: 600
GlyphClass: 1
Flags: W
LayerCount: 2
Fore
SplineSet
0 700 m 1,0,-1
 500 700 l 1,1,-1
 500 600 l 1,2,-1
 100 600 l 1,3,-1
 100 400 l 1,4,-1
 400 400 l 1,5,-1
 400 300 l 1,6,-1
 100 300 l 1,7,-1
 100 100 l 1,8,-1
 500 100 l 1,9,-1
 500 0 l 1,10,-1
 0 0 l 1,11,-1
 0 700 l 1,0,-1
EndSplineSet
EndChar

StartChar: Eacute
Encoding: 201 201 16
Width: 600
GlyphClass: 1
Flags: W
LayerCount: 2
Fore
SplineSet
300 500 m 1,0,-1
 500 500 l 1,1,-1
 500 400 l 1,2,-1
 100 400 l 1,3,-1
 100 300 l 1,4,-1
 400 300 l 1,5,-1
 400 200 l 1,6,-1
 100 200 l 1,7,-1
 100 100 l 1,8,-1
 500 100 l 1,9,-1
 500 0 l 1,10,-1
 0 0 l 1,11,-1
 0 500 l 1,12,-1
 200 500 l 1,13,-1
 200 600 l 1,14,-1
 300 600 l 1,15,-1
 300 500 l 1,0,-1
300 700 m 1,16,-1
 400 700 l 1,17,-1
 400 600 l 1,18,-1
 300 600 l 1,19,-1
 300 700 l 1,16,-1
EndSplineSet
EndChar

StartChar: Ecircumflex
Encoding: 202 202 17
Width: 600
GlyphClass: 1
Flags: W
LayerCount: 2
Fore
SplineSet
100 600 m 1,0,-1
 200 600 l 1,1,-1
 200 500 l 1,2,-1
 300 500 l 1,3,-1
 300 600 l 1,4,-1
 400 600 l 1,5,-1
 400 500 l 1,6,-1
 500 500 l 1,7,-1
 500 400 l 1,8,-1
 100 400 l 1,9,-1
 100 300 l 1,10,-1
 400 300 l 1,11,-1
 400 200 l 1,12,-1
 100 200 l 1,13,-1
 100 100 l 1,14,-1
 500 100 l 1,15,-1
 500 0 l 1,16,-1
 0 0 l 1,17,-1
 0 500 l 1,18,-1
 100 500 l 1,19,-1
 100 600 l 1,0,-1
200 700 m 1,20,-1
 300 700 l 1,21,-1
 300 600 l 1,22,-1
 200 600 l 1,23,-1
 200 700 l 1,20,-1
EndSplineSet
EndChar

StartChar: Edieresis
Encoding: 203 203 18
Width: 600
GlyphClass: 1
Flags: W
LayerCount: 2
Fore
SplineSet
100 300 m 1,0,-1
 400 300 l 1,1,-1
 400 200 l 1,2,-1
 100 200 l 1,3,-1
 100 100 l 1,4,-1
 500 100 l 1,5,-1
 500 0 l 1,6,-1
 0 0 l 1,7,-1
 0 500 l 1,8,-1
 500 500 l 1,9,-1
 500 400 l 1,10,-1
 100 400 l 1,11,-1
 100 300 l 1,0,-1
100 700 m 1,12,-1
 200 700 l 1,13,-1
 200 600 l 1,14,-1
 100 600 l 1,15,-1
 100 700 l 1,12,-1
300 700 m 1,16,-1
 400 700 l 1,17,-1
 400 600 l 1,18,-1
 300 600 l 1,19,-1
 300 700 l 1,16,-1
EndSplineSet
EndChar

StartChar: Egrave
Encoding: 200 200 19
Width: 600
GlyphClass: 1
Flags: W
LayerCount: 2
Fore
SplineSet
100 300 m 1,0,-1
 400 300 l 1,1,-1
 400 200 l 1,2,-1
 100 200 l 1,3,-1
 100 100 l 1,4,-1
 500 100 l 1,5,-1
 500 0 l 1,6,-1
 0 0 l 1,7,-1
 0 500 l 1,8,-1
 200 500 l 1,9,-1
 200 600 l 1,10,-1
 300 600 l 1,11,-1
 300 500 l 1,12,-1
 500 500 l 1,13,-1
 500 400 l 1,14,-1
 100 400 l 1,15,-1
 100 300 l 1,0,-1
100 700 m 1,16,-1
 200 700 l 1,17,-1
 200 600 l 1,18,-1
 100 600 l 1,19,-1
 100 700 l 1,16,-1
EndSplineSet
EndChar

StartChar: F
Encoding: 70 70 20
Width: 600
GlyphClass: 1
Flags: W
LayerCount: 2
Fore
SplineSet
100 0 m 1,0,-1
 0 0 l 1,1,-1
 0 700 l 1,2,-1
 500 700 l 1,3,-1
 500 600 l 1,4,-1
 100 600 l 1,5,-1
 100 400 l 1,6,-1
 400 400 l 1,7,-1
 400 300 l 1,8,-1
 100 300 l 1,9,-1
 100 0 l 1,0,-1
EndSplineSet
EndChar

StartChar: G
Encoding: 71 71 21
Width: 600
GlyphClass: 1
Flags: W
LayerCount: 2
Fore
SplineSet
300 200 m 1,0,-1
 300 300 l 1,1,-1
 500 300 l 1,2,-1
 500 0 l 1,3,-1
 100 0 l 1,4,-1
 100 100 l 1,5,-1
 400 100 l 1,6,-1
 400 200 l 1,7,-1
 300 200 l 1,0,-1
0 600 m 1,8,-1
 100 600 l 1,9,-1
 100 100 l 1,10,-1
 0 100 l 1,11,-1
 0 600 l 1,8,-1
100 700 m 1,12,-1
 400 700 l 1,13,-1
 400 600 l 1,14,-1
 100 600 l 1,15,-1
 100 700 l 1,12,-1
400 600 m 1,16,-1
 500 600 l 1,17,-1
 500 500 l 1,18,-1
 400 500 l 1,19,-1
 400 600 l 1,16,-1
EndSplineSet
EndChar

StartChar: H
Encoding: 72 72 22
Width: 600
GlyphClass: 1
Flags: W
LayerCount: 2
Fore
SplineSet
400 300 m 1,0,-1
 100 300 l 1,1,-1
 100 0 l 1,2,-1
 0 0 l 1,3,-1
 0 700 l 1,4,-1
 100 700 l 1,5,-1
 100 400 l 1,6,-1
 400 400 l 1,7,-1
 400 700 l 1,8,-1
 500 700 l 1,9,-1
 500 0 l 1,10,-1
 400 0 l 1,11,-1
 400 300 l 1,0,-1
EndSplineSet
EndChar

StartChar: I
Encoding: 73 73 23
Width: 600
GlyphClass: 1
Flags: W
LayerCount: 2
Fore
SplineSet
100 100 m 1,0,-1
 200 100 l 1,1,-1
 200 600 l 1,2,-1
 100 600 l 1,3,-1
 100 700 l 1,4,-1
 400 700 l 1,5,-1
 400 600 l 1,6,-1
 300 600 l 1,7,-1
 300 100 l 1,8,-1
 400 100 l 1,9,-1
 400 0 l 1,10,-1
 100 0 l 1,11,-1
 100 100 l 1,0,-1
EndSplineSet
EndChar

StartChar: Iacute
Encoding: 205 205 24
Width: 600
GlyphClass: 1
Flags: W
LayerCount: 2
Fore
SplineSet
100 500 m 1,0,-1
 200 500 l 1,1,-1
 200 600 l 1,2,-1
 300 600 l 1,3,-1
 300 500 l 1,4,-1
 400 500 l 1,5,-1
 400 400 l 1,6,-1
 300 400 l 1,7,-1
 300 100 l 1,8,-1
 400 100 l 1,9,-1
 400 0 l 1,10,-1
 100 0 l 1,11,-1
 100 100 l 1,12,-1
 200 100 l 1,13,-1
 200 400 l 1,14,-1
 100 400 l 1,15,-1
 100 500 l 1,0,-1
300 700 m 1,16,-1
 400 700 l 1,17,-1
 400 600 l 1,18,-1
 300 600 l 1,19,-1
 300 700 l 1,16,-1
EndSplineSet
EndChar

StartChar: Icircumflex
Encoding: 206 206 25
Width: 600
GlyphClass: 1
Flags: W
LayerCount: 2
Fore
SplineSet
100 600 m 1,0,-1
 200 600 l 1,1,-1
 200 500 l 1,2,-1
 300 500 l 1,3,-1
 300 600 l 1,4,-1
 400 600 l 1,5,-1
 400 400 l 1,6,-1
 300 400 l 1,7,-1
 300 100 l 1,8,-1
 400 100 l 1,9,-1
 400 0 l 1,10,-1
 100 0 l 1,11,-1
 100 100 l 1,12,-1
 200 100 l 1,13,-1
 200 400 l 1,14,-1
 100 400 l 1,15,-1
 100 600 l 1,0,-1
200 700 m 1,16,-1
 300 700 l 1,17,-1
 300 600 l 1,18,-1
 200 600 l 1,19,-1
 200 700 l 1,16,-1
EndSplineSet
EndChar

StartChar: Idieresis
Encoding: 207 207 26
Width: 600
GlyphClass: 1
Flags: W
LayerCount: 2
Fore
SplineSet
100 500 m 1,0,-1
 400 500 l 1,1,-1
 400 400 l 1,2,-1
 300 400 l 1,3,-1
 300 100 l 1,4,-1
 400 100 l 1,5,-1
 400 0 l 1,6,-1
 100 0 l 1,7,-1
 100 100 l 1,8,-1
 200 100 l 1,9,-1
 200 400 l 1,10,-1
 100 400 l 1,11,-1
 100 500 l 1,0,-1
100 700 m 1,12,-1
 200 700 l 1,13,-1
 200 600 l 1,14,-1
 100 600 l 1,15,-1
 100 700 l 1,12,-1
300 700 m 1,16,-1
 400 700 l 1,17,-1
 400 600 l 1,18,-1
 300 600 l 1,19,-1
 300 700 l 1,16,-1
EndSplineSet
EndChar

StartChar: Igrave
Encoding: 204 204 27
Width: 600
GlyphClass: 1
Flags: W
LayerCount: 2
Fore
SplineSet
100 700 m 1,0,-1
 200 700 l 1,1,-1
 200 600 l 1,2,-1
 100 600 l 1,3,-1
 100 700 l 1,0,-1
100 100 m 1,4,-1
 200 100 l 1,5,-1
 200 400 l 1,6,-1
 100 400 l 1,7,-1
 100 500 l 1,8,-1
 200 500 l 1,9,-1
 200 600 l 1,10,-1
 300 600 l 1,11,-1
 300 500 l 1,12,-1
 400 500 l 1,13,-1
 400 400 l 1,14,-1
 300 400 l 1,15,-1
 300 100 l 1,16,-1
 400 100 l 1,17,-1
 400 0 l 1,18,-1
 100 0 l 1,19,-1
 100 100 l 1,4,-1
EndSplineSet
EndChar

StartChar: J
Encoding: 74 74 28
Width: 600
GlyphClass: 1
Flags: W
LayerCount: 2
Fore
SplineSet
100 300 m 1,0,-1
 100 100 l 1,1,-1
 0 100 l 1,2,-1
 0 300 l 1,3,-1
 100 300 l 1,0,-1
100 100 m 1,4,-1
 400 100 l 1,5,-1
 400 0 l 1,6,-1
 100 0 l 1,7,-1
 100 100 l 1,4,-1
400 700 m 1,8,-1
 500 700 l 1,9,-1
 500 100 l 1,10,-1
 400 100 l 1,11,-1
 400 700 l 1,8,-1
EndSplineSet
EndChar

StartChar: K
Encoding: 75 75 29
Width: 600
GlyphClass: 1
Flags: W
LayerCount: 2
Fore
SplineSet
100 0 m 1,0,-1
 0 0 l 1,1,-1
 0 700 l 1,2,-1
 100 700 l 1,3,-1
 100 400 l 1,4,-1
 200 400 l 1,5,-1
 200 300 l 1,6,-1
 100 300 l 1,7,-1
 100 0 l 1,0,-1
200 300 m 1,8,-1
 300 300 l 1,9,-1
 300 200 l 1,10,-1
 200 200 l 1,11,-1
 200 300 l 1,8,-1
200 500 m 1,12,-1
 300 500 l 1,13,-1
 300 400 l 1,14,-1
 200 400 l 1,15,-1
 200 500 l 1,12,-1
300 200 m 1,16,-1
 400 200 l 1,17,-1
 400 100 l 1,18,-1
 300 100 l 1,19,-1
 300 200 l 1,16,-1
300 600 m 1,20,-1
 400 600 l 1,21,-1
 400 500 l 1,22,-1
 300 500 l 1,23,-1
 300 600 l 1,20,-1
400 100 m 1,24,-1
 500 100 l 1,25,-1
 500 0 l 1,26,-1
 400 0 l 1,27,-1
 400 100 l 1,24,-1
400 700 m 1,28,-1
 500 700 l 1,29,-1
 500 600 l 1,30,-1
 400 600 l 1,31,-1
 400 700 l 1,28,-1
EndSplineSet
EndChar

StartChar: L
Encoding: 76 76 30
Width: 600
GlyphClass: 1
Flags: W
LayerCount: 2
Fore
SplineSet
100 700 m 1,0,-1
 100 100 l 1,1,-1
 500 100 l 1,2,-1
 500 0 l 1,3,-1
 0 0 l 1,4,-1
 0 700 l 1,5,-1
 100 700 l 1,0,-1
EndSplineSet
EndChar

StartChar: Lslash
Encoding: 321 321 31
Width: 600
GlyphClass: 1
Flags: W
LayerCount: 2
Fore
SplineSet
200 700 m 1,0,-1
 200 500 l 1,1,-1
 300 500 l 1,2,-1
 300 400 l 1,3,-1
 200 400 l 1,4,-1
 200 100 l 1,5,-1
 500 100 l 1,6,-1
 500 0 l 1,7,-1
 100 0 l 1,8,-1
 100 300 l 1,9,-1
 0 300 l 1,10,-1
 0 400 l 1,11,-1
 100 400 l 1,12,-1
 100 700 l 1,13,-1
 200 700 l 1,0,-1
EndSplineSet
EndChar

StartChar: M
Encoding: 77 77 32
Width: 600
GlyphClass: 1
Flags: W
LayerCount: 2
Fore
SplineSet
0 700 m 1,0,-1
 100 700 l 1,1,-1
 100 600 l 1,2,-1
 200 600 l 1,3,-1
 200 500 l 1,4,-1
 100 500 l 1,5,-1
 100 0 l 1,6,-1
 0 0 l 1,7,-1
 0 700 l 1,0,-1
200 500 m 1,8,-1
 300 500 l 1,9,-1
 300 400 l 1,10,-1
 200 400 l 1,11,-1
 200 500 l 1,8,-1
300 600 m 1,12,-1
 400 600 l 1,13,-1
 400 700 l 1,14,-1
 500 700 l 1,15,-1
 500 0 l 1,16,-1
 400 0 l 1,17,-1
 400 500 l 1,18,-1
 300 500 l 1,19,-1
 300 600 l 1,12,-1
EndSplineSet
EndChar

StartChar: N
Encoding: 78 78 33
Width: 600
GlyphClass: 1
Flags: W
LayerCount: 2
Fore
SplineSet
0 700 m 1,0,-1
 100 700 l 1,1,-1
 100 600 l 1,2,-1
 200 600 l 1,3,-1
 200 500 l 1,4,-1
 100 500 l 1,5,-1
 100 0 l 1,6,-1
 0 0 l 1,7,-1
 0 700 l 1,0,-1
200 500 m 1,8,-1
 300 500 l 1,9,-1
 300 400 l 1,10,-1
 200 400 l 1,11,-1
 200 500 l 1,8,-1
300 400 m 1,12,-1
 400 400 l 1,13,-1
 400 700 l 1,14,-1
 500 700 l 1,15,-1
 500 0 l 1,16,-1
 400 0 l 1,17,-1
 400 300 l 1,18,-1
 300 300 l 1,19,-1
 300 400 l 1,12,-1
EndSplineSet
EndChar

StartChar: Ntilde
Encoding: 209 209 34
Width: 600
GlyphClass: 1
Flags: W
LayerCount: 2
Fore
SplineSet
100 700 m 1,0,-1
 400 700 l 1,1,-1
 400 600 l 1,2,-1
 100 600 l 1,3,-1
 100 700 l 1,0,-1
0 500 m 1,4,-1
 100 500 l 1,5,-1
 100 400 l 1,6,-1
 200 400 l 1,7,-1
 200 300 l 1,8,-1
 100 300 l 1,9,-1
 100 0 l 1,10,-1
 0 0 l 1,11,-1
 0 500 l 1,4,-1
200 300 m 1,12,-1
 300 300 l 1,13,-1
 300 200 l 1,14,-1
 200 200 l 1,15,-1
 200 300 l 1,12,-1
300 200 m 1,16,-1
 400 200 l 1,17,-1
 400 500 l 1,18,-1
 500 500 l 1,19,-1
 500 0 l 1,20,-1
 400 0 l 1,21,-1
 400 100 l 1,22,-1
 300 100 l 1,23,-1
 300 200 l 1,16,-1
EndSplineSet
EndChar

StartChar: O
Encoding: 79 79 35
Width: 600
GlyphClass: 1
Flags: W
LayerCount: 2
Fore
SplineSet
100 100 m 1,0,-1
 0 100 l 1,1,-1
 0 600 l 1,2,-1
 100 600 l 1,3,-1
 100 100 l 1,0,-1
100 100 m 1,4,-1
 400 100 l 1,5,-1
 400 0 l 1,6,-1
 100 0 l 1,7,-1
 100 100 l 1,4,-1
100 700 m 1,8,-1
 400 700 l 1,9,-1
 400 600 l 1,10,-1
 100 600 l 1,11,-1
 100 700 l 1,8,-1
400 600 m 1,12,-1
 500 600 l 1,13,-1
 500 100 l 1,14,-1
 400 100 l 1,15,-1
 400 600 l 1,12,-1
EndSplineSet
EndChar

StartChar: Oacute
Encoding: 211 211 36
Width: 600
GlyphClass: 1
Flags: W
LayerCount: 2
Fore
SplineSet
100 100 m 1,0,-1
 0 100 l 1,1,-1
 0 400 l 1,2,-1
 100 400 l 1,3,-1
 100 100 l 1,0,-1
100 100 m 1,4,-1
 400 100 l 1,5,-1
 400 0 l 1,6,-1
 100 0 l 1,7,-1
 100 100 l 1,4,-1
100 500 m 1,8,-1
 200 500 l 1,9,-1
 200 600 l 1,10,-1
 300 600 l 1,11,-1
 300 500 l 1,12,-1
 400 500 l 1,13,-1
 400 400 l 1,14,-1
 100 400 l 1,15,-1
 100 500 l 1,8,-1
300 700 m 1,16,-1
 400 700 l 1,17,-1
 400 600 l 1,18,-1
 300 600 l 1,19,-1
 300 700 l 1,16,-1
400 400 m 1,20,-1
 500 400 l 1,21,-1
 500 100 l 1,22,-1
 400 100 l 1,23,-1
 400 400 l 1,20,-1
EndSplineSet
EndChar

StartChar: Ocircumflex
Encoding: 212 212 37
Width: 600
GlyphClass: 1
Flags: W
LayerCount: 2
Fore
SplineSet
100 100 m 1,0,-1
 0 100 l 1,1,-1
 0 400 l 1,2,-1
 100 400 l 1,3,-1
 100 100 l 1,0,-1
100 100 m 1,4,-1
 400 100 l 1,5,-1
 400 0 l 1,6,-1
 100 0 l 1,7,-1
 100 100 l 1,4,-1
100 600 m 1,8,-1
 200 600 l 1,9,-1
 200 500 l 1,10,-1
 300 500 l 1,11,-1
 300 600 l 1,12,-1
 400 600 l 1,13,-1
 400 400 l 1,14,-1
 100 400 l 1,15,-1
 100 600 l 1,8,-1
200 700 m 1,16,-1
 300 700 l 1,17,-1
 300 600 l 1,18,-1
 200 600 l 1,19,-1
 200 700 l 1,16,-1
400 400 m 1,20,-1
 500 400 l 1,21,-1
 500 100 l 1,22,-1
 400 100 l 1,23,-1
 400 400 l 1,20,-1
EndSplineSet
EndChar

StartChar: Odieresis
Encoding: 214 214 38
Width: 600
GlyphClass: 1
Flags: W
LayerCount: 2
Fore
SplineSet
100 700 m 1,0,-1
 200 700 l 1,1,-1
 200 600 l 1,2,-1
 100 600 l 1,3,-1
 100 700 l 1,0,-1
0 400 m 1,4,-1
 100 400 l 1,5,-1
 100 100 l 1,6,-1
 0 100 l 1,7,-1
 0 400 l 1,4,-1
100 100 m 1,8,-1
 400 100 l 1,9,-1
 400 0 l 1,10,-1
 100 0 l 1,11,-1
 100 100 l 1,8,-1
100 500 m 1,12,-1
 400 500 l 1,13,-1
 400 400 l 1,14,-1
 100 400 l 1,15,-1
 100 500 l 1,12,-1
300 700 m 1,16,-1
 400 700 l 1,17,-1
 400 600 l 1,18,-1
 300 600 l 1,19,-1
 300 700 l 1,16,-1
400 400 m 1,20,-1
 500 400 l 1,21,-1
 500 100 l 1,22,-1
 400 100 l 1,23,-1
 400 400 l 1,20,-1
EndSplineSet
EndChar

StartChar: Ograve
Encoding: 210 210 39
Width: 600
GlyphClass: 1
Flags: W
LayerCount: 2
Fore
SplineSet
100 700 m 1,0,-1
 200 700 l 1,1,-1
 200 600 l 1,2,-1
 100 600 l 1,3,-1
 100 700 l 1,0,-1
0 400 m 1,4,-1
 100 400 l 1,5,-1
 100 100 l 1,6,-1
 0 100 l 1,7,-1
 0 400 l 1,4,-1
100 100 m 1,8,-1
 400 100 l 1,9,-1
 400 0 l 1,10,-1
 100 0 l 1,11,-1
 100 100 l 1,8,-1
100 500 m 1,12,-1
 200 500 l 1,13,-1
 200 600 l 1,14,-1
 300 600 l 1,15,-1
 300 500 l 1,16,-1
 400 500 l 1,17,-1
 400 400 l 1,18,-1
 100 400 l 1,19,-1
 100 500 l 1,12,-1
400 400 m 1,20,-1
 500 400 l 1,21,-1
 500 100 l 1,22,-1
 400 100 l 1,23,-1
 400 400 l 1,20,-1
EndSplineSet
EndChar

StartChar: Oslash
Encoding: 216 216 40
Width: 600
GlyphClass: 1
Flags: W
LayerCount: 2
Fore
SplineSet
100 300 m 1,0,-1
 200 300 l 1,1,-1
 200 200 l 1,2,-1
 100 200 l 1,3,-1
 100 100 l 1,4,-1
 0 100 l 1,5,-1
 0 600 l 1,6,-1
 100 600 l 1,7,-1
 100 300 l 1,0,-1
0 0 m 1,8,-1
 100 0 l 1,9,-1
 100 -100 l 1,10,-1
 0 -100 l 1,11,-1
 0 0 l 1,8,-1
100 100 m 1,12,-1
 400 100 l 1,13,-1
 400 0 l 1,14,-1
 100 0 l 1,15,-1
 100 100 l 1,12,-1
100 700 m 1,16,-1
 400 700 l 1,17,-1
 400 600 l 1,18,-1
 100 600 l 1,19,-1
 100 700 l 1,16,-1
200 400 m 1,20,-1
 300 400 l 1,21,-1
 300 300 l 1,22,-1
 200 300 l 1,23,-1
 200 400 l 1,20,-1
300 500 m 1,24,-1
 400 500 l 1,25,-1
 400 600 l 1,26,-1
 500 600 l 1,27,-1
 500 100 l 1,28,-1
 400 100 l 1,29,-1
 400 400 l 1,30,-1
 300 400 l 1,31,-1
 300 500 l 1,24,-1
500 700 m 1,32,-1
 600 700 l 1,33,-1
 600 600 l 1,34,-1
 500 600 l 1,35,-1
 500 700 l 1,32,-1
EndSplineSet
EndChar

StartChar: Otilde
Encoding: 213 213 41
Width: 600
GlyphClass: 1
Flags: W
LayerCount: 2
Fore
SplineSet
100 100 m 1,0,-1
 0 100 l 1,1,-1
 0 400 l 1,2,-1
 100 400 l 1,3,-1
 100 100 l 1,0,-1
100 100 m 1,4,-1
 400 100 l 1,5,-1
 400 0 l 1,6,-1
 100 0 l 1,7,-1
 100 100 l 1,4,-1
100 500 m 1,8,-1
 400 500 l 1,9,-1
 400 400 l 1,10,-1
 100 400 l 1,11,-1
 100 500 l 1,8,-1
100 700 m 1,12,-1
 400 700 l 1,13,-1
 400 600 l 1,14,-1
 100 600 l 1,15,-1
 100 700 l 1,12,-1
400 400 m 1,16,-1
 500 400 l 1,17,-1
 500 100 l 1,18,-1
 400 100 l 1,19,-1
 400 400 l 1,16,-1
EndSplineSet
EndChar

StartChar: OE
Encoding: 338 338 42
Width: 600
GlyphClass: 1
Flags: W
LayerCount: 2
Fore
SplineSet
100 600 m 1,0,-1
 100 700 l 1,1,-1
 500 700 l 1,2,-1
 500 600 l 1,3,-1
 300 600 l 1,4,-1
 300 400 l 1,5,-1
 400 400 l 1,6,-1
 400 300 l 1,7,-1
 300 300 l 1,8,-1
 300 100 l 1,9,-1
 500 100 l 1,10,-1
 500 0 l 1,11,-1
 100 0 l 1,12,-1
 100 100 l 1,13,-1
 200 100 l 1,14,-1
 200 600 l 1,15,-1
 100 600 l 1,0,-1
0 600 m 1,16,-1
 100 600 l 1,17,-1
 100 100 l 1,18,-1
 0 100 l 1,19,-1
 0 600 l 1,16,-1
EndSplineSet
EndChar

StartChar: P
Encoding: 80 80 43
Width: 600
GlyphClass: 1
Flags: W
LayerCount: 2
Fore
SplineSet
500 600 m 1,0,-1
 500 400 l 1,1,-1
 400 400 l 1,2,-1
 400 600 l 1,3,-1
 500 600 l 1,0,-1
0 700 m 1,4,-1
 400 700 l 1,5,-1
 400 600 l 1,6,-1
 100 600 l 1,7,-1
 100 400 l 1,8,-1
 400 400 l 1,9,-1
 400 300 l 1,10,-1
 100 300 l 1,11,-1
 100 0 l 1,12,-1
 0 0 l 1,13,-1
 0 700 l 1,4,-1
EndSplineSet
EndChar

StartChar: Thorn
Encoding: 222 222 44
Width: 600
GlyphClass: 1
Flags: W
LayerCount: 2
Fore
SplineSet
200 700 m 1,0,-1
 200 500 l 1,1,-1
 400 500 l 1,2,-1
 400 400 l 1,3,-1
 200 400 l 1,4,-1
 200 200 l 1,5,-1
 400 200 l 1,6,-1
 400 100 l 1,7,-1
 200 100 l 1,8,-1
 200 -100 l 1,9,-1
 100 -100 l 1,10,-1
 100 700 l 1,11,-1
 200 700 l 1,0,-1
400 400 m 1,12,-1
 500 400 l 1,13,-1
 500 200 l 1,14,-1
 400 200 l 1,15,-1
 400 400 l 1,12,-1
EndSplineSet
EndChar

StartChar: Q
Encoding: 81 81 45
Width: 600
GlyphClass: 1
Flags: W
LayerCount: 2
Fore
SplineSet
100 100 m 1,0,-1
 0 100 l 1,1,-1
 0 600 l 1,2,-1
 100 600 l 1,3,-1
 100 100 l 1,0,-1
100 100 m 1,4,-1
 300 100 l 1,5,-1
 300 0 l 1,6,-1
 100 0 l 1,7,-1
 100 100 l 1,4,-1
100 700 m 1,8,-1
 400 700 l 1,9,-1
 400 600 l 1,10,-1
 100 600 l 1,11,-1
 100 700 l 1,8,-1
200 300 m 1,12,-1
 300 300 l 1,13,-1
 300 200 l 1,14,-1
 200 200 l 1,15,-1
 200 300 l 1,12,-1
300 200 m 1,16,-1
 400 200 l 1,17,-1
 400 100 l 1,18,-1
 300 100 l 1,19,-1
 300 200 l 1,16,-1
400 100 m 1,20,-1
 500 100 l 1,21,-1
 500 0 l 1,22,-1
 400 0 l 1,23,-1
 400 100 l 1,20,-1
400 600 m 1,24,-1
 500 600 l 1,25,-1
 500 200 l 1,26,-1
 400 200 l 1,27,-1
 400 600 l 1,24,-1
EndSplineSet
EndChar

StartChar: R
Encoding: 82 82 46
Width: 600
GlyphClass: 1
Flags: W
LayerCount: 2
Fore
SplineSet
0 700 m 1,0,-1
 400 700 l 1,1,-1
 400 600 l 1,2,-1
 100 600 l 1,3,-1
 100 400 l 1,4,-1
 400 400 l 1,5,-1
 400 300 l 1,6,-1
 100 300 l 1,7,-1
 100 0 l 1,8,-1
 0 0 l 1,9,-1
 0 700 l 1,0,-1
400 300 m 1,10,-1
 500 300 l 1,11,-1
 500 0 l 1,12,-1
 400 0 l 1,13,-1
 400 300 l 1,10,-1
400 600 m 1,14,-1
 500 600 l 1,15,-1
 500 400 l 1,16,-1
 400 400 l 1,17,-1
 400 600 l 1,14,-1
EndSplineSet
EndChar

StartChar: S
Encoding: 83 83 47
Width: 600
GlyphClass: 1
Flags: W
LayerCount: 2
Fore
SplineSet
0 200 m 1,0,-1
 100 200 l 1,1,-1
 100 100 l 1,2,-1
 0 100 l 1,3,-1
 0 200 l 1,0,-1
0 600 m 1,4,-1
 100 600 l 1,5,-1
 100 400 l 1,6,-1
 0 400 l 1,7,-1
 0 600 l 1,4,-1
100 100 m 1,8,-1
 400 100 l 1,9,-1
 400 0 l 1,10,-1
 100 0 l 1,11,-1
 100 100 l 1,8,-1
100 400 m 1,12,-1
 400 400 l 1,13,-1
 400 300 l 1,14,-1
 100 300 l 1,15,-1
 100 400 l 1,12,-1
100 700 m 1,16,-1
 400 700 l 1,17,-1
 400 600 l 1,18,-1
 100 600 l 1,19,-1
 100 700 l 1,16,-1
400 300 m 1,20,-1
 500 300 l 1,21,-1
 500 100 l 1,22,-1
 400 100 l 1,23,-1
 400 300 l 1,20,-1
400 600 m 1,24,-1
 500 600 l 1,25,-1
 500 500 l 1,26,-1
 400 500 l 1,27,-1
 400 600 l 1,24,-1
EndSplineSet
EndChar

StartChar: Scaron
Encoding: 352 352 48
Width: 600
GlyphClass: 1
Flags: W
LayerCount: 2
Fore
SplineSet
100 700 m 1,0,-1
 200 700 l 1,1,-1
 200 600 l 1,2,-1
 100 600 l 1,3,-1
 100 700 l 1,0,-1
0 400 m 1,4,-1
 100 400 l 1,5,-1
 100 300 l 1,6,-1
 0 300 l 1,7,-1
 0 400 l 1,4,-1
100 100 m 1,8,-1
 400 100 l 1,9,-1
 400 0 l 1,10,-1
 100 0 l 1,11,-1
 100 100 l 1,8,-1
100 300 m 1,12,-1
 400 300 l 1,13,-1
 400 200 l 1,14,-1
 100 200 l 1,15,-1
 100 300 l 1,12,-1
100 500 m 1,16,-1
 200 500 l 1,17,-1
 200 600 l 1,18,-1
 300 600 l 1,19,-1
 300 500 l 1,20,-1
 400 500 l 1,21,-1
 400 400 l 1,22,-1
 100 400 l 1,23,-1
 100 500 l 1,16,-1
300 700 m 1,24,-1
 400 700 l 1,25,-1
 400 600 l 1,26,-1
 300 600 l 1,27,-1
 300 700 l 1,24,-1
400 200 m 1,28,-1
 500 200 l 1,29,-1
 500 100 l 1,30,-1
 400 100 l 1,31,-1
 400 200 l 1,28,-1
EndSplineSet
EndChar

StartChar: uni1E9E
Encoding: 7838 7838 49
Width: 600
GlyphClass: 1
Flags: W
LayerCount: 2
Fore
SplineSet
0 700 m 1,0,-1
 500 700 l 1,1,-1
 500 500 l 1,2,-1
 400 500 l 1,3,-1
 400 600 l 1,4,-1
 100 600 l 1,5,-1
 100 0 l 1,6,-1
 0 0 l 1,7,-1
 0 700 l 1,0,-1
200 100 m 1,8,-1
 400 100 l 1,9,-1
 400 0 l 1,10,-1
 200 0 l 1,11,-1
 200 100 l 1,8,-1
200 400 m 1,12,-1
 300 400 l 1,13,-1
 300 500 l 1,14,-1
 400 500 l 1,15,-1
 400 300 l 1,16,-1
 200 300 l 1,17,-1
 200 400 l 1,12,-1
400 300 m 1,18,-1
 500 300 l 1,19,-1
 500 100 l 1,20,-1
 400 100 l 1,21,-1
 400 300 l 1,18,-1
EndSplineSet
EndChar

StartChar: T
Encoding: 84 84 50
Width: 600
GlyphClass: 1
Flags: W
LayerCount: 2
Fore
SplineSet
200 600 m 1,0,-1
 0 600 l 1,1,-1
 0 700 l 1,2,-1
 500 700 l 1,3,-1
 500 600 l 1,4,-1
 300 600 l 1,5,-1
 300 0 l 1,6,-1
 200 0 l 1,7,-1
 200 600 l 1,0,-1
EndSplineSet
EndChar

StartChar: U
Encoding: 85 85 51
Width: 600
GlyphClass: 1
Flags: W
LayerCount: 2
Fore
SplineSet
100 100 m 1,0,-1
 400 100 l 1,1,-1
 400 0 l 1,2,-1
 100 0 l 1,3,-1
 100 100 l 1,0,-1
0 700 m 1,4,-1
 100 700 l 1,5,-1
 100 100 l 1,6,-1
 0 100 l 1,7,-1
 0 700 l 1,4,-1
400 700 m 1,8,-1
 500 700 l 1,9,-1
 500 100 l 1,10,-1
 400 100 l 1,11,-1
 400 700 l 1,8,-1
EndSplineSet
EndChar

StartChar: Uacute
Encoding: 218 218 52
Width: 600
GlyphClass: 1
Flags: W
LayerCount: 2
Fore
SplineSet
200 600 m 1,0,-1
 300 600 l 1,1,-1
 300 500 l 1,2,-1
 200 500 l 1,3,-1
 200 600 l 1,0,-1
0 500 m 1,4,-1
 100 500 l 1,5,-1
 100 100 l 1,6,-1
 0 100 l 1,7,-1
 0 500 l 1,4,-1
100 100 m 1,8,-1
 400 100 l 1,9,-1
 400 0 l 1,10,-1
 100 0 l 1,11,-1
 100 100 l 1,8,-1
300 700 m 1,12,-1
 400 700 l 1,13,-1
 400 600 l 1,14,-1
 300 600 l 1,15,-1
 300 700 l 1,12,-1
400 500 m 1,16,-1
 500 500 l 1,17,-1
 500 100 l 1,18,-1
 400 100 l 1,19,-1
 400 500 l 1,16,-1
EndSplineSet
EndChar

StartChar: Ucircumflex
Encoding: 219 219 53
Width: 600
GlyphClass: 1
Flags: W
LayerCount: 2
Fore
SplineSet
100 500 m 1,0,-1
 100 100 l 1,1,-1
 0 100 l 1,2,-1
 0 500 l 1,3,-1
 100 500 l 1,0,-1
100 100 m 1,4,-1
 400 100 l 1,5,-1
 400 0 l 1,6,-1
 100 0 l 1,7,-1
 100 100 l 1,4,-1
100 600 m 1,8,-1
 200 600 l 1,9,-1
 200 500 l 1,10,-1
 100 500 l 1,11,-1
 100 600 l 1,8,-1
200 700 m 1,12,-1
 300 700 l 1,13,-1
 300 600 l 1,14,-1
 200 600 l 1,15,-1
 200 700 l 1,12,-1
300 600 m 1,16,-1
 400 600 l 1,17,-1
 400 500 l 1,18,-1
 300 500 l 1,19,-1
 300 600 l 1,16,-1
400 500 m 1,20,-1
 500 500 l 1,21,-1
 500 100 l 1,22,-1
 400 100 l 1,23,-1
 400 500 l 1,20,-1
EndSplineSet
EndChar

StartChar: Udieresis
Encoding: 220 220 54
Width: 600
GlyphClass: 1
Flags: W
LayerCount: 2
Fore
SplineSet
100 500 m 1,0,-1
 100 100 l 1,1,-1
 0 100 l 1,2,-1
 0 500 l 1,3,-1
 100 500 l 1,0,-1
100 100 m 1,4,-1
 400 100 l 1,5,-1
 400 0 l 1,6,-1
 100 0 l 1,7,-1
 100 100 l 1,4,-1
100 700 m 1,8,-1
 200 700 l 1,9,-1
 200 600 l 1,10,-1
 100 600 l 1,11,-1
 100 700 l 1,8,-1
300 700 m 1,12,-1
 400 700 l 1,13,-1
 400 600 l 1,14,-1
 300 600 l 1,15,-1
 300 700 l 1,12,-1
400 500 m 1,16,-1
 500 500 l 1,17,-1
 500 100 l 1,18,-1
 400 100 l 1,19,-1
 400 500 l 1,16,-1
EndSplineSet
EndChar

StartChar: Ugrave
Encoding: 217 217 55
Width: 600
GlyphClass: 1
Flags: W
LayerCount: 2
Fore
SplineSet
100 500 m 1,0,-1
 100 100 l 1,1,-1
 0 100 l 1,2,-1
 0 500 l 1,3,-1
 100 500 l 1,0,-1
100 100 m 1,4,-1
 400 100 l 1,5,-1
 400 0 l 1,6,-1
 100 0 l 1,7,-1
 100 100 l 1,4,-1
100 700 m 1,8,-1
 200 700 l 1,9,-1
 200 600 l 1,10,-1
 100 600 l 1,11,-1
 100 700 l 1,8,-1
200 600 m 1,12,-1
 300 600 l 1,13,-1
 300 500 l 1,14,-1
 200 500 l 1,15,-1
 200 600 l 1,12,-1
400 500 m 1,16,-1
 500 500 l 1,17,-1
 500 100 l 1,18,-1
 400 100 l 1,19,-1
 400 500 l 1,16,-1
EndSplineSet
EndChar

StartChar: V
Encoding: 86 86 56
Width: 600
GlyphClass: 1
Flags: W
LayerCount: 2
Fore
SplineSet
100 700 m 1,0,-1
 100 400 l 1,1,-1
 0 400 l 1,2,-1
 0 700 l 1,3,-1
 100 700 l 1,0,-1
100 400 m 1,4,-1
 200 400 l 1,5,-1
 200 200 l 1,6,-1
 100 200 l 1,7,-1
 100 400 l 1,4,-1
200 200 m 1,8,-1
 300 200 l 1,9,-1
 300 0 l 1,10,-1
 200 0 l 1,11,-1
 200 200 l 1,8,-1
300 400 m 1,12,-1
 400 400 l 1,13,-1
 400 200 l 1,14,-1
 300 200 l 1,15,-1
 300 400 l 1,12,-1
400 700 m 1,16,-1
 500 700 l 1,17,-1
 500 400 l 1,18,-1
 400 400 l 1,19,-1
 400 700 l 1,16,-1
EndSplineSet
EndChar

StartChar: W
Encoding: 87 87 57
Width: 600
GlyphClass: 1
Flags: W
LayerCount: 2
Fore
SplineSet
100 700 m 1,0,-1
 100 200 l 1,1,-1
 200 200 l 1,2,-1
 200 100 l 1,3,-1
 100 100 l 1,4,-1
 100 0 l 1,5,-1
 0 0 l 1,6,-1
 0 700 l 1,7,-1
 100 700 l 1,0,-1
200 400 m 1,8,-1
 300 400 l 1,9,-1
 300 200 l 1,10,-1
 200 200 l 1,11,-1
 200 400 l 1,8,-1
300 200 m 1,12,-1
 400 200 l 1,13,-1
 400 700 l 1,14,-1
 500 700 l 1,15,-1
 500 0 l 1,16,-1
 400 0 l 1,17,-1
 400 100 l 1,18,-1
 300 100 l 1,19,-1
 300 200 l 1,12,-1
EndSplineSet
EndChar

StartChar: X
Encoding: 88 88 58
Width: 600
GlyphClass: 1
Flags: W
LayerCount: 2
Fore
SplineSet
200 200 m 1,0,-1
 200 0 l 1,1,-1
 100 0 l 1,2,-1
 100 200 l 1,3,-1
 200 200 l 1,0,-1
100 700 m 1,4,-1
 200 700 l 1,5,-1
 200 500 l 1,6,-1
 100 500 l 1,7,-1
 100 700 l 1,4,-1
200 300 m 1,8,-1
 300 300 l 1,9,-1
 300 200 l 1,10,-1
 200 200 l 1,11,-1
 200 300 l 1,8,-1
200 500 m 1,12,-1
 300 500 l 1,13,-1
 300 400 l 1,14,-1
 200 400 l 1,15,-1
 200 500 l 1,12,-1
300 400 m 1,16,-1
 400 400 l 1,17,-1
 400 300 l 1,18,-1
 300 300 l 1,19,-1
 300 400 l 1,16,-1
400 300 m 1,20,-1
 500 300 l 1,21,-1
 500 200 l 1,22,-1
 400 200 l 1,23,-1
 400 300 l 1,20,-1
400 500 m 1,24,-1
 500 500 l 1,25,-1
 500 400 l 1,26,-1
 400 400 l 1,27,-1
 400 500 l 1,24,-1
500 200 m 1,28,-1
 600 200 l 1,29,-1
 600 0 l 1,30,-1
 500 0 l 1,31,-1
 500 200 l 1,28,-1
500 700 m 1,32,-1
 600 700 l 1,33,-1
 600 500 l 1,34,-1
 500 500 l 1,35,-1
 500 700 l 1,32,-1
EndSplineSet
EndChar

StartChar: Y
Encoding: 89 89 59
Width: 600
GlyphClass: 1
Flags: W
LayerCount: 2
Fore
SplineSet
200 500 m 1,0,-1
 200 400 l 1,1,-1
 300 400 l 1,2,-1
 300 500 l 1,3,-1
 400 500 l 1,4,-1
 400 300 l 1,5,-1
 300 300 l 1,6,-1
 300 0 l 1,7,-1
 200 0 l 1,8,-1
 200 300 l 1,9,-1
 100 300 l 1,10,-1
 100 500 l 1,11,-1
 200 500 l 1,0,-1
0 700 m 1,12,-1
 100 700 l 1,13,-1
 100 500 l 1,14,-1
 0 500 l 1,15,-1
 0 700 l 1,12,-1
400 700 m 1,16,-1
 500 700 l 1,17,-1
 500 500 l 1,18,-1
 400 500 l 1,19,-1
 400 700 l 1,16,-1
EndSplineSet
EndChar

StartChar: Yacute
Encoding: 221 221 60
Width: 600
GlyphClass: 1
Flags: W
LayerCount: 2
Fore
SplineSet
0 500 m 1,0,-1
 100 500 l 1,1,-1
 100 400 l 1,2,-1
 0 400 l 1,3,-1
 0 500 l 1,0,-1
100 400 m 1,4,-1
 200 400 l 1,5,-1
 200 300 l 1,6,-1
 300 300 l 1,7,-1
 300 400 l 1,8,-1
 400 400 l 1,9,-1
 400 200 l 1,10,-1
 300 200 l 1,11,-1
 300 0 l 1,12,-1
 200 0 l 1,13,-1
 200 200 l 1,14,-1
 100 200 l 1,15,-1
 100 400 l 1,4,-1
200 600 m 1,16,-1
 300 600 l 1,17,-1
 300 500 l 1,18,-1
 200 500 l 1,19,-1
 200 600 l 1,16,-1
300 700 m 1,20,-1
 400 700 l 1,21,-1
 400 600 l 1,22,-1
 300 600 l 1,23,-1
 300 700 l 1,20,-1
400 500 m 1,24,-1
 500 500 l 1,25,-1
 500 400 l 1,26,-1
 400 400 l 1,27,-1
 400 500 l 1,24,-1
EndSplineSet
EndChar

StartChar: Ydieresis
Encoding: 376 376 61
Width: 600
GlyphClass: 1
Flags: W
LayerCount: 2
Fore
SplineSet
0 500 m 1,0,-1
 100 500 l 1,1,-1
 100 400 l 1,2,-1
 0 400 l 1,3,-1
 0 500 l 1,0,-1
100 400 m 1,4,-1
 200 400 l 1,5,-1
 200 300 l 1,6,-1
 300 300 l 1,7,-1
 300 400 l 1,8,-1
 400 400 l 1,9,-1
 400 200 l 1,10,-1
 300 200 l 1,11,-1
 300 0 l 1,12,-1
 200 0 l 1,13,-1
 200 200 l 1,14,-1
 100 200 l 1,15,-1
 100 400 l 1,4,-1
100 700 m 1,16,-1
 200 700 l 1,17,-1
 200 600 l 1,18,-1
 100 600 l 1,19,-1
 100 700 l 1,16,-1
300 700 m 1,20,-1
 400 700 l 1,21,-1
 400 600 l 1,22,-1
 300 600 l 1,23,-1
 300 700 l 1,20,-1
400 500 m 1,24,-1
 500 500 l 1,25,-1
 500 400 l 1,26,-1
 400 400 l 1,27,-1
 400 500 l 1,24,-1
EndSplineSet
EndChar

StartChar: Z
Encoding: 90 90 62
Width: 600
GlyphClass: 1
Flags: W
LayerCount: 2
Fore
SplineSet
0 700 m 1,0,-1
 500 700 l 1,1,-1
 500 500 l 1,2,-1
 400 500 l 1,3,-1
 400 600 l 1,4,-1
 0 600 l 1,5,-1
 0 700 l 1,0,-1
0 200 m 1,6,-1
 100 200 l 1,7,-1
 100 100 l 1,8,-1
 500 100 l 1,9,-1
 500 0 l 1,10,-1
 0 0 l 1,11,-1
 0 200 l 1,6,-1
100 300 m 1,12,-1
 200 300 l 1,13,-1
 200 200 l 1,14,-1
 100 200 l 1,15,-1
 100 300 l 1,12,-1
200 400 m 1,16,-1
 300 400 l 1,17,-1
 300 300 l 1,18,-1
 200 300 l 1,19,-1
 200 400 l 1,16,-1
300 500 m 1,20,-1
 400 500 l 1,21,-1
 400 400 l 1,22,-1
 300 400 l 1,23,-1
 300 500 l 1,20,-1
EndSplineSet
EndChar

StartChar: Zcaron
Encoding: 381 381 63
Width: 600
GlyphClass: 1
Flags: W
LayerCount: 2
Fore
SplineSet
0 500 m 1,0,-1
 200 500 l 1,1,-1
 200 600 l 1,2,-1
 300 600 l 1,3,-1
 300 500 l 1,4,-1
 500 500 l 1,5,-1
 500 400 l 1,6,-1
 400 400 l 1,7,-1
 400 300 l 1,8,-1
 300 300 l 1,9,-1
 300 400 l 1,10,-1
 0 400 l 1,11,-1
 0 500 l 1,0,-1
0 100 m 1,12,-1
 100 100 l 1,13,-1
 100 200 l 1,14,-1
 200 200 l 1,15,-1
 200 100 l 1,16,-1
 500 100 l 1,17,-1
 500 0 l 1,18,-1
 0 0 l 1,19,-1
 0 100 l 1,12,-1
100 700 m 1,20,-1
 200 700 l 1,21,-1
 200 600 l 1,22,-1
 100 600 l 1,23,-1
 100 700 l 1,20,-1
200 300 m 1,24,-1
 300 300 l 1,25,-1
 300 200 l 1,26,-1
 200 200 l 1,27,-1
 200 300 l 1,24,-1
300 700 m 1,28,-1
 400 700 l 1,29,-1
 400 600 l 1,30,-1
 300 600 l 1,31,-1
 300 700 l 1,28,-1
EndSplineSet
EndChar

StartChar: a
Encoding: 97 97 64
Width: 600
GlyphClass: 1
Flags: W
LayerCount: 2
Fore
SplineSet
400 400 m 1,0,-1
 500 400 l 1,1,-1
 500 0 l 1,2,-1
 100 0 l 1,3,-1
 100 100 l 1,4,-1
 400 100 l 1,5,-1
 400 200 l 1,6,-1
 100 200 l 1,7,-1
 100 300 l 1,8,-1
 400 300 l 1,9,-1
 400 400 l 1,0,-1
0 200 m 1,10,-1
 100 200 l 1,11,-1
 100 100 l 1,12,-1
 0 100 l 1,13,-1
 0 200 l 1,10,-1
100 500 m 1,14,-1
 400 500 l 1,15,-1
 400 400 l 1,16,-1
 100 400 l 1,17,-1
 100 500 l 1,14,-1
EndSplineSet
EndChar

StartChar: aacute
Encoding: 225 225 65
Width: 600
GlyphClass: 1
Flags: W
LayerCount: 2
Fore
SplineSet
400 400 m 1,0,-1
 500 400 l 1,1,-1
 500 0 l 1,2,-1
 100 0 l 1,3,-1
 100 100 l 1,4,-1
 400 100 l 1,5,-1
 400 200 l 1,6,-1
 100 200 l 1,7,-1
 100 300 l 1,8,-1
 400 300 l 1,9,-1
 400 400 l 1,0,-1
0 200 m 1,10,-1
 100 200 l 1,11,-1
 100 100 l 1,12,-1
 0 100 l 1,13,-1
 0 200 l 1,10,-1
100 500 m 1,14,-1
 200 500 l 1,15,-1
 200 600 l 1,16,-1
 300 600 l 1,17,-1
 300 500 l 1,18,-1
 400 500 l 1,19,-1
 400 400 l 1,20,-1
 100 400 l 1,21,-1
 100 500 l 1,14,-1
300 700 m 1,22,-1
 400 700 l 1,23,-1
 400 600 l 1,24,-1
 300 600 l 1,25,-1
 300 700 l 1,22,-1
EndSplineSet
EndChar

StartChar: acircumflex
Encoding: 226 226 66
Width: 600
GlyphClass: 1
Flags: W
LayerCount: 2
Fore
SplineSet
400 400 m 1,0,-1
 500 400 l 1,1,-1
 500 0 l 1,2,-1
 100 0 l 1,3,-1
 100 100 l 1,4,-1
 400 100 l 1,5,-1
 400 200 l 1,6,-1
 100 200 l 1,7,-1
 100 300 l 1,8,-1
 400 300 l 1,9,-1
 400 400 l 1,0,-1
0 200 m 1,10,-1
 100 200 l 1,11,-1
 100 100 l 1,12,-1
 0 100 l 1,13,-1
 0 200 l 1,10,-1
100 600 m 1,14,-1
 200 600 l 1,15,-1
 200 500 l 1,16,-1
 300 500 l 1,17,-1
 300 600 l 1,18,-1
 400 600 l 1,19,-1
 400 400 l 1,20,-1
 100 400 l 1,21,-1
 100 600 l 1,14,-1
200 700 m 1,22,-1
 300 700 l 1,23,-1
 300 600 l 1,24,-1
 200 600 l 1,25,-1
 200 700 l 1,22,-1
EndSplineSet
EndChar

StartChar: adieresis
Encoding: 228 228 67
Width: 600
GlyphClass: 1
Flags: W
LayerCount: 2
Fore
SplineSet
400 400 m 1,0,-1
 500 400 l 1,1,-1
 500 0 l 1,2,-1
 100 0 l 1,3,-1
 100 100 l 1,4,-1
 400 100 l 1,5,-1
 400 200 l 1,6,-1
 100 200 l 1,7,-1
 100 300 l 1,8,-1
 400 300 l 1,9,-1
 400 400 l 1,0,-1
0 200 m 1,10,-1
 100 200 l 1,11,-1
 100 100 l 1,12,-1
 0 100 l 1,13,-1
 0 200 l 1,10,-1
100 500 m 1,14,-1
 400 500 l 1,15,-1
 400 400 l 1,16,-1
 100 400 l 1,17,-1
 100 500 l 1,14,-1
100 700 m 1,18,-1
 200 700 l 1,19,-1
 200 600 l 1,20,-1
 100 600 l 1,21,-1
 100 700 l 1,18,-1
300 700 m 1,22,-1
 400 700 l 1,23,-1
 400 600 l 1,24,-1
 300 600 l 1,25,-1
 300 700 l 1,22,-1
EndSplineSet
EndChar

StartChar: agrave
Encoding: 224 224 68
Width: 600
GlyphClass: 1
Flags: W
LayerCount: 2
Fore
SplineSet
400 400 m 1,0,-1
 500 400 l 1,1,-1
 500 0 l 1,2,-1
 100 0 l 1,3,-1
 100 100 l 1,4,-1
 400 100 l 1,5,-1
 400 200 l 1,6,-1
 100 200 l 1,7,-1
 100 300 l 1,8,-1
 400 300 l 1,9,-1
 400 400 l 1,0,-1
0 200 m 1,10,-1
 100 200 l 1,11,-1
 100 100 l 1,12,-1
 0 100 l 1,13,-1
 0 200 l 1,10,-1
100 500 m 1,14,-1
 200 500 l 1,15,-1
 200 600 l 1,16,-1
 300 600 l 1,17,-1
 300 500 l 1,18,-1
 400 500 l 1,19,-1
 400 400 l 1,20,-1
 100 400 l 1,21,-1
 100 500 l 1,14,-1
100 700 m 1,22,-1
 200 700 l 1,23,-1
 200 600 l 1,24,-1
 100 600 l 1,25,-1
 100 700 l 1,22,-1
EndSplineSet
EndChar

StartChar: aring
Encoding: 229 229 69
Width: 600
GlyphClass: 1
Flags: W
LayerCount: 2
Fore
SplineSet
400 400 m 1,0,-1
 500 400 l 1,1,-1
 500 0 l 1,2,-1
 100 0 l 1,3,-1
 100 100 l 1,4,-1
 400 100 l 1,5,-1
 400 200 l 1,6,-1
 100 200 l 1,7,-1
 100 300 l 1,8,-1
 400 300 l 1,9,-1
 400 400 l 1,0,-1
0 200 m 1,10,-1
 100 200 l 1,11,-1
 100 100 l 1,12,-1
 0 100 l 1,13,-1
 0 200 l 1,10,-1
100 500 m 1,14,-1
 400 500 l 1,15,-1
 400 400 l 1,16,-1
 100 400 l 1,17,-1
 100 500 l 1,14,-1
200 700 m 1,18,-1
 300 700 l 1,19,-1
 300 600 l 1,20,-1
 200 600 l 1,21,-1
 200 700 l 1,18,-1
EndSplineSet
EndChar

StartChar: atilde
Encoding: 227 227 70
Width: 600
GlyphClass: 1
Flags: W
LayerCount: 2
Fore
SplineSet
400 400 m 1,0,-1
 500 400 l 1,1,-1
 500 0 l 1,2,-1
 100 0 l 1,3,-1
 100 100 l 1,4,-1
 400 100 l 1,5,-1
 400 200 l 1,6,-1
 100 200 l 1,7,-1
 100 300 l 1,8,-1
 400 300 l 1,9,-1
 400 400 l 1,0,-1
0 200 m 1,10,-1
 100 200 l 1,11,-1
 100 100 l 1,12,-1
 0 100 l 1,13,-1
 0 200 l 1,10,-1
100 500 m 1,14,-1
 400 500 l 1,15,-1
 400 400 l 1,16,-1
 100 400 l 1,17,-1
 100 500 l 1,14,-1
100 700 m 1,18,-1
 400 700 l 1,19,-1
 400 600 l 1,20,-1
 100 600 l 1,21,-1
 100 700 l 1,18,-1
EndSplineSet
EndChar

StartChar: ae
Encoding: 230 230 71
Width: 600
GlyphClass: 1
Flags: W
LayerCount: 2
Fore
SplineSet
200 400 m 1,0,-1
 300 400 l 1,1,-1
 300 300 l 1,2,-1
 400 300 l 1,3,-1
 400 400 l 1,4,-1
 500 400 l 1,5,-1
 500 200 l 1,6,-1
 300 200 l 1,7,-1
 300 100 l 1,8,-1
 500 100 l 1,9,-1
 500 0 l 1,10,-1
 100 0 l 1,11,-1
 100 100 l 1,12,-1
 200 100 l 1,13,-1
 200 200 l 1,14,-1
 100 200 l 1,15,-1
 100 300 l 1,16,-1
 200 300 l 1,17,-1
 200 400 l 1,0,-1
0 200 m 1,18,-1
 100 200 l 1,19,-1
 100 100 l 1,20,-1
 0 100 l 1,21,-1
 0 200 l 1,18,-1
0 500 m 1,22,-1
 200 500 l 1,23,-1
 200 400 l 1,24,-1
 0 400 l 1,25,-1
 0 500 l 1,22,-1
300 500 m 1,26,-1
 400 500 l 1,27,-1
 400 400 l 1,28,-1
 300 400 l 1,29,-1
 300 500 l 1,26,-1
EndSplineSet
EndChar

StartChar: b
Encoding: 98 98 72
Width: 600
GlyphClass: 1
Flags: W
LayerCount: 2
Fore
SplineSet
0 700 m 1,0,-1
 100 700 l 1,1,-1
 100 400 l 1,2,-1
 200 400 l 1,3,-1
 200 300 l 1,4,-1
 100 300 l 1,5,-1
 100 200 l 1,6,-1
 200 200 l 1,7,-1
 200 100 l 1,8,-1
 100 100 l 1,9,-1
 100 0 l 1,10,-1
 0 0 l 1,11,-1
 0 700 l 1,0,-1
200 100 m 1,12,-1
 400 100 l 1,13,-1
 400 0 l 1,14,-1
 200 0 l 1,15,-1
 200 100 l 1,12,-1
200 500 m 1,16,-1
 400 500 l 1,17,-1
 400 400 l 1,18,-1
 200 400 l 1,19,-1
 200 500 l 1,16,-1
400 400 m 1,20,-1
 500 400 l 1,21,-1
 500 100 l 1,22,-1
 400 100 l 1,23,-1
 400 400 l 1,20,-1
EndSplineSet
EndChar

StartChar: c
Encoding: 99 99 73
Width: 600
GlyphClass: 1
Flags: W
LayerCount: 2
Fore
SplineSet
400 400 m 1,0,-1
 500 400 l 1,1,-1
 500 300 l 1,2,-1
 400 300 l 1,3,-1
 400 400 l 1,0,-1
0 400 m 1,4,-1
 100 400 l 1,5,-1
 100 100 l 1,6,-1
 0 100 l 1,7,-1
 0 400 l 1,4,-1
100 100 m 1,8,-1
 400 100 l 1,9,-1
 400 0 l 1,10,-1
 100 0 l 1,11,-1
 100 100 l 1,8,-1
100 500 m 1,12,-1
 400 500 l 1,13,-1
 400 400 l 1,14,-1
 100 400 l 1,15,-1
 100 500 l 1,12,-1
400 200 m 1,16,-1
 500 200 l 1,17,-1
 500 100 l 1,18,-1
 400 100 l 1,19,-1
 400 200 l 1,16,-1
EndSplineSet
EndChar

StartChar: ccedilla
Encoding: 231 231 74
Width: 600
GlyphClass: 1
Flags: W
LayerCount: 2
Fore
SplineSet
100 400 m 1,0,-1
 100 100 l 1,1,-1
 0 100 l 1,2,-1
 0 400 l 1,3,-1
 100 400 l 1,0,-1
0 0 m 1,4,-1
 100 0 l 1,5,-1
 100 100 l 1,6,-1
 400 100 l 1,7,-1
 400 0 l 1,8,-1
 300 0 l 1,9,-1
 300 -100 l 1,10,-1
 0 -100 l 1,11,-1
 0 0 l 1,4,-1
100 500 m 1,12,-1
 400 500 l 1,13,-1
 400 400 l 1,14,-1
 100 400 l 1,15,-1
 100 500 l 1,12,-1
400 200 m 1,16,-1
 500 200 l 1,17,-1
 500 100 l 1,18,-1
 400 100 l 1,19,-1
 400 200 l 1,16,-1
400 400 m 1,20,-1
 500 400 l 1,21,-1
 500 300 l 1,22,-1
 400 300 l 1,23,-1
 400 400 l 1,20,-1
EndSplineSet
EndChar

StartChar: d
Encoding: 100 100 75
Width: 600
GlyphClass: 1
Flags: W
LayerCount: 2
Fore
SplineSet
500 700 m 1,0,-1
 500 0 l 1,1,-1
 400 0 l 1,2,-1
 400 100 l 1,3,-1
 300 100 l 1,4,-1
 300 200 l 1,5,-1
 400 200 l 1,6,-1
 400 300 l 1,7,-1
 300 300 l 1,8,-1
 300 400 l 1,9,-1
 400 400 l 1,10,-1
 400 700 l 1,11,-1
 500 700 l 1,0,-1
0 400 m 1,12,-1
 100 400 l 1,13,-1
 100 100 l 1,14,-1
 0 100 l 1,15,-1
 0 400 l 1,12,-1
100 100 m 1,16,-1
 300 100 l 1,17,-1
 300 0 l 1,18,-1
 100 0 l 1,19,-1
 100 100 l 1,16,-1
100 500 m 1,20,-1
 300 500 l 1,21,-1
 300 400 l 1,22,-1
 100 400 l 1,23,-1
 100 500 l 1,20,-1
EndSplineSet
EndChar

StartChar: eth
Encoding: 240 240 76
Width: 600
GlyphClass: 1
Flags: W
LayerCount: 2
Fore
SplineSet
100 100 m 1,0,-1
 300 100 l 1,1,-1
 300 0 l 1,2,-1
 100 0 l 1,3,-1
 100 100 l 1,0,-1
0 300 m 1,4,-1
 100 300 l 1,5,-1
 100 100 l 1,6,-1
 0 100 l 1,7,-1
 0 300 l 1,4,-1
100 400 m 1,8,-1
 300 400 l 1,9,-1
 300 500 l 1,10,-1
 100 500 l 1,11,-1
 100 600 l 1,12,-1
 200 600 l 1,13,-1
 200 700 l 1,14,-1
 300 700 l 1,15,-1
 300 600 l 1,16,-1
 500 600 l 1,17,-1
 500 500 l 1,18,-1
 400 500 l 1,19,-1
 400 100 l 1,20,-1
 300 100 l 1,21,-1
 300 300 l 1,22,-1
 100 300 l 1,23,-1
 100 400 l 1,8,-1
EndSplineSet
EndChar

StartChar: e
Encoding: 101 101 77
Width: 600
GlyphClass: 1
Flags: W
LayerCount: 2
Fore
SplineSet
400 400 m 1,0,-1
 500 400 l 1,1,-1
 500 200 l 1,2,-1
 100 200 l 1,3,-1
 100 100 l 1,4,-1
 0 100 l 1,5,-1
 0 400 l 1,6,-1
 100 400 l 1,7,-1
 100 300 l 1,8,-1
 400 300 l 1,9,-1
 400 400 l 1,0,-1
100 100 m 1,10,-1
 400 100 l 1,11,-1
 400 0 l 1,12,-1
 100 0 l 1,13,-1
 100 100 l 1,10,-1
100 500 m 1,14,-1
 400 500 l 1,15,-1
 400 400 l 1,16,-1
 100 400 l 1,17,-1
 100 500 l 1,14,-1
EndSplineSet
EndChar

StartChar: eacute
Encoding: 233 233 78
Width: 600
GlyphClass: 1
Flags: W
LayerCount: 2
Fore
SplineSet
400 400 m 1,0,-1
 500 400 l 1,1,-1
 500 200 l 1,2,-1
 100 200 l 1,3,-1
 100 100 l 1,4,-1
 0 100 l 1,5,-1
 0 400 l 1,6,-1
 100 400 l 1,7,-1
 100 300 l 1,8,-1
 400 300 l 1,9,-1
 400 400 l 1,0,-1
100 100 m 1,10,-1
 400 100 l 1,11,-1
 400 0 l 1,12,-1
 100 0 l 1,13,-1
 100 100 l 1,10,-1
100 500 m 1,14,-1
 200 500 l 1,15,-1
 200 600 l 1,16,-1
 300 600 l 1,17,-1
 300 500 l 1,18,-1
 400 500 l 1,19,-1
 400 400 l 1,20,-1
 100 400 l 1,21,-1
 100 500 l 1,14,-1
300 700 m 1,22,-1
 400 700 l 1,23,-1
 400 600 l 1,24,-1
 300 600 l 1,25,-1
 300 700 l 1,22,-1
EndSplineSet
EndChar

StartChar: ecircumflex
Encoding: 234 234 79
Width: 600
GlyphClass: 1
Flags: W
LayerCount: 2
Fore
SplineSet
400 400 m 1,0,-1
 500 400 l 1,1,-1
 500 200 l 1,2,-1
 100 200 l 1,3,-1
 100 100 l 1,4,-1
 0 100 l 1,5,-1
 0 400 l 1,6,-1
 100 400 l 1,7,-1
 100 300 l 1,8,-1
 400 300 l 1,9,-1
 400 400 l 1,0,-1
100 100 m 1,10,-1
 400 100 l 1,11,-1
 400 0 l 1,12,-1
 100 0 l 1,13,-1
 100 100 l 1,10,-1
100 600 m 1,14,-1
 200 600 l 1,15,-1
 200 500 l 1,16,-1
 300 500 l 1,17,-1
 300 600 l 1,18,-1
 400 600 l 1,19,-1
 400 400 l 1,20,-1
 100 400 l 1,21,-1
 100 600 l 1,14,-1
200 700 m 1,22,-1
 300 700 l 1,23,-1
 300 600 l 1,24,-1
 200 600 l 1,25,-1
 200 700 l 1,22,-1
EndSplineSet
EndChar

StartChar: edieresis
Encoding: 235 235 80
Width: 600
GlyphClass: 1
Flags: W
LayerCount: 2
Fore
SplineSet
400 400 m 1,0,-1
 500 400 l 1,1,-1
 500 200 l 1,2,-1
 100 200 l 1,3,-1
 100 100 l 1,4,-1
 0 100 l 1,5,-1
 0 400 l 1,6,-1
 100 400 l 1,7,-1
 100 300 l 1,8,-1
 400 300 l 1,9,-1
 400 400 l 1,0,-1
100 100 m 1,10,-1
 400 100 l 1,11,-1
 400 0 l 1,12,-1
 100 0 l 1,13,-1
 100 100 l 1,10,-1
100 500 m 1,14,-1
 400 500 l 1,15,-1
 400 400 l 1,16,-1
 100 400 l 1,17,-1
 100 500 l 1,14,-1
100 700 m 1,18,-1
 200 700 l 1,19,-1
 200 600 l 1,20,-1
 100 600 l 1,21,-1
 100 700 l 1,18,-1
300 700 m 1,22,-1
 400 700 l 1,23,-1
 400 600 l 1,24,-1
 300 600 l 1,25,-1
 300 700 l 1,22,-1
EndSplineSet
EndChar

StartChar: egrave
Encoding: 232 232 81
Width: 600
GlyphClass: 1
Flags: W
LayerCount: 2
Fore
SplineSet
400 400 m 1,0,-1
 500 400 l 1,1,-1
 500 200 l 1,2,-1
 100 200 l 1,3,-1
 100 100 l 1,4,-1
 0 100 l 1,5,-1
 0 400 l 1,6,-1
 100 400 l 1,7,-1
 100 300 l 1,8,-1
 400 300 l 1,9,-1
 400 400 l 1,0,-1
100 100 m 1,10,-1
 400 100 l 1,11,-1
 400 0 l 1,12,-1
 100 0 l 1,13,-1
 100 100 l 1,10,-1
100 500 m 1,14,-1
 200 500 l 1,15,-1
 200 600 l 1,16,-1
 300 600 l 1,17,-1
 300 500 l 1,18,-1
 400 500 l 1,19,-1
 400 400 l 1,20,-1
 100 400 l 1,21,-1
 100 500 l 1,14,-1
100 700 m 1,22,-1
 200 700 l 1,23,-1
 200 600 l 1,24,-1
 100 600 l 1,25,-1
 100 700 l 1,22,-1
EndSplineSet
EndChar

StartChar: f
Encoding: 102 102 82
Width: 600
GlyphClass: 1
Flags: W
LayerCount: 2
Fore
SplineSet
0 400 m 1,0,-1
 100 400 l 1,1,-1
 100 600 l 1,2,-1
 200 600 l 1,3,-1
 200 400 l 1,4,-1
 300 400 l 1,5,-1
 300 300 l 1,6,-1
 200 300 l 1,7,-1
 200 0 l 1,8,-1
 100 0 l 1,9,-1
 100 300 l 1,10,-1
 0 300 l 1,11,-1
 0 400 l 1,0,-1
200 700 m 1,12,-1
 400 700 l 1,13,-1
 400 600 l 1,14,-1
 200 600 l 1,15,-1
 200 700 l 1,12,-1
400 600 m 1,16,-1
 500 600 l 1,17,-1
 500 500 l 1,18,-1
 400 500 l 1,19,-1
 400 600 l 1,16,-1
EndSplineSet
EndChar

StartChar: g
Encoding: 103 103 83
Width: 600
GlyphClass: 1
Flags: W
LayerCount: 2
Fore
SplineSet
400 500 m 1,0,-1
 500 500 l 1,1,-1
 500 0 l 1,2,-1
 400 0 l 1,3,-1
 400 100 l 1,4,-1
 100 100 l 1,5,-1
 100 200 l 1,6,-1
 400 200 l 1,7,-1
 400 300 l 1,8,-1
 300 300 l 1,9,-1
 300 400 l 1,10,-1
 400 400 l 1,11,-1
 400 500 l 1,0,-1
0 400 m 1,12,-1
 100 400 l 1,13,-1
 100 200 l 1,14,-1
 0 200 l 1,15,-1
 0 400 l 1,12,-1
100 0 m 1,16,-1
 400 0 l 1,17,-1
 400 -100 l 1,18,-1
 100 -100 l 1,19,-1
 100 0 l 1,16,-1
100 500 m 1,20,-1
 300 500 l 1,21,-1
 300 400 l 1,22,-1
 100 400 l 1,23,-1
 100 500 l 1,20,-1
EndSplineSet
EndChar

StartChar: h
Encoding: 104 104 84
Width: 600
GlyphClass: 1
Flags: W
LayerCount: 2
Fore
SplineSet
100 0 m 1,0,-1
 0 0 l 1,1,-1
 0 700 l 1,2,-1
 100 700 l 1,3,-1
 100 400 l 1,4,-1
 200 400 l 1,5,-1
 200 300 l 1,6,-1
 100 300 l 1,7,-1
 100 0 l 1,0,-1
200 500 m 1,8,-1
 400 500 l 1,9,-1
 400 400 l 1,10,-1
 200 400 l 1,11,-1
 200 500 l 1,8,-1
400 400 m 1,12,-1
 500 400 l 1,13,-1
 500 0 l 1,14,-1
 400 0 l 1,15,-1
 400 400 l 1,12,-1
EndSplineSet
EndChar

StartChar: i
Encoding: 105 105 85
Width: 600
GlyphClass: 1
Flags: W
LayerCount: 2
Fore
SplineSet
100 500 m 1,0,-1
 300 500 l 1,1,-1
 300 100 l 1,2,-1
 400 100 l 1,3,-1
 400 0 l 1,4,-1
 100 0 l 1,5,-1
 100 100 l 1,6,-1
 200 100 l 1,7,-1
 200 400 l 1,8,-1
 100 400 l 1,9,-1
 100 500 l 1,0,-1
200 700 m 1,10,-1
 300 700 l 1,11,-1
 300 600 l 1,12,-1
 200 600 l 1,13,-1
 200 700 l 1,10,-1
EndSplineSet
EndChar

StartChar: dotlessi
Encoding: 305 305 86
Width: 600
GlyphClass: 1
Flags: W
LayerCount: 2
Fore
SplineSet
100 500 m 1,0,-1
 300 500 l 1,1,-1
 300 100 l 1,2,-1
 400 100 l 1,3,-1
 400 0 l 1,4,-1
 100 0 l 1,5,-1
 100 100 l 1,6,-1
 200 100 l 1,7,-1
 200 400 l 1,8,-1
 100 400 l 1,9,-1
 100 500 l 1,0,-1
EndSplineSet
EndChar

StartChar: iacute
Encoding: 237 237 87
Width: 600
GlyphClass: 1
Flags: W
LayerCount: 2
Fore
SplineSet
100 500 m 1,0,-1
 200 500 l 1,1,-1
 200 600 l 1,2,-1
 300 600 l 1,3,-1
 300 100 l 1,4,-1
 400 100 l 1,5,-1
 400 0 l 1,6,-1
 100 0 l 1,7,-1
 100 100 l 1,8,-1
 200 100 l 1,9,-1
 200 400 l 1,10,-1
 100 400 l 1,11,-1
 100 500 l 1,0,-1
300 700 m 1,12,-1
 400 700 l 1,13,-1
 400 600 l 1,14,-1
 300 600 l 1,15,-1
 300 700 l 1,12,-1
EndSplineSet
EndChar

StartChar: icircumflex
Encoding: 238 238 88
Width: 600
GlyphClass: 1
Flags: W
LayerCount: 2
Fore
SplineSet
100 600 m 1,0,-1
 200 600 l 1,1,-1
 200 500 l 1,2,-1
 300 500 l 1,3,-1
 300 100 l 1,4,-1
 400 100 l 1,5,-1
 400 0 l 1,6,-1
 100 0 l 1,7,-1
 100 100 l 1,8,-1
 200 100 l 1,9,-1
 200 400 l 1,10,-1
 100 400 l 1,11,-1
 100 600 l 1,0,-1
200 700 m 1,12,-1
 300 700 l 1,13,-1
 300 600 l 1,14,-1
 200 600 l 1,15,-1
 200 700 l 1,12,-1
300 600 m 1,16,-1
 400 600 l 1,17,-1
 400 500 l 1,18,-1
 300 500 l 1,19,-1
 300 600 l 1,16,-1
EndSplineSet
EndChar

StartChar: idieresis
Encoding: 239 239 89
Width: 600
GlyphClass: 1
Flags: W
LayerCount: 2
Fore
SplineSet
100 500 m 1,0,-1
 300 500 l 1,1,-1
 300 100 l 1,2,-1
 400 100 l 1,3,-1
 400 0 l 1,4,-1
 100 0 l 1,5,-1
 100 100 l 1,6,-1
 200 100 l 1,7,-1
 200 400 l 1,8,-1
 100 400 l 1,9,-1
 100 500 l 1,0,-1
100 700 m 1,10,-1
 200 700 l 1,11,-1
 200 600 l 1,12,-1
 100 600 l 1,13,-1
 100 700 l 1,10,-1
300 700 m 1,14,-1
 400 700 l 1,15,-1
 400 600 l 1,16,-1
 300 600 l 1,17,-1
 300 700 l 1,14,-1
EndSplineSet
EndChar

StartChar: igrave
Encoding: 236 236 90
Width: 600
GlyphClass: 1
Flags: W
LayerCount: 2
Fore
SplineSet
100 500 m 1,0,-1
 200 500 l 1,1,-1
 200 600 l 1,2,-1
 300 600 l 1,3,-1
 300 100 l 1,4,-1
 400 100 l 1,5,-1
 400 0 l 1,6,-1
 100 0 l 1,7,-1
 100 100 l 1,8,-1
 200 100 l 1,9,-1
 200 400 l 1,10,-1
 100 400 l 1,11,-1
 100 500 l 1,0,-1
100 700 m 1,12,-1
 200 700 l 1,13,-1
 200 600 l 1,14,-1
 100 600 l 1,15,-1
 100 700 l 1,12,-1
EndSplineSet
EndChar

StartChar: j
Encoding: 106 106 91
Width: 600
GlyphClass: 1
Flags: W
LayerCount: 2
Fore
SplineSet
0 100 m 1,0,-1
 100 100 l 1,1,-1
 100 0 l 1,2,-1
 0 0 l 1,3,-1
 0 100 l 1,0,-1
100 0 m 1,4,-1
 300 0 l 1,5,-1
 300 -100 l 1,6,-1
 100 -100 l 1,7,-1
 100 0 l 1,4,-1
200 500 m 1,8,-1
 400 500 l 1,9,-1
 400 0 l 1,10,-1
 300 0 l 1,11,-1
 300 400 l 1,12,-1
 200 400 l 1,13,-1
 200 500 l 1,8,-1
300 700 m 1,14,-1
 400 700 l 1,15,-1
 400 600 l 1,16,-1
 300 600 l 1,17,-1
 300 700 l 1,14,-1
EndSplineSet
EndChar

StartChar: k
Encoding: 107 107 92
Width: 600
GlyphClass: 1
Flags: W
LayerCount: 2
Fore
SplineSet
100 0 m 1,0,-1
 0 0 l 1,1,-1
 0 700 l 1,2,-1
 100 700 l 1,3,-1
 100 300 l 1,4,-1
 200 300 l 1,5,-1
 200 200 l 1,6,-1
 100 200 l 1,7,-1
 100 0 l 1,0,-1
200 200 m 1,8,-1
 300 200 l 1,9,-1
 300 100 l 1,10,-1
 200 100 l 1,11,-1
 200 200 l 1,8,-1
200 400 m 1,12,-1
 300 400 l 1,13,-1
 300 300 l 1,14,-1
 200 300 l 1,15,-1
 200 400 l 1,12,-1
300 100 m 1,16,-1
 400 100 l 1,17,-1
 400 0 l 1,18,-1
 300 0 l 1,19,-1
 300 100 l 1,16,-1
300 500 m 1,20,-1
 400 500 l 1,21,-1
 400 400 l 1,22,-1
 300 400 l 1,23,-1
 300 500 l 1,20,-1
EndSplineSet
EndChar

StartChar: l
Encoding: 108 108 93
Width: 600
GlyphClass: 1
Flags: W
LayerCount: 2
Fore
SplineSet
100 100 m 1,0,-1
 200 100 l 1,1,-1
 200 600 l 1,2,-1
 100 600 l 1,3,-1
 100 700 l 1,4,-1
 300 700 l 1,5,-1
 300 100 l 1,6,-1
 400 100 l 1,7,-1
 400 0 l 1,8,-1
 100 0 l 1,9,-1
 100 100 l 1,0,-1
EndSplineSet
EndChar

StartChar: lslash
Encoding: 322 322 94
Width: 600
GlyphClass: 1
Flags: W
LayerCount: 2
Fore
SplineSet
100 100 m 1,0,-1
 200 100 l 1,1,-1
 200 300 l 1,2,-1
 100 300 l 1,3,-1
 100 400 l 1,4,-1
 200 400 l 1,5,-1
 200 600 l 1,6,-1
 100 600 l 1,7,-1
 100 700 l 1,8,-1
 300 700 l 1,9,-1
 300 500 l 1,10,-1
 400 500 l 1,11,-1
 400 400 l 1,12,-1
 300 400 l 1,13,-1
 300 100 l 1,14,-1
 400 100 l 1,15,-1
 400 0 l 1,16,-1
 100 0 l 1,17,-1
 100 100 l 1,0,-1
EndSplineSet
EndChar

StartChar: m
Encoding: 109 109 95
Width: 600
GlyphClass: 1
Flags: W
LayerCount: 2
Fore
SplineSet
200 500 m 1,0,-1
 200 400 l 1,1,-1
 100 400 l 1,2,-1
 100 0 l 1,3,-1
 0 0 l 1,4,-1
 0 500 l 1,5,-1
 200 500 l 1,0,-1
200 400 m 1,6,-1
 300 400 l 1,7,-1
 300 0 l 1,8,-1
 200 0 l 1,9,-1
 200 400 l 1,6,-1
300 500 m 1,10,-1
 400 500 l 1,11,-1
 400 400 l 1,12,-1
 300 400 l 1,13,-1
 300 500 l 1,10,-1
400 400 m 1,14,-1
 500 400 l 1,15,-1
 500 0 l 1,16,-1
 400 0 l 1,17,-1
 400 400 l 1,14,-1
EndSplineSet
EndChar

StartChar: n
Encoding: 110 110 96
Width: 600
GlyphClass: 1
Flags: W
LayerCount: 2
Fore
SplineSet
100 500 m 1,0,-1
 100 400 l 1,1,-1
 200 400 l 1,2,-1
 200 300 l 1,3,-1
 100 300 l 1,4,-1
 100 0 l 1,5,-1
 0 0 l 1,6,-1
 0 500 l 1,7,-1
 100 500 l 1,0,-1
200 500 m 1,8,-1
 400 500 l 1,9,-1
 400 400 l 1,10,-1
 200 400 l 1,11,-1
 200 500 l 1,8,-1
400 400 m 1,12,-1
 500 400 l 1,13,-1
 500 0 l 1,14,-1
 400 0 l 1,15,-1
 400 400 l 1,12,-1
EndSplineSet
EndChar

StartChar: ntilde
Encoding: 241 241 97
Width: 600
GlyphClass: 1
Flags: W
LayerCount: 2
Fore
SplineSet
100 500 m 1,0,-1
 100 400 l 1,1,-1
 200 400 l 1,2,-1
 200 300 l 1,3,-1
 100 300 l 1,4,-1
 100 0 l 1,5,-1
 0 0 l 1,6,-1
 0 500 l 1,7,-1
 100 500 l 1,0,-1
100 700 m 1,8,-1
 400 700 l 1,9,-1
 400 600 l 1,10,-1
 100 600 l 1,11,-1
 100 700 l 1,8,-1
200 500 m 1,12,-1
 400 500 l 1,13,-1
 400 400 l 1,14,-1
 200 400 l 1,15,-1
 200 500 l 1,12,-1
400 400 m 1,16,-1
 500 400 l 1,17,-1
 500 0 l 1,18,-1
 400 0 l 1,19,-1
 400 400 l 1,16,-1
EndSplineSet
EndChar

StartChar: o
Encoding: 111 111 98
Width: 600
GlyphClass: 1
Flags: W
LayerCount: 2
Fore
SplineSet
100 100 m 1,0,-1
 0 100 l 1,1,-1
 0 400 l 1,2,-1
 100 400 l 1,3,-1
 100 100 l 1,0,-1
100 100 m 1,4,-1
 400 100 l 1,5,-1
 400 0 l 1,6,-1
 100 0 l 1,7,-1
 100 100 l 1,4,-1
100 500 m 1,8,-1
 400 500 l 1,9,-1
 400 400 l 1,10,-1
 100 400 l 1,11,-1
 100 500 l 1,8,-1
400 400 m 1,12,-1
 500 400 l 1,13,-1
 500 100 l 1,14,-1
 400 100 l 1,15,-1
 400 400 l 1,12,-1
EndSplineSet
EndChar

StartChar: oacute
Encoding: 243 243 99
Width: 600
GlyphClass: 1
Flags: W
LayerCount: 2
Fore
SplineSet
100 100 m 1,0,-1
 0 100 l 1,1,-1
 0 400 l 1,2,-1
 100 400 l 1,3,-1
 100 100 l 1,0,-1
100 100 m 1,4,-1
 400 100 l 1,5,-1
 400 0 l 1,6,-1
 100 0 l 1,7,-1
 100 100 l 1,4,-1
100 500 m 1,8,-1
 200 500 l 1,9,-1
 200 600 l 1,10,-1
 300 600 l 1,11,-1
 300 500 l 1,12,-1
 400 500 l 1,13,-1
 400 400 l 1,14,-1
 100 400 l 1,15,-1
 100 500 l 1,8,-1
300 700 m 1,16,-1
 400 700 l 1,17,-1
 400 600 l 1,18,-1
 300 600 l 1,19,-1
 300 700 l 1,16,-1
400 400 m 1,20,-1
 500 400 l 1,21,-1
 500 100 l 1,22,-1
 400 100 l 1,23,-1
 400 400 l 1,20,-1
EndSplineSet
EndChar

StartChar: ocircumflex
Encoding: 244 244 100
Width: 600
GlyphClass: 1
Flags: W
LayerCount: 2
Fore
SplineSet
100 100 m 1,0,-1
 0 100 l 1,1,-1
 0 400 l 1,2,-1
 100 400 l 1,3,-1
 100 100 l 1,0,-1
100 100 m 1,4,-1
 400 100 l 1,5,-1
 400 0 l 1,6,-1
 100 0 l 1,7,-1
 100 100 l 1,4,-1
100 600 m 1,8,-1
 200 600 l 1,9,-1
 200 500 l 1,10,-1
 300 500 l 1,11,-1
 300 600 l 1,12,-1
 400 600 l 1,13,-1
 400 400 l 1,14,-1
 100 400 l 1,15,-1
 100 600 l 1,8,-1
200 700 m 1,16,-1
 300 700 l 1,17,-1
 300 600 l 1,18,-1
 200 600 l 1,19,-1
 200 700 l 1,16,-1
400 400 m 1,20,-1
 500 400 l 1,21,-1
 500 100 l 1,22,-1
 400 100 l 1,23,-1
 400 400 l 1,20,-1
EndSplineSet
EndChar

StartChar: odieresis
Encoding: 246 246 101
Width: 600
GlyphClass: 1
Flags: W
LayerCount: 2
Fore
SplineSet
100 100 m 1,0,-1
 0 100 l 1,1,-1
 0 400 l 1,2,-1
 100 400 l 1,3,-1
 100 100 l 1,0,-1
100 100 m 1,4,-1
 400 100 l 1,5,-1
 400 0 l 1,6,-1
 100 0 l 1,7,-1
 100 100 l 1,4,-1
100 500 m 1,8,-1
 400 500 l 1,9,-1
 400 400 l 1,10,-1
 100 400 l 1,11,-1
 100 500 l 1,8,-1
100 700 m 1,12,-1
 200 700 l 1,13,-1
 200 600 l 1,14,-1
 100 600 l 1,15,-1
 100 700 l 1,12,-1
300 700 m 1,16,-1
 400 700 l 1,17,-1
 400 600 l 1,18,-1
 300 600 l 1,19,-1
 300 700 l 1,16,-1
400 400 m 1,20,-1
 500 400 l 1,21,-1
 500 100 l 1,22,-1
 400 100 l 1,23,-1
 400 400 l 1,20,-1
EndSplineSet
EndChar

StartChar: ograve
Encoding: 242 242 102
Width: 600
GlyphClass: 1
Flags: W
LayerCount: 2
Fore
SplineSet
100 100 m 1,0,-1
 0 100 l 1,1,-1
 0 400 l 1,2,-1
 100 400 l 1,3,-1
 100 100 l 1,0,-1
100 100 m 1,4,-1
 400 100 l 1,5,-1
 400 0 l 1,6,-1
 100 0 l 1,7,-1
 100 100 l 1,4,-1
100 500 m 1,8,-1
 200 500 l 1,9,-1
 200 600 l 1,10,-1
 300 600 l 1,11,-1
 300 500 l 1,12,-1
 400 500 l 1,13,-1
 400 400 l 1,14,-1
 100 400 l 1,15,-1
 100 500 l 1,8,-1
100 700 m 1,16,-1
 200 700 l 1,17,-1
 200 600 l 1,18,-1
 100 600 l 1,19,-1
 100 700 l 1,16,-1
400 400 m 1,20,-1
 500 400 l 1,21,-1
 500 100 l 1,22,-1
 400 100 l 1,23,-1
 400 400 l 1,20,-1
EndSplineSet
EndChar

StartChar: oslash
Encoding: 248 248 103
Width: 600
GlyphClass: 1
Flags: W
LayerCount: 2
Fore
SplineSet
100 200 m 1,0,-1
 200 200 l 1,1,-1
 200 100 l 1,2,-1
 400 100 l 1,3,-1
 400 0 l 1,4,-1
 100 0 l 1,5,-1
 100 100 l 1,6,-1
 0 100 l 1,7,-1
 0 400 l 1,8,-1
 100 400 l 1,9,-1
 100 200 l 1,0,-1
0 0 m 1,10,-1
 100 0 l 1,11,-1
 100 -100 l 1,12,-1
 0 -100 l 1,13,-1
 0 0 l 1,10,-1
100 500 m 1,14,-1
 400 500 l 1,15,-1
 400 400 l 1,16,-1
 500 400 l 1,17,-1
 500 100 l 1,18,-1
 400 100 l 1,19,-1
 400 300 l 1,20,-1
 300 300 l 1,21,-1
 300 400 l 1,22,-1
 100 400 l 1,23,-1
 100 500 l 1,14,-1
200 300 m 1,24,-1
 300 300 l 1,25,-1
 300 200 l 1,26,-1
 200 200 l 1,27,-1
 200 300 l 1,24,-1
400 600 m 1,28,-1
 500 600 l 1,29,-1
 500 500 l 1,30,-1
 400 500 l 1,31,-1
 400 600 l 1,28,-1
EndSplineSet
EndChar

StartChar: otilde
Encoding: 245 245 104
Width: 600
GlyphClass: 1
Flags: W
LayerCount: 2
Fore
SplineSet
100 100 m 1,0,-1
 0 100 l 1,1,-1
 0 400 l 1,2,-1
 100 400 l 1,3,-1
 100 100 l 1,0,-1
100 100 m 1,4,-1
 400 100 l 1,5,-1
 400 0 l 1,6,-1
 100 0 l 1,7,-1
 100 100 l 1,4,-1
100 500 m 1,8,-1
 400 500 l 1,9,-1
 400 400 l 1,10,-1
 100 400 l 1,11,-1
 100 500 l 1,8,-1
100 700 m 1,12,-1
 400 700 l 1,13,-1
 400 600 l 1,14,-1
 100 600 l 1,15,-1
 100 700 l 1,12,-1
400 400 m 1,16,-1
 500 400 l 1,17,-1
 500 100 l 1,18,-1
 400 100 l 1,19,-1
 400 400 l 1,16,-1
EndSplineSet
EndChar

StartChar: oe
Encoding: 339 339 105
Width: 600
GlyphClass: 1
Flags: W
LayerCount: 2
Fore
SplineSet
200 0 m 1,0,-1
 100 0 l 1,1,-1
 100 100 l 1,2,-1
 200 100 l 1,3,-1
 200 0 l 1,0,-1
0 400 m 1,4,-1
 100 400 l 1,5,-1
 100 100 l 1,6,-1
 0 100 l 1,7,-1
 0 400 l 1,4,-1
100 500 m 1,8,-1
 400 500 l 1,9,-1
 400 400 l 1,10,-1
 300 400 l 1,11,-1
 300 300 l 1,12,-1
 400 300 l 1,13,-1
 400 400 l 1,14,-1
 500 400 l 1,15,-1
 500 200 l 1,16,-1
 300 200 l 1,17,-1
 300 100 l 1,18,-1
 200 100 l 1,19,-1
 200 400 l 1,20,-1
 100 400 l 1,21,-1
 100 500 l 1,8,-1
300 100 m 1,22,-1
 400 100 l 1,23,-1
 400 0 l 1,24,-1
 300 0 l 1,25,-1
 300 100 l 1,22,-1
EndSplineSet
EndChar

StartChar: p
Encoding: 112 112 106
Width: 600
GlyphClass: 1
Flags: W
LayerCount: 2
Fore
SplineSet
100 500 m 1,0,-1
 100 400 l 1,1,-1
 200 400 l 1,2,-1
 200 300 l 1,3,-1
 100 300 l 1,4,-1
 100 200 l 1,5,-1
 200 200 l 1,6,-1
 200 100 l 1,7,-1
 100 100 l 1,8,-1
 100 -100 l 1,9,-1
 0 -100 l 1,10,-1
 0 500 l 1,11,-1
 100 500 l 1,0,-1
200 100 m 1,12,-1
 400 100 l 1,13,-1
 400 0 l 1,14,-1
 200 0 l 1,15,-1
 200 100 l 1,12,-1
200 500 m 1,16,-1
 400 500 l 1,17,-1
 400 400 l 1,18,-1
 200 400 l 1,19,-1
 200 500 l 1,16,-1
400 400 m 1,20,-1
 500 400 l 1,21,-1
 500 100 l 1,22,-1
 400 100 l 1,23,-1
 400 400 l 1,20,-1
EndSplineSet
EndChar

StartChar: thorn
Encoding: 254 254 107
Width: 600
GlyphClass: 1
Flags: W
LayerCount: 2
Fore
SplineSet
200 500 m 1,0,-1
 200 400 l 1,1,-1
 400 400 l 1,2,-1
 400 300 l 1,3,-1
 200 300 l 1,4,-1
 200 100 l 1,5,-1
 400 100 l 1,6,-1
 400 0 l 1,7,-1
 200 0 l 1,8,-1
 200 -100 l 1,9,-1
 100 -100 l 1,10,-1
 100 500 l 1,11,-1
 200 500 l 1,0,-1
400 300 m 1,12,-1
 500 300 l 1,13,-1
 500 100 l 1,14,-1
 400 100 l 1,15,-1
 400 300 l 1,12,-1
EndSplineSet
EndChar

StartChar: q
Encoding: 113 113 108
Width: 600
GlyphClass: 1
Flags: W
LayerCount: 2
Fore
SplineSet
400 500 m 1,0,-1
 500 500 l 1,1,-1
 500 -100 l 1,2,-1
 400 -100 l 1,3,-1
 400 100 l 1,4,-1
 300 100 l 1,5,-1
 300 200 l 1,6,-1
 400 200 l 1,7,-1
 400 300 l 1,8,-1
 300 300 l 1,9,-1
 300 400 l 1,10,-1
 400 400 l 1,11,-1
 400 500 l 1,0,-1
0 400 m 1,12,-1
 100 400 l 1,13,-1
 100 100 l 1,14,-1
 0 100 l 1,15,-1
 0 400 l 1,12,-1
100 100 m 1,16,-1
 300 100 l 1,17,-1
 300 0 l 1,18,-1
 100 0 l 1,19,-1
 100 100 l 1,16,-1
100 500 m 1,20,-1
 300 500 l 1,21,-1
 300 400 l 1,22,-1
 100 400 l 1,23,-1
 100 500 l 1,20,-1
EndSplineSet
EndChar

StartChar: r
Encoding: 114 114 109
Width: 600
GlyphClass: 1
Flags: W
LayerCount: 2
Fore
SplineSet
0 100 m 1,0,-1
 100 100 l 1,1,-1
 100 400 l 1,2,-1
 200 400 l 1,3,-1
 200 100 l 1,4,-1
 300 100 l 1,5,-1
 300 0 l 1,6,-1
 0 0 l 1,7,-1
 0 100 l 1,0,-1
0 500 m 1,8,-1
 100 500 l 1,9,-1
 100 400 l 1,10,-1
 0 400 l 1,11,-1
 0 500 l 1,8,-1
200 500 m 1,12,-1
 400 500 l 1,13,-1
 400 400 l 1,14,-1
 200 400 l 1,15,-1
 200 500 l 1,12,-1
400 400 m 1,16,-1
 500 400 l 1,17,-1
 500 300 l 1,18,-1
 400 300 l 1,19,-1
 400 400 l 1,16,-1
EndSplineSet
EndChar

StartChar: s
Encoding: 115 115 110
Width: 600
GlyphClass: 1
Flags: W
LayerCount: 2
Fore
SplineSet
0 100 m 1,0,-1
 400 100 l 1,1,-1
 400 0 l 1,2,-1
 0 0 l 1,3,-1
 0 100 l 1,0,-1
0 400 m 1,4,-1
 100 400 l 1,5,-1
 100 300 l 1,6,-1
 0 300 l 1,7,-1
 0 400 l 1,4,-1
100 300 m 1,8,-1
 400 300 l 1,9,-1
 400 200 l 1,10,-1
 100 200 l 1,11,-1
 100 300 l 1,8,-1
100 500 m 1,12,-1
 500 500 l 1,13,-1
 500 400 l 1,14,-1
 100 400 l 1,15,-1
 100 500 l 1,12,-1
400 200 m 1,16,-1
 500 200 l 1,17,-1
 500 100 l 1,18,-1
 400 100 l 1,19,-1
 400 200 l 1,16,-1
EndSplineSet
EndChar

StartChar: scaron
Encoding: 353 353 111
Width: 600
GlyphClass: 1
Flags: W
LayerCount: 2
Fore
SplineSet
0 100 m 1,0,-1
 400 100 l 1,1,-1
 400 0 l 1,2,-1
 0 0 l 1,3,-1
 0 100 l 1,0,-1
0 400 m 1,4,-1
 100 400 l 1,5,-1
 100 300 l 1,6,-1
 0 300 l 1,7,-1
 0 400 l 1,4,-1
100 300 m 1,8,-1
 400 300 l 1,9,-1
 400 200 l 1,10,-1
 100 200 l 1,11,-1
 100 300 l 1,8,-1
100 500 m 1,12,-1
 200 500 l 1,13,-1
 200 600 l 1,14,-1
 300 600 l 1,15,-1
 300 500 l 1,16,-1
 500 500 l 1,17,-1
 500 400 l 1,18,-1
 100 400 l 1,19,-1
 100 500 l 1,12,-1
100 700 m 1,20,-1
 200 700 l 1,21,-1
 200 600 l 1,22,-1
 100 600 l 1,23,-1
 100 700 l 1,20,-1
300 700 m 1,24,-1
 400 700 l 1,25,-1
 400 600 l 1,26,-1
 300 600 l 1,27,-1
 300 700 l 1,24,-1
400 200 m 1,28,-1
 500 200 l 1,29,-1
 500 100 l 1,30,-1
 400 100 l 1,31,-1
 400 200 l 1,28,-1
EndSplineSet
EndChar

StartChar: germandbls
Encoding: 223 223 112
Width: 600
GlyphClass: 1
Flags: W
LayerCount: 2
Fore
SplineSet
100 400 m 1,0,-1
 200 400 l 1,1,-1
 200 -100 l 1,2,-1
 100 -100 l 1,3,-1
 100 400 l 1,0,-1
200 500 m 1,4,-1
 400 500 l 1,5,-1
 400 400 l 1,6,-1
 200 400 l 1,7,-1
 200 500 l 1,4,-1
300 100 m 1,8,-1
 400 100 l 1,9,-1
 400 0 l 1,10,-1
 300 0 l 1,11,-1
 300 100 l 1,8,-1
300 300 m 1,12,-1
 400 300 l 1,13,-1
 400 200 l 1,14,-1
 300 200 l 1,15,-1
 300 300 l 1,12,-1
400 200 m 1,16,-1
 500 200 l 1,17,-1
 500 100 l 1,18,-1
 400 100 l 1,19,-1
 400 200 l 1,16,-1
400 400 m 1,20,-1
 500 400 l 1,21,-1
 500 300 l 1,22,-1
 400 300 l 1,23,-1
 400 400 l 1,20,-1
EndSplineSet
EndChar

StartChar: t
Encoding: 116 116 113
Width: 600
GlyphClass: 1
Flags: W
LayerCount: 2
Fore
SplineSet
0 500 m 1,0,-1
 100 500 l 1,1,-1
 100 700 l 1,2,-1
 200 700 l 1,3,-1
 200 500 l 1,4,-1
 300 500 l 1,5,-1
 300 400 l 1,6,-1
 200 400 l 1,7,-1
 200 100 l 1,8,-1
 100 100 l 1,9,-1
 100 400 l 1,10,-1
 0 400 l 1,11,-1
 0 500 l 1,0,-1
200 100 m 1,12,-1
 400 100 l 1,13,-1
 400 0 l 1,14,-1
 200 0 l 1,15,-1
 200 100 l 1,12,-1
400 200 m 1,16,-1
 500 200 l 1,17,-1
 500 100 l 1,18,-1
 400 100 l 1,19,-1
 400 200 l 1,16,-1
EndSplineSet
EndChar

StartChar: u
Encoding: 117 117 114
Width: 600
GlyphClass: 1
Flags: W
LayerCount: 2
Fore
SplineSet
500 500 m 1,0,-1
 500 0 l 1,1,-1
 400 0 l 1,2,-1
 400 100 l 1,3,-1
 300 100 l 1,4,-1
 300 200 l 1,5,-1
 400 200 l 1,6,-1
 400 500 l 1,7,-1
 500 500 l 1,0,-1
0 500 m 1,8,-1
 100 500 l 1,9,-1
 100 100 l 1,10,-1
 0 100 l 1,11,-1
 0 500 l 1,8,-1
100 100 m 1,12,-1
 300 100 l 1,13,-1
 300 0 l 1,14,-1
 100 0 l 1,15,-1
 100 100 l 1,12,-1
EndSplineSet
EndChar

StartChar: uacute
Encoding: 250 250 115
Width: 600
GlyphClass: 1
Flags: W
LayerCount: 2
Fore
SplineSet
500 500 m 1,0,-1
 500 0 l 1,1,-1
 400 0 l 1,2,-1
 400 100 l 1,3,-1
 300 100 l 1,4,-1
 300 200 l 1,5,-1
 400 200 l 1,6,-1
 400 500 l 1,7,-1
 500 500 l 1,0,-1
0 500 m 1,8,-1
 100 500 l 1,9,-1
 100 100 l 1,10,-1
 0 100 l 1,11,-1
 0 500 l 1,8,-1
100 100 m 1,12,-1
 300 100 l 1,13,-1
 300 0 l 1,14,-1
 100 0 l 1,15,-1
 100 100 l 1,12,-1
200 600 m 1,16,-1
 300 600 l 1,17,-1
 300 500 l 1,18,-1
 200 500 l 1,19,-1
 200 600 l 1,16,-1
300 700 m 1,20,-1
 400 700 l 1,21,-1
 400 600 l 1,22,-1
 300 600 l 1,23,-1
 300 700 l 1,20,-1
EndSplineSet
EndChar

StartChar: ucircumflex
Encoding: 251 251 116
Width: 600
GlyphClass: 1
Flags: W
LayerCount: 2
Fore
SplineSet
500 500 m 1,0,-1
 500 0 l 1,1,-1
 400 0 l 1,2,-1
 400 100 l 1,3,-1
 300 100 l 1,4,-1
 300 200 l 1,5,-1
 400 200 l 1,6,-1
 400 500 l 1,7,-1
 500 500 l 1,0,-1
0 500 m 1,8,-1
 100 500 l 1,9,-1
 100 100 l 1,10,-1
 0 100 l 1,11,-1
 0 500 l 1,8,-1
100 100 m 1,12,-1
 300 100 l 1,13,-1
 300 0 l 1,14,-1
 100 0 l 1,15,-1
 100 100 l 1,12,-1
100 600 m 1,16,-1
 200 600 l 1,17,-1
 200 500 l 1,18,-1
 100 500 l 1,19,-1
 100 600 l 1,16,-1
200 700 m 1,20,-1
 300 700 l 1,21,-1
 300 600 l 1,22,-1
 200 600 l 1,23,-1
 200 700 l 1,20,-1
300 600 m 1,24,-1
 400 600 l 1,25,-1
 400 500 l 1,26,-1
 300 500 l 1,27,-1
 300 600 l 1,24,-1
EndSplineSet
EndChar

StartChar: udieresis
Encoding: 252 252 117
Width: 600
GlyphClass: 1
Flags: W
LayerCount: 2
Fore
SplineSet
500 500 m 1,0,-1
 500 0 l 1,1,-1
 400 0 l 1,2,-1
 400 100 l 1,3,-1
 300 100 l 1,4,-1
 300 200 l 1,5,-1
 400 200 l 1,6,-1
 400 500 l 1,7,-1
 500 500 l 1,0,-1
0 500 m 1,8,-1
 100 500 l 1,9,-1
 100 100 l 1,10,-1
 0 100 l 1,11,-1
 0 500 l 1,8,-1
100 100 m 1,12,-1
 300 100 l 1,13,-1
 300 0 l 1,14,-1
 100 0 l 1,15,-1
 100 100 l 1,12,-1
100 700 m 1,16,-1
 200 700 l 1,17,-1
 200 600 l 1,18,-1
 100 600 l 1,19,-1
 100 700 l 1,16,-1
300 700 m 1,20,-1
 400 700 l 1,21,-1
 400 600 l 1,22,-1
 300 600 l 1,23,-1
 300 700 l 1,20,-1
EndSplineSet
EndChar

StartChar: ugrave
Encoding: 249 249 118
Width: 600
GlyphClass: 1
Flags: W
LayerCount: 2
Fore
SplineSet
500 500 m 1,0,-1
 500 0 l 1,1,-1
 400 0 l 1,2,-1
 400 100 l 1,3,-1
 300 100 l 1,4,-1
 300 200 l 1,5,-1
 400 200 l 1,6,-1
 400 500 l 1,7,-1
 500 500 l 1,0,-1
0 500 m 1,8,-1
 100 500 l 1,9,-1
 100 100 l 1,10,-1
 0 100 l 1,11,-1
 0 500 l 1,8,-1
100 100 m 1,12,-1
 300 100 l 1,13,-1
 300 0 l 1,14,-1
 100 0 l 1,15,-1
 100 100 l 1,12,-1
100 700 m 1,16,-1
 200 700 l 1,17,-1
 200 600 l 1,18,-1
 100 600 l 1,19,-1
 100 700 l 1,16,-1
200 600 m 1,20,-1
 300 600 l 1,21,-1
 300 500 l 1,22,-1
 200 500 l 1,23,-1
 200 600 l 1,20,-1
EndSplineSet
EndChar

StartChar: v
Encoding: 118 118 119
Width: 600
GlyphClass: 1
Flags: W
LayerCount: 2
Fore
SplineSet
200 100 m 1,0,-1
 300 100 l 1,1,-1
 300 0 l 1,2,-1
 200 0 l 1,3,-1
 200 100 l 1,0,-1
0 500 m 1,4,-1
 100 500 l 1,5,-1
 100 200 l 1,6,-1
 0 200 l 1,7,-1
 0 500 l 1,4,-1
100 200 m 1,8,-1
 200 200 l 1,9,-1
 200 100 l 1,10,-1
 100 100 l 1,11,-1
 100 200 l 1,8,-1
300 200 m 1,12,-1
 400 200 l 1,13,-1
 400 100 l 1,14,-1
 300 100 l 1,15,-1
 300 200 l 1,12,-1
400 500 m 1,16,-1
 500 500 l 1,17,-1
 500 200 l 1,18,-1
 400 200 l 1,19,-1
 400 500 l 1,16,-1
EndSplineSet
EndChar

StartChar: w
Encoding: 119 119 120
Width: 600
GlyphClass: 1
Flags: W
LayerCount: 2
Fore
SplineSet
300 300 m 1,0,-1
 300 100 l 1,1,-1
 200 100 l 1,2,-1
 200 300 l 1,3,-1
 300 300 l 1,0,-1
0 500 m 1,4,-1
 100 500 l 1,5,-1
 100 100 l 1,6,-1
 0 100 l 1,7,-1
 0 500 l 1,4,-1
100 100 m 1,8,-1
 200 100 l 1,9,-1
 200 0 l 1,10,-1
 100 0 l 1,11,-1
 100 100 l 1,8,-1
300 100 m 1,12,-1
 400 100 l 1,13,-1
 400 0 l 1,14,-1
 300 0 l 1,15,-1
 300 100 l 1,12,-1
400 500 m 1,16,-1
 500 500 l 1,17,-1
 500 100 l 1,18,-1
 400 100 l 1,19,-1
 400 500 l 1,16,-1
EndSplineSet
EndChar

StartChar: x
Encoding: 120 120 121
Width: 600
GlyphClass: 1
Flags: W
LayerCount: 2
Fore
SplineSet
0 100 m 1,0,-1
 100 100 l 1,1,-1
 100 0 l 1,2,-1
 0 0 l 1,3,-1
 0 100 l 1,0,-1
0 500 m 1,4,-1
 100 500 l 1,5,-1
 100 400 l 1,6,-1
 0 400 l 1,7,-1
 0 500 l 1,4,-1
100 200 m 1,8,-1
 200 200 l 1,9,-1
 200 100 l 1,10,-1
 100 100 l 1,11,-1
 100 200 l 1,8,-1
100 400 m 1,12,-1
 200 400 l 1,13,-1
 200 300 l 1,14,-1
 100 300 l 1,15,-1
 100 400 l 1,12,-1
200 300 m 1,16,-1
 300 300 l 1,17,-1
 300 200 l 1,18,-1
 200 200 l 1,19,-1
 200 300 l 1,16,-1
300 200 m 1,20,-1
 400 200 l 1,21,-1
 400 100 l 1,22,-1
 300 100 l 1,23,-1
 300 200 l 1,20,-1
300 400 m 1,24,-1
 400 400 l 1,25,-1
 400 300 l 1,26,-1
 300 300 l 1,27,-1
 300 400 l 1,24,-1
400 100 m 1,28,-1
 500 100 l 1,29,-1
 500 0 l 1,30,-1
 400 0 l 1,31,-1
 400 100 l 1,28,-1
400 500 m 1,32,-1
 500 500 l 1,33,-1
 500 400 l 1,34,-1
 400 400 l 1,35,-1
 400 500 l 1,32,-1
EndSplineSet
EndChar

StartChar: y
Encoding: 121 121 122
Width: 600
GlyphClass: 1
Flags: W
LayerCount: 2
Fore
SplineSet
100 0 m 1,0,-1
 400 0 l 1,1,-1
 400 -100 l 1,2,-1
 100 -100 l 1,3,-1
 100 0 l 1,0,-1
0 500 m 1,4,-1
 100 500 l 1,5,-1
 100 200 l 1,6,-1
 0 200 l 1,7,-1
 0 500 l 1,4,-1
100 200 m 1,8,-1
 300 200 l 1,9,-1
 300 100 l 1,10,-1
 100 100 l 1,11,-1
 100 200 l 1,8,-1
300 300 m 1,12,-1
 400 300 l 1,13,-1
 400 500 l 1,14,-1
 500 500 l 1,15,-1
 500 0 l 1,16,-1
 400 0 l 1,17,-1
 400 200 l 1,18,-1
 300 200 l 1,19,-1
 300 300 l 1,12,-1
EndSplineSet
EndChar

StartChar: yacute
Encoding: 253 253 123
Width: 600
GlyphClass: 1
Flags: W
LayerCount: 2
Fore
SplineSet
100 0 m 1,0,-1
 400 0 l 1,1,-1
 400 -100 l 1,2,-1
 100 -100 l 1,3,-1
 100 0 l 1,0,-1
0 500 m 1,4,-1
 100 500 l 1,5,-1
 100 200 l 1,6,-1
 0 200 l 1,7,-1
 0 500 l 1,4,-1
100 200 m 1,8,-1
 300 200 l 1,9,-1
 300 100 l 1,10,-1
 100 100 l 1,11,-1
 100 200 l 1,8,-1
200 600 m 1,12,-1
 300 600 l 1,13,-1
 300 500 l 1,14,-1
 200 500 l 1,15,-1
 200 600 l 1,12,-1
300 300 m 1,16,-1
 400 300 l 1,17,-1
 400 500 l 1,18,-1
 500 500 l 1,19,-1
 500 0 l 1,20,-1
 400 0 l 1,21,-1
 400 200 l 1,22,-1
 300 200 l 1,23,-1
 300 300 l 1,16,-1
300 700 m 1,24,-1
 400 700 l 1,25,-1
 400 600 l 1,26,-1
 300 600 l 1,27,-1
 300 700 l 1,24,-1
EndSplineSet
EndChar

StartChar: ydieresis
Encoding: 255 255 124
Width: 600
GlyphClass: 1
Flags: W
LayerCount: 2
Fore
SplineSet
100 0 m 1,0,-1
 400 0 l 1,1,-1
 400 -100 l 1,2,-1
 100 -100 l 1,3,-1
 100 0 l 1,0,-1
0 500 m 1,4,-1
 100 500 l 1,5,-1
 100 200 l 1,6,-1
 0 200 l 1,7,-1
 0 500 l 1,4,-1
100 200 m 1,8,-1
 300 200 l 1,9,-1
 300 100 l 1,10,-1
 100 100 l 1,11,-1
 100 200 l 1,8,-1
100 700 m 1,12,-1
 200 700 l 1,13,-1
 200 600 l 1,14,-1
 100 600 l 1,15,-1
 100 700 l 1,12,-1
300 300 m 1,16,-1
 400 300 l 1,17,-1
 400 500 l 1,18,-1
 500 500 l 1,19,-1
 500 0 l 1,20,-1
 400 0 l 1,21,-1
 400 200 l 1,22,-1
 300 200 l 1,23,-1
 300 300 l 1,16,-1
300 700 m 1,24,-1
 400 700 l 1,25,-1
 400 600 l 1,26,-1
 300 600 l 1,27,-1
 300 700 l 1,24,-1
EndSplineSet
EndChar

StartChar: z
Encoding: 122 122 125
Width: 600
GlyphClass: 1
Flags: W
LayerCount: 2
Fore
SplineSet
400 300 m 1,0,-1
 300 300 l 1,1,-1
 300 400 l 1,2,-1
 0 400 l 1,3,-1
 0 500 l 1,4,-1
 500 500 l 1,5,-1
 500 400 l 1,6,-1
 400 400 l 1,7,-1
 400 300 l 1,0,-1
0 100 m 1,8,-1
 100 100 l 1,9,-1
 100 200 l 1,10,-1
 200 200 l 1,11,-1
 200 100 l 1,12,-1
 500 100 l 1,13,-1
 500 0 l 1,14,-1
 0 0 l 1,15,-1
 0 100 l 1,8,-1
200 300 m 1,16,-1
 300 300 l 1,17,-1
 300 200 l 1,18,-1
 200 200 l 1,19,-1
 200 300 l 1,16,-1
EndSplineSet
EndChar

StartChar: zcaron
Encoding: 382 382 126
Width: 600
GlyphClass: 1
Flags: W
LayerCount: 2
Fore
SplineSet
0 500 m 1,0,-1
 200 500 l 1,1,-1
 200 600 l 1,2,-1
 300 600 l 1,3,-1
 300 500 l 1,4,-1
 500 500 l 1,5,-1
 500 400 l 1,6,-1
 400 400 l 1,7,-1
 400 300 l 1,8,-1
 300 300 l 1,9,-1
 300 400 l 1,10,-1
 0 400 l 1,11,-1
 0 500 l 1,0,-1
0 100 m 1,12,-1
 100 100 l 1,13,-1
 100 200 l 1,14,-1
 200 200 l 1,15,-1
 200 100 l 1,16,-1
 500 100 l 1,17,-1
 500 0 l 1,18,-1
 0 0 l 1,19,-1
 0 100 l 1,12,-1
100 700 m 1,20,-1
 200 700 l 1,21,-1
 200 600 l 1,22,-1
 100 600 l 1,23,-1
 100 700 l 1,20,-1
200 300 m 1,24,-1
 300 300 l 1,25,-1
 300 200 l 1,26,-1
 200 200 l 1,27,-1
 200 300 l 1,24,-1
300 700 m 1,28,-1
 400 700 l 1,29,-1
 400 600 l 1,30,-1
 300 600 l 1,31,-1
 300 700 l 1,28,-1
EndSplineSet
EndChar

StartChar: fi
Encoding: 64257 64257 127
Width: 600
GlyphClass: 3
Flags: W
LayerCount: 2
Fore
SplineSet
0 400 m 1,0,-1
 100 400 l 1,1,-1
 100 600 l 1,2,-1
 200 600 l 1,3,-1
 200 400 l 1,4,-1
 500 400 l 1,5,-1
 500 0 l 1,6,-1
 400 0 l 1,7,-1
 400 300 l 1,8,-1
 200 300 l 1,9,-1
 200 0 l 1,10,-1
 100 0 l 1,11,-1
 100 300 l 1,12,-1
 0 300 l 1,13,-1
 0 400 l 1,0,-1
200 700 m 1,14,-1
 400 700 l 1,15,-1
 400 600 l 1,16,-1
 200 600 l 1,17,-1
 200 700 l 1,14,-1
400 600 m 1,18,-1
 500 600 l 1,19,-1
 500 500 l 1,20,-1
 400 500 l 1,21,-1
 400 600 l 1,18,-1
EndSplineSet
EndChar

StartChar: fl
Encoding: 64258 64258 128
Width: 500
GlyphClass: 3
Flags: W
LayerCount: 2
Fore
SplineSet
0 400 m 1,0,-1
 100 400 l 1,1,-1
 100 600 l 1,2,-1
 200 600 l 1,3,-1
 200 400 l 1,4,-1
 300 400 l 1,5,-1
 300 300 l 1,6,-1
 200 300 l 1,7,-1
 200 0 l 1,8,-1
 100 0 l 1,9,-1
 100 300 l 1,10,-1
 0 300 l 1,11,-1
 0 400 l 1,0,-1
200 700 m 1,12,-1
 400 700 l 1,13,-1
 400 600 l 1,14,-1
 200 600 l 1,15,-1
 200 700 l 1,12,-1
400 600 m 1,16,-1
 500 600 l 1,17,-1
 500 0 l 1,18,-1
 400 0 l 1,19,-1
 400 600 l 1,16,-1
EndSplineSet
EndChar

StartChar: uni207F
Encoding: 8319 8319 129
Width: 600
GlyphClass: 1
Flags: W
LayerCount: 2
Fore
SplineSet
200 700 m 1,0,-1
 200 600 l 1,1,-1
 300 600 l 1,2,-1
 300 500 l 1,3,-1
 200 500 l 1,4,-1
 200 300 l 1,5,-1
 100 300 l 1,6,-1
 100 700 l 1,7,-1
 200 700 l 1,0,-1
300 700 m 1,8,-1
 400 700 l 1,9,-1
 400 600 l 1,10,-1
 300 600 l 1,11,-1
 300 700 l 1,8,-1
400 600 m 1,12,-1
 500 600 l 1,13,-1
 500 300 l 1,14,-1
 400 300 l 1,15,-1
 400 600 l 1,12,-1
EndSplineSet
EndChar

StartChar: ordfeminine
Encoding: 170 170 130
Width: 600
GlyphClass: 1
Flags: W
LayerCount: 2
Fore
SplineSet
100 600 m 1,0,-1
 100 400 l 1,1,-1
 0 400 l 1,2,-1
 0 600 l 1,3,-1
 100 600 l 1,0,-1
0 200 m 1,4,-1
 500 200 l 1,5,-1
 500 100 l 1,6,-1
 0 100 l 1,7,-1
 0 200 l 1,4,-1
100 400 m 1,8,-1
 300 400 l 1,9,-1
 300 300 l 1,10,-1
 100 300 l 1,11,-1
 100 400 l 1,8,-1
100 700 m 1,12,-1
 400 700 l 1,13,-1
 400 400 l 1,14,-1
 300 400 l 1,15,-1
 300 600 l 1,16,-1
 100 600 l 1,17,-1
 100 700 l 1,12,-1
400 400 m 1,18,-1
 500 400 l 1,19,-1
 500 300 l 1,20,-1
 400 300 l 1,21,-1
 400 400 l 1,18,-1
EndSplineSet
EndChar

StartChar: ordmasculine
Encoding: 186 186 131
Width: 600
GlyphClass: 1
Flags: W
LayerCount: 2
Fore
SplineSet
100 600 m 1,0,-1
 100 400 l 1,1,-1
 0 400 l 1,2,-1
 0 600 l 1,3,-1
 100 600 l 1,0,-1
0 200 m 1,4,-1
 400 200 l 1,5,-1
 400 100 l 1,6,-1
 0 100 l 1,7,-1
 0 200 l 1,4,-1
100 400 m 1,8,-1
 300 400 l 1,9,-1
 300 300 l 1,10,-1
 100 300 l 1,11,-1
 100 400 l 1,8,-1
100 700 m 1,12,-1
 300 700 l 1,13,-1
 300 600 l 1,14,-1
 100 600 l 1,15,-1
 100 700 l 1,12,-1
300 600 m 1,16,-1
 400 600 l 1,17,-1
 400 400 l 1,18,-1
 300 400 l 1,19,-1
 300 600 l 1,16,-1
EndSplineSet
EndChar

StartChar: uni0410
Encoding: 1040 1040 132
Width: 600
GlyphClass: 1
Flags: W
LayerCount: 2
Fore
SplineSet
400 200 m 1,0,-1
 100 200 l 1,1,-1
 100 0 l 1,2,-1
 0 0 l 1,3,-1
 0 500 l 1,4,-1
 100 500 l 1,5,-1
 100 300 l 1,6,-1
 400 300 l 1,7,-1
 400 500 l 1,8,-1
 500 500 l 1,9,-1
 500 0 l 1,10,-1
 400 0 l 1,11,-1
 400 200 l 1,0,-1
100 600 m 1,12,-1
 200 600 l 1,13,-1
 200 500 l 1,14,-1
 100 500 l 1,15,-1
 100 600 l 1,12,-1
200 700 m 1,16,-1
 300 700 l 1,17,-1
 300 600 l 1,18,-1
 200 600 l 1,19,-1
 200 700 l 1,16,-1
300 600 m 1,20,-1
 400 600 l 1,21,-1
 400 500 l 1,22,-1
 300 500 l 1,23,-1
 300 600 l 1,20,-1
EndSplineSet
EndChar

StartChar: uni0411
Encoding: 1041 1041 133
Width: 600
GlyphClass: 1
Flags: W
LayerCount: 2
Fore
SplineSet
100 400 m 1,0,-1
 400 400 l 1,1,-1
 400 300 l 1,2,-1
 100 300 l 1,3,-1
 100 100 l 1,4,-1
 400 100 l 1,5,-1
 400 0 l 1,6,-1
 0 0 l 1,7,-1
 0 700 l 1,8,-1
 300 700 l 1,9,-1
 300 600 l 1,10,-1
 100 600 l 1,11,-1
 100 400 l 1,0,-1
400 300 m 1,12,-1
 500 300 l 1,13,-1
 500 100 l 1,14,-1
 400 100 l 1,15,-1
 400 300 l 1,12,-1
EndSplineSet
EndChar

StartChar: uni0412
Encoding: 1042 1042 134
Width: 600
GlyphClass: 1
Flags: W
LayerCount: 2
Fore
SplineSet
0 700 m 1,0,-1
 400 700 l 1,1,-1
 400 600 l 1,2,-1
 100 600 l 1,3,-1
 100 400 l 1,4,-1
 400 400 l 1,5,-1
 400 300 l 1,6,-1
 100 300 l 1,7,-1
 100 100 l 1,8,-1
 400 100 l 1,9,-1
 400 0 l 1,10,-1
 0 0 l 1,11,-1
 0 700 l 1,0,-1
400 300 m 1,12,-1
 500 300 l 1,13,-1
 500 100 l 1,14,-1
 400 100 l 1,15,-1
 400 300 l 1,12,-1
400 600 m 1,16,-1
 500 600 l 1,17,-1
 500 400 l 1,18,-1
 400 400 l 1,19,-1
 400 600 l 1,16,-1
EndSplineSet
EndChar

StartChar: uni0413
Encoding: 1043 1043 135
Width: 600
GlyphClass: 1
Flags: W
LayerCount: 2
Fore
SplineSet
0 700 m 1,0,-1
 400 700 l 1,1,-1
 400 600 l 1,2,-1
 100 600 l 1,3,-1
 100 0 l 1,4,-1
 0 0 l 1,5,-1
 0 700 l 1,0,-1
EndSplineSet
EndChar

StartChar: uni0414
Encoding: 1044 1044 136
Width: 600
GlyphClass: 1
Flags: W
LayerCount: 2
Fore
SplineSet
0 300 m 1,0,-1
 100 300 l 1,1,-1
 100 200 l 1,2,-1
 400 200 l 1,3,-1
 400 600 l 1,4,-1
 300 600 l 1,5,-1
 300 500 l 1,6,-1
 200 500 l 1,7,-1
 200 700 l 1,8,-1
 500 700 l 1,9,-1
 500 0 l 1,10,-1
 400 0 l 1,11,-1
 400 100 l 1,12,-1
 100 100 l 1,13,-1
 100 0 l 1,14,-1
 0 0 l 1,15,-1
 0 300 l 1,0,-1
100 500 m 1,16,-1
 200 500 l 1,17,-1
 200 300 l 1,18,-1
 100 300 l 1,19,-1
 100 500 l 1,16,-1
EndSplineSet
EndChar

StartChar: uni0415
Encoding: 1045 1045 137
Width: 600
GlyphClass: 1
Flags: W
LayerCount: 2
Fore
SplineSet
0 700 m 1,0,-1
 500 700 l 1,1,-1
 500 600 l 1,2,-1
 100 600 l 1,3,-1
 100 400 l 1,4,-1
 400 400 l 1,5,-1
 400 300 l 1,6,-1
 100 300 l 1,7,-1
 100 100 l 1,8,-1
 500 100 l 1,9,-1
 500 0 l 1,10,-1
 0 0 l 1,11,-1
 0 700 l 1,0,-1
EndSplineSet
EndChar

StartChar: uni0401
Encoding: 1025 1025 138
Width: 600
GlyphClass: 1
Flags: W
LayerCount: 2
Fore
SplineSet
100 300 m 1,0,-1
 400 300 l 1,1,-1
 400 200 l 1,2,-1
 100 200 l 1,3,-1
 100 100 l 1,4,-1
 500 100 l 1,5,-1
 500 0 l 1,6,-1
 0 0 l 1,7,-1
 0 500 l 1,8,-1
 500 500 l 1,9,-1
 500 400 l 1,10,-1
 100 400 l 1,11,-1
 100 300 l 1,0,-1
100 700 m 1,12,-1
 200 700 l 1,13,-1
 200 600 l 1,14,-1
 100 600 l 1,15,-1
 100 700 l 1,12,-1
300 700 m 1,16,-1
 400 700 l 1,17,-1
 400 600 l 1,18,-1
 300 600 l 1,19,-1
 300 700 l 1,16,-1
EndSplineSet
EndChar

StartChar: uni0416
Encoding: 1046 1046 139
Width: 600
GlyphClass: 1
Flags: W
LayerCount: 2
Fore
SplineSet
300 700 m 1,0,-1
 300 400 l 1,1,-1
 400 400 l 1,2,-1
 400 300 l 1,3,-1
 300 300 l 1,4,-1
 300 0 l 1,5,-1
 200 0 l 1,6,-1
 200 300 l 1,7,-1
 100 300 l 1,8,-1
 100 400 l 1,9,-1
 200 400 l 1,10,-1
 200 700 l 1,11,-1
 300 700 l 1,0,-1
0 300 m 1,12,-1
 100 300 l 1,13,-1
 100 0 l 1,14,-1
 0 0 l 1,15,-1
 0 300 l 1,12,-1
0 700 m 1,16,-1
 100 700 l 1,17,-1
 100 400 l 1,18,-1
 0 400 l 1,19,-1
 0 700 l 1,16,-1
400 300 m 1,20,-1
 500 300 l 1,21,-1
 500 0 l 1,22,-1
 400 0 l 1,23,-1
 400 300 l 1,20,-1
400 700 m 1,24,-1
 500 700 l 1,25,-1
 500 400 l 1,26,-1
 400 400 l 1,27,-1
 400 700 l 1,24,-1
EndSplineSet
EndChar

StartChar: uni0417
Encoding: 1047 1047 140
Width: 600
GlyphClass: 1
Flags: W
LayerCount: 2
Fore
SplineSet
100 500 m 1,0,-1
 0 500 l 1,1,-1
 0 700 l 1,2,-1
 400 700 l 1,3,-1
 400 600 l 1,4,-1
 100 600 l 1,5,-1
 100 500 l 1,0,-1
0 200 m 1,6,-1
 100 200 l 1,7,-1
 100 100 l 1,8,-1
 0 100 l 1,9,-1
 0 200 l 1,6,-1
100 100 m 1,10,-1
 400 100 l 1,11,-1
 400 0 l 1,12,-1
 100 0 l 1,13,-1
 100 100 l 1,10,-1
200 400 m 1,14,-1
 400 400 l 1,15,-1
 400 300 l 1,16,-1
 200 300 l 1,17,-1
 200 400 l 1,14,-1
400 300 m 1,18,-1
 500 300 l 1,19,-1
 500 100 l 1,20,-1
 400 100 l 1,21,-1
 400 300 l 1,18,-1
400 600 m 1,22,-1
 500 600 l 1,23,-1
 500 400 l 1,24,-1
 400 400 l 1,25,-1
 400 600 l 1,22,-1
EndSplineSet
EndChar

StartChar: uni0418
Encoding: 1048 1048 141
Width: 600
GlyphClass: 1
Flags: W
LayerCount: 2
Fore
SplineSet
0 700 m 1,0,-1
 100 700 l 1,1,-1
 100 300 l 1,2,-1
 200 300 l 1,3,-1
 200 100 l 1,4,-1
 100 100 l 1,5,-1
 100 0 l 1,6,-1
 0 0 l 1,7,-1
 0 700 l 1,0,-1
200 400 m 1,8,-1
 300 400 l 1,9,-1
 300 300 l 1,10,-1
 200 300 l 1,11,-1
 200 400 l 1,8,-1
300 600 m 1,12,-1
 400 600 l 1,13,-1
 400 700 l 1,14,-1
 500 700 l 1,15,-1
 500 0 l 1,16,-1
 400 0 l 1,17,-1
 400 400 l 1,18,-1
 300 400 l 1,19,-1
 300 600 l 1,12,-1
EndSplineSet
EndChar

StartChar: uni0419
Encoding: 1049 1049 142
Width: 600
GlyphClass: 1
Flags: W
LayerCount: 2
Fore
SplineSet
100 500 m 1,0,-1
 100 200 l 1,1,-1
 200 200 l 1,2,-1
 200 100 l 1,3,-1
 100 100 l 1,4,-1
 100 0 l 1,5,-1
 0 0 l 1,6,-1
 0 500 l 1,7,-1
 100 500 l 1,0,-1
100 700 m 1,8,-1
 200 700 l 1,9,-1
 200 600 l 1,10,-1
 100 600 l 1,11,-1
 100 700 l 1,8,-1
200 300 m 1,12,-1
 300 300 l 1,13,-1
 300 200 l 1,14,-1
 200 200 l 1,15,-1
 200 300 l 1,12,-1
200 600 m 1,16,-1
 300 600 l 1,17,-1
 300 500 l 1,18,-1
 200 500 l 1,19,-1
 200 600 l 1,16,-1
300 400 m 1,20,-1
 400 400 l 1,21,-1
 400 500 l 1,22,-1
 500 500 l 1,23,-1
 500 0 l 1,24,-1
 400 0 l 1,25,-1
 400 300 l 1,26,-1
 300 300 l 1,27,-1
 300 400 l 1,20,-1
300 700 m 1,28,-1
 400 700 l 1,29,-1
 400 600 l 1,30,-1
 300 600 l 1,31,-1
 300 700 l 1,28,-1
EndSplineSet
EndChar

StartChar: uni041A
Encoding: 1050 1050 143
Width: 600
GlyphClass: 1
Flags: W
LayerCount: 2
Fore
SplineSet
100 700 m 1,0,-1
 100 400 l 1,1,-1
 200 400 l 1,2,-1
 200 300 l 1,3,-1
 100 300 l 1,4,-1
 100 0 l 1,5,-1
 0 0 l 1,6,-1
 0 700 l 1,7,-1
 100 700 l 1,0,-1
200 300 m 1,8,-1
 300 300 l 1,9,-1
 300 200 l 1,10,-1
 200 200 l 1,11,-1
 200 300 l 1,8,-1
200 500 m 1,12,-1
 300 500 l 1,13,-1
 300 400 l 1,14,-1
 200 400 l 1,15,-1
 200 500 l 1,12,-1
300 200 m 1,16,-1
 400 200 l 1,17,-1
 400 100 l 1,18,-1
 300 100 l 1,19,-1
 300 200 l 1,16,-1
300 600 m 1,20,-1
 400 600 l 1,21,-1
 400 500 l 1,22,-1
 300 500 l 1,23,-1
 300 600 l 1,20,-1
400 100 m 1,24,-1
 500 100 l 1,25,-1
 500 0 l 1,26,-1
 400 0 l 1,27,-1
 400 100 l 1,24,-1
400 700 m 1,28,-1
 500 700 l 1,29,-1
 500 600 l 1,30,-1
 400 600 l 1,31,-1
 400 700 l 1,28,-1
EndSplineSet
EndChar

StartChar: uni041B
Encoding: 1051 1051 144
Width: 600
GlyphClass: 1
Flags: W
LayerCount: 2
Fore
SplineSet
400 600 m 1,0,-1
 200 600 l 1,1,-1
 200 100 l 1,2,-1
 100 100 l 1,3,-1
 100 700 l 1,4,-1
 500 700 l 1,5,-1
 500 0 l 1,6,-1
 400 0 l 1,7,-1
 400 600 l 1,0,-1
0 100 m 1,8,-1
 100 100 l 1,9,-1
 100 0 l 1,10,-1
 0 0 l 1,11,-1
 0 100 l 1,8,-1
EndSplineSet
EndChar

StartChar: uni041C
Encoding: 1052 1052 145
Width: 600
GlyphClass: 1
Flags: W
LayerCount: 2
Fore
SplineSet
0 700 m 1,0,-1
 100 700 l 1,1,-1
 100 600 l 1,2,-1
 200 600 l 1,3,-1
 200 500 l 1,4,-1
 100 500 l 1,5,-1
 100 0 l 1,6,-1
 0 0 l 1,7,-1
 0 700 l 1,0,-1
200 500 m 1,8,-1
 300 500 l 1,9,-1
 300 300 l 1,10,-1
 200 300 l 1,11,-1
 200 500 l 1,8,-1
300 600 m 1,12,-1
 400 600 l 1,13,-1
 400 700 l 1,14,-1
 500 700 l 1,15,-1
 500 0 l 1,16,-1
 400 0 l 1,17,-1
 400 500 l 1,18,-1
 300 500 l 1,19,-1
 300 600 l 1,12,-1
EndSplineSet
EndChar

StartChar: uni041D
Encoding: 1053 1053 146
Width: 600
GlyphClass: 1
Flags: W
LayerCount: 2
Fore
SplineSet
0 700 m 1,0,-1
 100 700 l 1,1,-1
 100 400 l 1,2,-1
 400 400 l 1,3,-1
 400 700 l 1,4,-1
 500 700 l 1,5,-1
 500 0 l 1,6,-1
 400 0 l 1,7,-1
 400 300 l 1,8,-1
 100 300 l 1,9,-1
 100 0 l 1,10,-1
 0 0 l 1,11,-1
 0 700 l 1,0,-1
EndSplineSet
EndChar

StartChar: uni041E
Encoding: 1054 1054 147
Width: 600
GlyphClass: 1
Flags: W
LayerCount: 2
Fore
SplineSet
100 100 m 1,0,-1
 0 100 l 1,1,-1
 0 600 l 1,2,-1
 100 600 l 1,3,-1
 100 100 l 1,0,-1
100 100 m 1,4,-1
 400 100 l 1,5,-1
 400 0 l 1,6,-1
 100 0 l 1,7,-1
 100 100 l 1,4,-1
100 700 m 1,8,-1
 400 700 l 1,9,-1
 400 600 l 1,10,-1
 100 600 l 1,11,-1
 100 700 l 1,8,-1
400 600 m 1,12,-1
 500 600 l 1,13,-1
 500 100 l 1,14,-1
 400 100 l 1,15,-1
 400 600 l 1,12,-1
EndSplineSet
EndChar

StartChar: uni041F
Encoding: 1055 1055 148
Width: 600
GlyphClass: 1
Flags: W
LayerCount: 2
Fore
SplineSet
0 700 m 1,0,-1
 500 700 l 1,1,-1
 500 0 l 1,2,-1
 400 0 l 1,3,-1
 400 600 l 1,4,-1
 100 600 l 1,5,-1
 100 0 l 1,6,-1
 0 0 l 1,7,-1
 0 700 l 1,0,-1
EndSplineSet
EndChar

StartChar: uni0420
Encoding: 1056 1056 149
Width: 600
GlyphClass: 1
Flags: W
LayerCount: 2
Fore
SplineSet
0 700 m 1,0,-1
 400 700 l 1,1,-1
 400 600 l 1,2,-1
 100 600 l 1,3,-1
 100 400 l 1,4,-1
 400 400 l 1,5,-1
 400 300 l 1,6,-1
 100 300 l 1,7,-1
 100 0 l 1,8,-1
 0 0 l 1,9,-1
 0 700 l 1,0,-1
400 600 m 1,10,-1
 500 600 l 1,11,-1
 500 400 l 1,12,-1
 400 400 l 1,13,-1
 400 600 l 1,10,-1
EndSplineSet
EndChar

StartChar: uni0421
Encoding: 1057 1057 150
Width: 600
GlyphClass: 1
Flags: W
LayerCount: 2
Fore
SplineSet
400 0 m 1,0,-1
 100 0 l 1,1,-1
 100 100 l 1,2,-1
 400 100 l 1,3,-1
 400 0 l 1,0,-1
0 600 m 1,4,-1
 100 600 l 1,5,-1
 100 100 l 1,6,-1
 0 100 l 1,7,-1
 0 600 l 1,4,-1
100 700 m 1,8,-1
 400 700 l 1,9,-1
 400 600 l 1,10,-1
 100 600 l 1,11,-1
 100 700 l 1,8,-1
400 200 m 1,12,-1
 500 200 l 1,13,-1
 500 100 l 1,14,-1
 400 100 l 1,15,-1
 400 200 l 1,12,-1
400 600 m 1,16,-1
 500 600 l 1,17,-1
 500 500 l 1,18,-1
 400 500 l 1,19,-1
 400 600 l 1,16,-1
EndSplineSet
EndChar

StartChar: uni0422
Encoding: 1058 1058 151
Width: 600
GlyphClass: 1
Flags: W
LayerCount: 2
Fore
SplineSet
0 700 m 1,0,-1
 500 700 l 1,1,-1
 500 600 l 1,2,-1
 300 600 l 1,3,-1
 300 0 l 1,4,-1
 200 0 l 1,5,-1
 200 600 l 1,6,-1
 0 600 l 1,7,-1
 0 700 l 1,0,-1
EndSplineSet
EndChar

StartChar: uni0423
Encoding: 1059 1059 152
Width: 600
GlyphClass: 1
Flags: W
LayerCount: 2
Fore
SplineSet
100 100 m 1,0,-1
 400 100 l 1,1,-1
 400 0 l 1,2,-1
 100 0 l 1,3,-1
 100 100 l 1,0,-1
0 200 m 1,4,-1
 100 200 l 1,5,-1
 100 100 l 1,6,-1
 0 100 l 1,7,-1
 0 200 l 1,4,-1
0 700 m 1,8,-1
 100 700 l 1,9,-1
 100 400 l 1,10,-1
 0 400 l 1,11,-1
 0 700 l 1,8,-1
100 400 m 1,12,-1
 400 400 l 1,13,-1
 400 700 l 1,14,-1
 500 700 l 1,15,-1
 500 100 l 1,16,-1
 400 100 l 1,17,-1
 400 300 l 1,18,-1
 100 300 l 1,19,-1
 100 400 l 1,12,-1
EndSplineSet
EndChar

StartChar: uni0424
Encoding: 1060 1060 153
Width: 600
GlyphClass: 1
Flags: W
LayerCount: 2
Fore
SplineSet
100 500 m 1,0,-1
 100 200 l 1,1,-1
 0 200 l 1,2,-1
 0 500 l 1,3,-1
 100 500 l 1,0,-1
100 200 m 1,4,-1
 200 200 l 1,5,-1
 200 500 l 1,6,-1
 100 500 l 1,7,-1
 100 600 l 1,8,-1
 200 600 l 1,9,-1
 200 700 l 1,10,-1
 300 700 l 1,11,-1
 300 600 l 1,12,-1
 400 600 l 1,13,-1
 400 500 l 1,14,-1
 300 500 l 1,15,-1
 300 200 l 1,16,-1
 400 200 l 1,17,-1
 400 100 l 1,18,-1
 300 100 l 1,19,-1
 300 0 l 1,20,-1
 200 0 l 1,21,-1
 200 100 l 1,22,-1
 100 100 l 1,23,-1
 100 200 l 1,4,-1
400 500 m 1,24,-1
 500 500 l 1,25,-1
 500 200 l 1,26,-1
 400 200 l 1,27,-1
 400 500 l 1,24,-1
EndSplineSet
EndChar

StartChar: uni0425
Encoding: 1061 1061 154
Width: 600
GlyphClass: 1
Flags: W
LayerCount: 2
Fore
SplineSet
0 200 m 1,0,-1
 100 200 l 1,1,-1
 100 0 l 1,2,-1
 0 0 l 1,3,-1
 0 200 l 1,0,-1
0 700 m 1,4,-1
 100 700 l 1,5,-1
 100 500 l 1,6,-1
 0 500 l 1,7,-1
 0 700 l 1,4,-1
100 300 m 1,8,-1
 200 300 l 1,9,-1
 200 200 l 1,10,-1
 100 200 l 1,11,-1
 100 300 l 1,8,-1
100 500 m 1,12,-1
 200 500 l 1,13,-1
 200 400 l 1,14,-1
 100 400 l 1,15,-1
 100 500 l 1,12,-1
200 400 m 1,16,-1
 300 400 l 1,17,-1
 300 300 l 1,18,-1
 200 300 l 1,19,-1
 200 400 l 1,16,-1
300 300 m 1,20,-1
 400 300 l 1,21,-1
 400 200 l 1,22,-1
 300 200 l 1,23,-1
 300 300 l 1,20,-1
300 500 m 1,24,-1
 400 500 l 1,25,-1
 400 400 l 1,26,-1
 300 400 l 1,27,-1
 300 500 l 1,24,-1
400 200 m 1,28,-1
 500 200 l 1,29,-1
 500 0 l 1,30,-1
 400 0 l 1,31,-1
 400 200 l 1,28,-1
400 700 m 1,32,-1
 500 700 l 1,33,-1
 500 500 l 1,34,-1
 400 500 l 1,35,-1
 400 700 l 1,32,-1
EndSplineSet
EndChar

StartChar: uni0427
Encoding: 1063 1063 155
Width: 600
GlyphClass: 1
Flags: W
LayerCount: 2
Fore
SplineSet
100 700 m 1,0,-1
 100 400 l 1,1,-1
 0 400 l 1,2,-1
 0 700 l 1,3,-1
 100 700 l 1,0,-1
100 400 m 1,4,-1
 400 400 l 1,5,-1
 400 700 l 1,6,-1
 500 700 l 1,7,-1
 500 0 l 1,8,-1
 400 0 l 1,9,-1
 400 300 l 1,10,-1
 100 300 l 1,11,-1
 100 400 l 1,4,-1
EndSplineSet
EndChar

StartChar: uni0426
Encoding: 1062 1062 156
Width: 600
GlyphClass: 1
Flags: W
LayerCount: 2
Fore
SplineSet
0 700 m 1,0,-1
 100 700 l 1,1,-1
 100 100 l 1,2,-1
 300 100 l 1,3,-1
 300 700 l 1,4,-1
 400 700 l 1,5,-1
 400 100 l 1,6,-1
 500 100 l 1,7,-1
 500 -100 l 1,8,-1
 400 -100 l 1,9,-1
 400 0 l 1,10,-1
 0 0 l 1,11,-1
 0 700 l 1,0,-1
EndSplineSet
EndChar

StartChar: uni0428
Encoding: 1064 1064 157
Width: 600
GlyphClass: 1
Flags: W
LayerCount: 2
Fore
SplineSet
100 700 m 1,0,-1
 100 100 l 1,1,-1
 200 100 l 1,2,-1
 200 600 l 1,3,-1
 300 600 l 1,4,-1
 300 100 l 1,5,-1
 400 100 l 1,6,-1
 400 700 l 1,7,-1
 500 700 l 1,8,-1
 500 0 l 1,9,-1
 0 0 l 1,10,-1
 0 700 l 1,11,-1
 100 700 l 1,0,-1
EndSplineSet
EndChar

StartChar: uni0429
Encoding: 1065 1065 158
Width: 600
GlyphClass: 1
Flags: W
LayerCount: 2
Fore
SplineSet
100 700 m 1,0,-1
 100 100 l 1,1,-1
 200 100 l 1,2,-1
 200 600 l 1,3,-1
 300 600 l 1,4,-1
 300 100 l 1,5,-1
 400 100 l 1,6,-1
 400 700 l 1,7,-1
 500 700 l 1,8,-1
 500 100 l 1,9,-1
 600 100 l 1,10,-1
 600 -100 l 1,11,-1
 500 -100 l 1,12,-1
 500 0 l 1,13,-1
 0 0 l 1,14,-1
 0 700 l 1,15,-1
 100 700 l 1,0,-1
EndSplineSet
EndChar

StartChar: uni042C
Encoding: 1068 1068 159
Width: 600
GlyphClass: 1
Flags: W
LayerCount: 2
Fore
SplineSet
0 700 m 1,0,-1
 100 700 l 1,1,-1
 100 400 l 1,2,-1
 400 400 l 1,3,-1
 400 300 l 1,4,-1
 100 300 l 1,5,-1
 100 100 l 1,6,-1
 400 100 l 1,7,-1
 400 0 l 1,8,-1
 0 0 l 1,9,-1
 0 700 l 1,0,-1
400 300 m 1,10,-1
 500 300 l 1,11,-1
 500 100 l 1,12,-1
 400 100 l 1,13,-1
 400 300 l 1,10,-1
EndSplineSet
EndChar

StartChar: uni042B
Encoding: 1067 1067 160
Width: 600
GlyphClass: 1
Flags: W
LayerCount: 2
Fore
SplineSet
100 700 m 1,0,-1
 100 400 l 1,1,-1
 200 400 l 1,2,-1
 200 300 l 1,3,-1
 100 300 l 1,4,-1
 100 100 l 1,5,-1
 200 100 l 1,6,-1
 200 0 l 1,7,-1
 0 0 l 1,8,-1
 0 700 l 1,9,-1
 100 700 l 1,0,-1
200 300 m 1,10,-1
 300 300 l 1,11,-1
 300 100 l 1,12,-1
 200 100 l 1,13,-1
 200 300 l 1,10,-1
400 700 m 1,14,-1
 500 700 l 1,15,-1
 500 0 l 1,16,-1
 400 0 l 1,17,-1
 400 700 l 1,14,-1
EndSplineSet
EndChar

StartChar: uni042A
Encoding: 1066 1066 161
Width: 600
GlyphClass: 1
Flags: W
LayerCount: 2
Fore
SplineSet
0 700 m 1,0,-1
 200 700 l 1,1,-1
 200 400 l 1,2,-1
 400 400 l 1,3,-1
 400 300 l 1,4,-1
 200 300 l 1,5,-1
 200 100 l 1,6,-1
 400 100 l 1,7,-1
 400 0 l 1,8,-1
 100 0 l 1,9,-1
 100 600 l 1,10,-1
 0 600 l 1,11,-1
 0 700 l 1,0,-1
400 300 m 1,12,-1
 500 300 l 1,13,-1
 500 100 l 1,14,-1
 400 100 l 1,15,-1
 400 300 l 1,12,-1
EndSplineSet
EndChar

StartChar: uni042D
Encoding: 1069 1069 162
Width: 600
GlyphClass: 1
Flags: W
LayerCount: 2
Fore
SplineSet
0 600 m 1,0,-1
 100 600 l 1,1,-1
 100 500 l 1,2,-1
 0 500 l 1,3,-1
 0 600 l 1,0,-1
0 200 m 1,4,-1
 100 200 l 1,5,-1
 100 100 l 1,6,-1
 0 100 l 1,7,-1
 0 200 l 1,4,-1
100 100 m 1,8,-1
 400 100 l 1,9,-1
 400 0 l 1,10,-1
 100 0 l 1,11,-1
 100 100 l 1,8,-1
100 700 m 1,12,-1
 400 700 l 1,13,-1
 400 600 l 1,14,-1
 100 600 l 1,15,-1
 100 700 l 1,12,-1
200 400 m 1,16,-1
 400 400 l 1,17,-1
 400 600 l 1,18,-1
 500 600 l 1,19,-1
 500 100 l 1,20,-1
 400 100 l 1,21,-1
 400 300 l 1,22,-1
 200 300 l 1,23,-1
 200 400 l 1,16,-1
EndSplineSet
EndChar

StartChar: uni042E
Encoding: 1070 1070 163
Width: 600
GlyphClass: 1
Flags: W
LayerCount: 2
Fore
SplineSet
100 700 m 1,0,-1
 100 400 l 1,1,-1
 200 400 l 1,2,-1
 200 600 l 1,3,-1
 300 600 l 1,4,-1
 300 100 l 1,5,-1
 200 100 l 1,6,-1
 200 300 l 1,7,-1
 100 300 l 1,8,-1
 100 0 l 1,9,-1
 0 0 l 1,10,-1
 0 700 l 1,11,-1
 100 700 l 1,0,-1
300 100 m 1,12,-1
 400 100 l 1,13,-1
 400 0 l 1,14,-1
 300 0 l 1,15,-1
 300 100 l 1,12,-1
300 700 m 1,16,-1
 400 700 l 1,17,-1
 400 600 l 1,18,-1
 300 600 l 1,19,-1
 300 700 l 1,16,-1
400 600 m 1,20,-1
 500 600 l 1,21,-1
 500 100 l 1,22,-1
 400 100 l 1,23,-1
 400 600 l 1,20,-1
EndSplineSet
EndChar

StartChar: uni042F
Encoding: 1071 1071 164
Width: 600
GlyphClass: 1
Flags: W
LayerCount: 2
Fore
SplineSet
400 300 m 1,0,-1
 200 300 l 1,1,-1
 200 200 l 1,2,-1
 100 200 l 1,3,-1
 100 400 l 1,4,-1
 400 400 l 1,5,-1
 400 600 l 1,6,-1
 100 600 l 1,7,-1
 100 700 l 1,8,-1
 500 700 l 1,9,-1
 500 0 l 1,10,-1
 400 0 l 1,11,-1
 400 300 l 1,0,-1
0 200 m 1,12,-1
 100 200 l 1,13,-1
 100 0 l 1,14,-1
 0 0 l 1,15,-1
 0 200 l 1,12,-1
0 600 m 1,16,-1
 100 600 l 1,17,-1
 100 400 l 1,18,-1
 0 400 l 1,19,-1
 0 600 l 1,16,-1
EndSplineSet
EndChar

StartChar: uni0430
Encoding: 1072 1072 165
Width: 600
GlyphClass: 1
Flags: W
LayerCount: 2
Fore
SplineSet
100 500 m 1,0,-1
 400 500 l 1,1,-1
 400 400 l 1,2,-1
 100 400 l 1,3,-1
 100 500 l 1,0,-1
0 200 m 1,4,-1
 100 200 l 1,5,-1
 100 100 l 1,6,-1
 0 100 l 1,7,-1
 0 200 l 1,4,-1
100 100 m 1,8,-1
 400 100 l 1,9,-1
 400 200 l 1,10,-1
 100 200 l 1,11,-1
 100 300 l 1,12,-1
 400 300 l 1,13,-1
 400 400 l 1,14,-1
 500 400 l 1,15,-1
 500 0 l 1,16,-1
 100 0 l 1,17,-1
 100 100 l 1,8,-1
EndSplineSet
EndChar

StartChar: uni0431
Encoding: 1073 1073 166
Width: 600
GlyphClass: 1
Flags: W
LayerCount: 2
Fore
SplineSet
100 500 m 1,0,-1
 100 300 l 1,1,-1
 200 300 l 1,2,-1
 200 200 l 1,3,-1
 100 200 l 1,4,-1
 100 100 l 1,5,-1
 400 100 l 1,6,-1
 400 0 l 1,7,-1
 0 0 l 1,8,-1
 0 500 l 1,9,-1
 100 500 l 1,0,-1
100 600 m 1,10,-1
 400 600 l 1,11,-1
 400 500 l 1,12,-1
 100 500 l 1,13,-1
 100 600 l 1,10,-1
200 400 m 1,14,-1
 400 400 l 1,15,-1
 400 300 l 1,16,-1
 200 300 l 1,17,-1
 200 400 l 1,14,-1
400 300 m 1,18,-1
 500 300 l 1,19,-1
 500 100 l 1,20,-1
 400 100 l 1,21,-1
 400 300 l 1,18,-1
400 700 m 1,22,-1
 500 700 l 1,23,-1
 500 600 l 1,24,-1
 400 600 l 1,25,-1
 400 700 l 1,22,-1
EndSplineSet
EndChar

StartChar: uni0432
Encoding: 1074 1074 167
Width: 600
GlyphClass: 1
Flags: W
LayerCount: 2
Fore
SplineSet
0 100 m 1,0,-1
 100 100 l 1,1,-1
 100 400 l 1,2,-1
 0 400 l 1,3,-1
 0 500 l 1,4,-1
 400 500 l 1,5,-1
 400 400 l 1,6,-1
 200 400 l 1,7,-1
 200 300 l 1,8,-1
 400 300 l 1,9,-1
 400 200 l 1,10,-1
 200 200 l 1,11,-1
 200 100 l 1,12,-1
 400 100 l 1,13,-1
 400 0 l 1,14,-1
 0 0 l 1,15,-1
 0 100 l 1,0,-1
400 200 m 1,16,-1
 500 200 l 1,17,-1
 500 100 l 1,18,-1
 400 100 l 1,19,-1
 400 200 l 1,16,-1
400 400 m 1,20,-1
 500 400 l 1,21,-1
 500 300 l 1,22,-1
 400 300 l 1,23,-1
 400 400 l 1,20,-1
EndSplineSet
EndChar

StartChar: uni0433
Encoding: 1075 1075 168
Width: 600
GlyphClass: 1
Flags: W
LayerCount: 2
Fore
SplineSet
0 400 m 1,0,-1
 0 500 l 1,1,-1
 500 500 l 1,2,-1
 500 300 l 1,3,-1
 400 300 l 1,4,-1
 400 400 l 1,5,-1
 200 400 l 1,6,-1
 200 100 l 1,7,-1
 300 100 l 1,8,-1
 300 0 l 1,9,-1
 0 0 l 1,10,-1
 0 100 l 1,11,-1
 100 100 l 1,12,-1
 100 400 l 1,13,-1
 0 400 l 1,0,-1
EndSplineSet
EndChar

StartChar: uni0434
Encoding: 1076 1076 169
Width: 600
GlyphClass: 1
Flags: W
LayerCount: 2
Fore
SplineSet
0 200 m 1,0,-1
 100 200 l 1,1,-1
 100 400 l 1,2,-1
 200 400 l 1,3,-1
 200 200 l 1,4,-1
 400 200 l 1,5,-1
 400 400 l 1,6,-1
 200 400 l 1,7,-1
 200 500 l 1,8,-1
 500 500 l 1,9,-1
 500 0 l 1,10,-1
 400 0 l 1,11,-1
 400 100 l 1,12,-1
 100 100 l 1,13,-1
 100 0 l 1,14,-1
 0 0 l 1,15,-1
 0 200 l 1,0,-1
EndSplineSet
EndChar

StartChar: uni0435
Encoding: 1077 1077 170
Width: 600
GlyphClass: 1
Flags: W
LayerCount: 2
Fore
SplineSet
100 400 m 1,0,-1
 100 300 l 1,1,-1
 400 300 l 1,2,-1
 400 400 l 1,3,-1
 500 400 l 1,4,-1
 500 200 l 1,5,-1
 100 200 l 1,6,-1
 100 100 l 1,7,-1
 0 100 l 1,8,-1
 0 400 l 1,9,-1
 100 400 l 1,0,-1
100 100 m 1,10,-1
 400 100 l 1,11,-1
 400 0 l 1,12,-1
 100 0 l 1,13,-1
 100 100 l 1,10,-1
100 500 m 1,14,-1
 400 500 l 1,15,-1
 400 400 l 1,16,-1
 100 400 l 1,17,-1
 100 500 l 1,14,-1
EndSplineSet
EndChar

StartChar: uni0451
Encoding: 1105 1105 171
Width: 600
GlyphClass: 1
Flags: W
LayerCount: 2
Fore
SplineSet
100 300 m 1,0,-1
 400 300 l 1,1,-1
 400 400 l 1,2,-1
 500 400 l 1,3,-1
 500 200 l 1,4,-1
 100 200 l 1,5,-1
 100 100 l 1,6,-1
 0 100 l 1,7,-1
 0 400 l 1,8,-1
 100 400 l 1,9,-1
 100 300 l 1,0,-1
100 100 m 1,10,-1
 400 100 l 1,11,-1
 400 0 l 1,12,-1
 100 0 l 1,13,-1
 100 100 l 1,10,-1
100 500 m 1,14,-1
 400 500 l 1,15,-1
 400 400 l 1,16,-1
 100 400 l 1,17,-1
 100 500 l 1,14,-1
100 700 m 1,18,-1
 200 700 l 1,19,-1
 200 600 l 1,20,-1
 100 600 l 1,21,-1
 100 700 l 1,18,-1
300 700 m 1,22,-1
 400 700 l 1,23,-1
 400 600 l 1,24,-1
 300 600 l 1,25,-1
 300 700 l 1,22,-1
EndSplineSet
EndChar

StartChar: uni0436
Encoding: 1078 1078 172
Width: 600
GlyphClass: 1
Flags: W
LayerCount: 2
Fore
SplineSet
300 500 m 1,0,-1
 300 300 l 1,1,-1
 400 300 l 1,2,-1
 400 200 l 1,3,-1
 300 200 l 1,4,-1
 300 0 l 1,5,-1
 200 0 l 1,6,-1
 200 200 l 1,7,-1
 100 200 l 1,8,-1
 100 300 l 1,9,-1
 200 300 l 1,10,-1
 200 500 l 1,11,-1
 300 500 l 1,0,-1
0 200 m 1,12,-1
 100 200 l 1,13,-1
 100 0 l 1,14,-1
 0 0 l 1,15,-1
 0 200 l 1,12,-1
0 500 m 1,16,-1
 100 500 l 1,17,-1
 100 300 l 1,18,-1
 0 300 l 1,19,-1
 0 500 l 1,16,-1
400 200 m 1,20,-1
 500 200 l 1,21,-1
 500 0 l 1,22,-1
 400 0 l 1,23,-1
 400 200 l 1,20,-1
400 500 m 1,24,-1
 500 500 l 1,25,-1
 500 300 l 1,26,-1
 400 300 l 1,27,-1
 400 500 l 1,24,-1
EndSplineSet
EndChar

StartChar: uni0437
Encoding: 1079 1079 173
Width: 600
GlyphClass: 1
Flags: W
LayerCount: 2
Fore
SplineSet
0 500 m 1,0,-1
 400 500 l 1,1,-1
 400 400 l 1,2,-1
 100 400 l 1,3,-1
 100 300 l 1,4,-1
 0 300 l 1,5,-1
 0 500 l 1,0,-1
0 200 m 1,6,-1
 100 200 l 1,7,-1
 100 100 l 1,8,-1
 0 100 l 1,9,-1
 0 200 l 1,6,-1
100 100 m 1,10,-1
 400 100 l 1,11,-1
 400 0 l 1,12,-1
 100 0 l 1,13,-1
 100 100 l 1,10,-1
200 300 m 1,14,-1
 400 300 l 1,15,-1
 400 200 l 1,16,-1
 200 200 l 1,17,-1
 200 300 l 1,14,-1
400 200 m 1,18,-1
 500 200 l 1,19,-1
 500 100 l 1,20,-1
 400 100 l 1,21,-1
 400 200 l 1,18,-1
400 400 m 1,22,-1
 500 400 l 1,23,-1
 500 300 l 1,24,-1
 400 300 l 1,25,-1
 400 400 l 1,22,-1
EndSplineSet
EndChar

StartChar: uni0438
Encoding: 1080 1080 174
Width: 600
GlyphClass: 1
Flags: W
LayerCount: 2
Fore
SplineSet
100 500 m 1,0,-1
 100 200 l 1,1,-1
 200 200 l 1,2,-1
 200 100 l 1,3,-1
 100 100 l 1,4,-1
 100 0 l 1,5,-1
 0 0 l 1,6,-1
 0 500 l 1,7,-1
 100 500 l 1,0,-1
200 300 m 1,8,-1
 300 300 l 1,9,-1
 300 200 l 1,10,-1
 200 200 l 1,11,-1
 200 300 l 1,8,-1
300 400 m 1,12,-1
 400 400 l 1,13,-1
 400 500 l 1,14,-1
 500 500 l 1,15,-1
 500 0 l 1,16,-1
 400 0 l 1,17,-1
 400 300 l 1,18,-1
 300 300 l 1,19,-1
 300 400 l 1,12,-1
EndSplineSet
EndChar

StartChar: uni0439
Encoding: 1081 1081 175
Width: 600
GlyphClass: 1
Flags: W
LayerCount: 2
Fore
SplineSet
100 500 m 1,0,-1
 100 200 l 1,1,-1
 200 200 l 1,2,-1
 200 100 l 1,3,-1
 100 100 l 1,4,-1
 100 0 l 1,5,-1
 0 0 l 1,6,-1
 0 500 l 1,7,-1
 100 500 l 1,0,-1
100 700 m 1,8,-1
 200 700 l 1,9,-1
 200 600 l 1,10,-1
 100 600 l 1,11,-1
 100 700 l 1,8,-1
200 300 m 1,12,-1
 300 300 l 1,13,-1
 300 200 l 1,14,-1
 200 200 l 1,15,-1
 200 300 l 1,12,-1
200 600 m 1,16,-1
 300 600 l 1,17,-1
 300 500 l 1,18,-1
 200 500 l 1,19,-1
 200 600 l 1,16,-1
300 400 m 1,20,-1
 400 400 l 1,21,-1
 400 500 l 1,22,-1
 500 500 l 1,23,-1
 500 0 l 1,24,-1
 400 0 l 1,25,-1
 400 300 l 1,26,-1
 300 300 l 1,27,-1
 300 400 l 1,20,-1
300 700 m 1,28,-1
 400 700 l 1,29,-1
 400 600 l 1,30,-1
 300 600 l 1,31,-1
 300 700 l 1,28,-1
EndSplineSet
EndChar

StartChar: uni043A
Encoding: 1082 1082 176
Width: 600
GlyphClass: 1
Flags: W
LayerCount: 2
Fore
SplineSet
100 500 m 1,0,-1
 100 300 l 1,1,-1
 300 300 l 1,2,-1
 300 200 l 1,3,-1
 100 200 l 1,4,-1
 100 0 l 1,5,-1
 0 0 l 1,6,-1
 0 500 l 1,7,-1
 100 500 l 1,0,-1
300 200 m 1,8,-1
 400 200 l 1,9,-1
 400 100 l 1,10,-1
 300 100 l 1,11,-1
 300 200 l 1,8,-1
300 400 m 1,12,-1
 400 400 l 1,13,-1
 400 300 l 1,14,-1
 300 300 l 1,15,-1
 300 400 l 1,12,-1
400 100 m 1,16,-1
 500 100 l 1,17,-1
 500 0 l 1,18,-1
 400 0 l 1,19,-1
 400 100 l 1,16,-1
400 500 m 1,20,-1
 500 500 l 1,21,-1
 500 400 l 1,22,-1
 400 400 l 1,23,-1
 400 500 l 1,20,-1
EndSplineSet
EndChar

StartChar: uni043B
Encoding: 1083 1083 177
Width: 600
GlyphClass: 1
Flags: W
LayerCount: 2
Fore
SplineSet
0 100 m 1,0,-1
 100 100 l 1,1,-1
 100 0 l 1,2,-1
 0 0 l 1,3,-1
 0 100 l 1,0,-1
100 500 m 1,4,-1
 500 500 l 1,5,-1
 500 0 l 1,6,-1
 400 0 l 1,7,-1
 400 400 l 1,8,-1
 200 400 l 1,9,-1
 200 100 l 1,10,-1
 100 100 l 1,11,-1
 100 500 l 1,4,-1
EndSplineSet
EndChar

StartChar: uni043C
Encoding: 1084 1084 178
Width: 600
GlyphClass: 1
Flags: W
LayerCount: 2
Fore
SplineSet
0 500 m 1,0,-1
 100 500 l 1,1,-1
 100 400 l 1,2,-1
 200 400 l 1,3,-1
 200 300 l 1,4,-1
 100 300 l 1,5,-1
 100 0 l 1,6,-1
 0 0 l 1,7,-1
 0 500 l 1,0,-1
200 300 m 1,8,-1
 300 300 l 1,9,-1
 300 200 l 1,10,-1
 200 200 l 1,11,-1
 200 300 l 1,8,-1
300 400 m 1,12,-1
 400 400 l 1,13,-1
 400 500 l 1,14,-1
 500 500 l 1,15,-1
 500 0 l 1,16,-1
 400 0 l 1,17,-1
 400 300 l 1,18,-1
 300 300 l 1,19,-1
 300 400 l 1,12,-1
EndSplineSet
EndChar

StartChar: uni043D
Encoding: 1085 1085 179
Width: 600
GlyphClass: 1
Flags: W
LayerCount: 2
Fore
SplineSet
0 500 m 1,0,-1
 100 500 l 1,1,-1
 100 300 l 1,2,-1
 400 300 l 1,3,-1
 400 500 l 1,4,-1
 500 500 l 1,5,-1
 500 0 l 1,6,-1
 400 0 l 1,7,-1
 400 200 l 1,8,-1
 100 200 l 1,9,-1
 100 0 l 1,10,-1
 0 0 l 1,11,-1
 0 500 l 1,0,-1
EndSplineSet
EndChar

StartChar: uni043E
Encoding: 1086 1086 180
Width: 600
GlyphClass: 1
Flags: W
LayerCount: 2
Fore
SplineSet
0 400 m 1,0,-1
 100 400 l 1,1,-1
 100 100 l 1,2,-1
 0 100 l 1,3,-1
 0 400 l 1,0,-1
100 100 m 1,4,-1
 400 100 l 1,5,-1
 400 0 l 1,6,-1
 100 0 l 1,7,-1
 100 100 l 1,4,-1
100 500 m 1,8,-1
 400 500 l 1,9,-1
 400 400 l 1,10,-1
 100 400 l 1,11,-1
 100 500 l 1,8,-1
400 400 m 1,12,-1
 500 400 l 1,13,-1
 500 100 l 1,14,-1
 400 100 l 1,15,-1
 400 400 l 1,12,-1
EndSplineSet
EndChar

StartChar: uni043F
Encoding: 1087 1087 181
Width: 600
GlyphClass: 1
Flags: W
LayerCount: 2
Fore
SplineSet
0 500 m 1,0,-1
 500 500 l 1,1,-1
 500 0 l 1,2,-1
 400 0 l 1,3,-1
 400 400 l 1,4,-1
 100 400 l 1,5,-1
 100 0 l 1,6,-1
 0 0 l 1,7,-1
 0 500 l 1,0,-1
EndSplineSet
EndChar

StartChar: uni0440
Encoding: 1088 1088 182
Width: 600
GlyphClass: 1
Flags: W
LayerCount: 2
Fore
SplineSet
0 500 m 1,0,-1
 100 500 l 1,1,-1
 100 400 l 1,2,-1
 200 400 l 1,3,-1
 200 300 l 1,4,-1
 100 300 l 1,5,-1
 100 200 l 1,6,-1
 200 200 l 1,7,-1
 200 100 l 1,8,-1
 100 100 l 1,9,-1
 100 -100 l 1,10,-1
 0 -100 l 1,11,-1
 0 500 l 1,0,-1
200 100 m 1,12,-1
 400 100 l 1,13,-1
 400 0 l 1,14,-1
 200 0 l 1,15,-1
 200 100 l 1,12,-1
200 500 m 1,16,-1
 400 500 l 1,17,-1
 400 400 l 1,18,-1
 200 400 l 1,19,-1
 200 500 l 1,16,-1
400 400 m 1,20,-1
 500 400 l 1,21,-1
 500 100 l 1,22,-1
 400 100 l 1,23,-1
 400 400 l 1,20,-1
EndSplineSet
EndChar

StartChar: uni0441
Encoding: 1089 1089 183
Width: 600
GlyphClass: 1
Flags: W
LayerCount: 2
Fore
SplineSet
0 400 m 1,0,-1
 100 400 l 1,1,-1
 100 100 l 1,2,-1
 0 100 l 1,3,-1
 0 400 l 1,0,-1
100 100 m 1,4,-1
 400 100 l 1,5,-1
 400 0 l 1,6,-1
 100 0 l 1,7,-1
 100 100 l 1,4,-1
100 500 m 1,8,-1
 400 500 l 1,9,-1
 400 400 l 1,10,-1
 100 400 l 1,11,-1
 100 500 l 1,8,-1
400 200 m 1,12,-1
 500 200 l 1,13,-1
 500 100 l 1,14,-1
 400 100 l 1,15,-1
 400 200 l 1,12,-1
400 400 m 1,16,-1
 500 400 l 1,17,-1
 500 300 l 1,18,-1
 400 300 l 1,19,-1
 400 400 l 1,16,-1
EndSplineSet
EndChar

StartChar: uni0442
Encoding: 1090 1090 184
Width: 600
GlyphClass: 1
Flags: W
LayerCount: 2
Fore
SplineSet
0 500 m 1,0,-1
 500 500 l 1,1,-1
 500 400 l 1,2,-1
 300 400 l 1,3,-1
 300 0 l 1,4,-1
 200 0 l 1,5,-1
 200 400 l 1,6,-1
 0 400 l 1,7,-1
 0 500 l 1,0,-1
EndSplineSet
EndChar

StartChar: uni0443
Encoding: 1091 1091 185
Width: 600
GlyphClass: 1
Flags: W
LayerCount: 2
Fore
SplineSet
100 500 m 1,0,-1
 100 200 l 1,1,-1
 0 200 l 1,2,-1
 0 500 l 1,3,-1
 100 500 l 1,0,-1
100 0 m 1,4,-1
 400 0 l 1,5,-1
 400 -100 l 1,6,-1
 100 -100 l 1,7,-1
 100 0 l 1,4,-1
100 200 m 1,8,-1
 300 200 l 1,9,-1
 300 100 l 1,10,-1
 100 100 l 1,11,-1
 100 200 l 1,8,-1
300 300 m 1,12,-1
 400 300 l 1,13,-1
 400 500 l 1,14,-1
 500 500 l 1,15,-1
 500 0 l 1,16,-1
 400 0 l 1,17,-1
 400 200 l 1,18,-1
 300 200 l 1,19,-1
 300 300 l 1,12,-1
EndSplineSet
EndChar

StartChar: uni0444
Encoding: 1092 1092 186
Width: 600
GlyphClass: 1
Flags: W
LayerCount: 2
Fore
SplineSet
200 500 m 1,0,-1
 300 500 l 1,1,-1
 300 400 l 1,2,-1
 400 400 l 1,3,-1
 400 300 l 1,4,-1
 300 300 l 1,5,-1
 300 100 l 1,6,-1
 400 100 l 1,7,-1
 400 0 l 1,8,-1
 300 0 l 1,9,-1
 300 -100 l 1,10,-1
 200 -100 l 1,11,-1
 200 0 l 1,12,-1
 100 0 l 1,13,-1
 100 100 l 1,14,-1
 200 100 l 1,15,-1
 200 300 l 1,16,-1
 100 300 l 1,17,-1
 100 400 l 1,18,-1
 200 400 l 1,19,-1
 200 500 l 1,0,-1
0 300 m 1,20,-1
 100 300 l 1,21,-1
 100 100 l 1,22,-1
 0 100 l 1,23,-1
 0 300 l 1,20,-1
400 300 m 1,24,-1
 500 300 l 1,25,-1
 500 100 l 1,26,-1
 400 100 l 1,27,-1
 400 300 l 1,24,-1
EndSplineSet
EndChar

StartChar: uni0445
Encoding: 1093 1093 187
Width: 600
GlyphClass: 1
Flags: W
LayerCount: 2
Fore
SplineSet
0 100 m 1,0,-1
 100 100 l 1,1,-1
 100 0 l 1,2,-1
 0 0 l 1,3,-1
 0 100 l 1,0,-1
0 500 m 1,4,-1
 100 500 l 1,5,-1
 100 400 l 1,6,-1
 0 400 l 1,7,-1
 0 500 l 1,4,-1
100 200 m 1,8,-1
 200 200 l 1,9,-1
 200 100 l 1,10,-1
 100 100 l 1,11,-1
 100 200 l 1,8,-1
100 400 m 1,12,-1
 200 400 l 1,13,-1
 200 300 l 1,14,-1
 100 300 l 1,15,-1
 100 400 l 1,12,-1
200 300 m 1,16,-1
 300 300 l 1,17,-1
 300 200 l 1,18,-1
 200 200 l 1,19,-1
 200 300 l 1,16,-1
300 200 m 1,20,-1
 400 200 l 1,21,-1
 400 100 l 1,22,-1
 300 100 l 1,23,-1
 300 200 l 1,20,-1
300 400 m 1,24,-1
 400 400 l 1,25,-1
 400 300 l 1,26,-1
 300 300 l 1,27,-1
 300 400 l 1,24,-1
400 100 m 1,28,-1
 500 100 l 1,29,-1
 500 0 l 1,30,-1
 400 0 l 1,31,-1
 400 100 l 1,28,-1
400 500 m 1,32,-1
 500 500 l 1,33,-1
 500 400 l 1,34,-1
 400 400 l 1,35,-1
 400 500 l 1,32,-1
EndSplineSet
EndChar

StartChar: uni0447
Encoding: 1095 1095 188
Width: 600
GlyphClass: 1
Flags: W
LayerCount: 2
Fore
SplineSet
100 500 m 1,0,-1
 100 200 l 1,1,-1
 0 200 l 1,2,-1
 0 500 l 1,3,-1
 100 500 l 1,0,-1
100 200 m 1,4,-1
 400 200 l 1,5,-1
 400 500 l 1,6,-1
 500 500 l 1,7,-1
 500 0 l 1,8,-1
 400 0 l 1,9,-1
 400 100 l 1,10,-1
 100 100 l 1,11,-1
 100 200 l 1,4,-1
EndSplineSet
EndChar

StartChar: uni0446
Encoding: 1094 1094 189
Width: 600
GlyphClass: 1
Flags: W
LayerCount: 2
Fore
SplineSet
100 500 m 1,0,-1
 100 100 l 1,1,-1
 300 100 l 1,2,-1
 300 500 l 1,3,-1
 400 500 l 1,4,-1
 400 100 l 1,5,-1
 500 100 l 1,6,-1
 500 -100 l 1,7,-1
 400 -100 l 1,8,-1
 400 0 l 1,9,-1
 0 0 l 1,10,-1
 0 500 l 1,11,-1
 100 500 l 1,0,-1
EndSplineSet
EndChar

StartChar: uni0448
Encoding: 1096 1096 190
Width: 600
GlyphClass: 1
Flags: W
LayerCount: 2
Fore
SplineSet
100 500 m 1,0,-1
 100 100 l 1,1,-1
 200 100 l 1,2,-1
 200 400 l 1,3,-1
 300 400 l 1,4,-1
 300 100 l 1,5,-1
 400 100 l 1,6,-1
 400 500 l 1,7,-1
 500 500 l 1,8,-1
 500 0 l 1,9,-1
 0 0 l 1,10,-1
 0 500 l 1,11,-1
 100 500 l 1,0,-1
EndSplineSet
EndChar

StartChar: uni0449
Encoding: 1097 1097 191
Width: 600
GlyphClass: 1
Flags: W
LayerCount: 2
Fore
SplineSet
100 500 m 1,0,-1
 100 100 l 1,1,-1
 200 100 l 1,2,-1
 200 400 l 1,3,-1
 300 400 l 1,4,-1
 300 100 l 1,5,-1
 400 100 l 1,6,-1
 400 500 l 1,7,-1
 500 500 l 1,8,-1
 500 100 l 1,9,-1
 600 100 l 1,10,-1
 600 -100 l 1,11,-1
 500 -100 l 1,12,-1
 500 0 l 1,13,-1
 0 0 l 1,14,-1
 0 500 l 1,15,-1
 100 500 l 1,0,-1
EndSplineSet
EndChar

StartChar: uni044C
Encoding: 1100 1100 192
Width: 600
GlyphClass: 1
Flags: W
LayerCount: 2
Fore
SplineSet
100 500 m 1,0,-1
 100 400 l 1,1,-1
 400 400 l 1,2,-1
 400 300 l 1,3,-1
 100 300 l 1,4,-1
 100 100 l 1,5,-1
 400 100 l 1,6,-1
 400 0 l 1,7,-1
 0 0 l 1,8,-1
 0 500 l 1,9,-1
 100 500 l 1,0,-1
400 300 m 1,10,-1
 500 300 l 1,11,-1
 500 100 l 1,12,-1
 400 100 l 1,13,-1
 400 300 l 1,10,-1
EndSplineSet
EndChar

StartChar: uni044B
Encoding: 1099 1099 193
Width: 600
GlyphClass: 1
Flags: W
LayerCount: 2
Fore
SplineSet
100 500 m 1,0,-1
 100 300 l 1,1,-1
 200 300 l 1,2,-1
 200 200 l 1,3,-1
 100 200 l 1,4,-1
 100 100 l 1,5,-1
 200 100 l 1,6,-1
 200 0 l 1,7,-1
 0 0 l 1,8,-1
 0 500 l 1,9,-1
 100 500 l 1,0,-1
200 200 m 1,10,-1
 300 200 l 1,11,-1
 300 100 l 1,12,-1
 200 100 l 1,13,-1
 200 200 l 1,10,-1
400 500 m 1,14,-1
 500 500 l 1,15,-1
 500 0 l 1,16,-1
 400 0 l 1,17,-1
 400 500 l 1,14,-1
EndSplineSet
EndChar

StartChar: uni044A
Encoding: 1098 1098 194
Width: 600
GlyphClass: 1
Flags: W
LayerCount: 2
Fore
SplineSet
0 500 m 1,0,-1
 200 500 l 1,1,-1
 200 400 l 1,2,-1
 400 400 l 1,3,-1
 400 300 l 1,4,-1
 200 300 l 1,5,-1
 200 100 l 1,6,-1
 400 100 l 1,7,-1
 400 0 l 1,8,-1
 100 0 l 1,9,-1
 100 400 l 1,10,-1
 0 400 l 1,11,-1
 0 500 l 1,0,-1
400 300 m 1,12,-1
 500 300 l 1,13,-1
 500 100 l 1,14,-1
 400 100 l 1,15,-1
 400 300 l 1,12,-1
EndSplineSet
EndChar

StartChar: uni044D
Encoding: 1101 1101 195
Width: 600
GlyphClass: 1
Flags: W
LayerCount: 2
Fore
SplineSet
0 400 m 1,0,-1
 100 400 l 1,1,-1
 100 300 l 1,2,-1
 0 300 l 1,3,-1
 0 400 l 1,0,-1
0 200 m 1,4,-1
 100 200 l 1,5,-1
 100 100 l 1,6,-1
 0 100 l 1,7,-1
 0 200 l 1,4,-1
100 100 m 1,8,-1
 400 100 l 1,9,-1
 400 0 l 1,10,-1
 100 0 l 1,11,-1
 100 100 l 1,8,-1
100 500 m 1,12,-1
 400 500 l 1,13,-1
 400 400 l 1,14,-1
 100 400 l 1,15,-1
 100 500 l 1,12,-1
200 300 m 1,16,-1
 400 300 l 1,17,-1
 400 400 l 1,18,-1
 500 400 l 1,19,-1
 500 100 l 1,20,-1
 400 100 l 1,21,-1
 400 200 l 1,22,-1
 200 200 l 1,23,-1
 200 300 l 1,16,-1
EndSplineSet
EndChar

StartChar: uni044E
Encoding: 1102 1102 196
Width: 600
GlyphClass: 1
Flags: W
LayerCount: 2
Fore
SplineSet
100 500 m 1,0,-1
 100 300 l 1,1,-1
 200 300 l 1,2,-1
 200 400 l 1,3,-1
 300 400 l 1,4,-1
 300 100 l 1,5,-1
 200 100 l 1,6,-1
 200 200 l 1,7,-1
 100 200 l 1,8,-1
 100 0 l 1,9,-1
 0 0 l 1,10,-1
 0 500 l 1,11,-1
 100 500 l 1,0,-1
300 100 m 1,12,-1
 400 100 l 1,13,-1
 400 0 l 1,14,-1
 300 0 l 1,15,-1
 300 100 l 1,12,-1
300 500 m 1,16,-1
 400 500 l 1,17,-1
 400 400 l 1,18,-1
 300 400 l 1,19,-1
 300 500 l 1,16,-1
400 400 m 1,20,-1
 500 400 l 1,21,-1
 500 100 l 1,22,-1
 400 100 l 1,23,-1
 400 400 l 1,20,-1
EndSplineSet
EndChar

StartChar: uni044F
Encoding: 1103 1103 197
Width: 600
GlyphClass: 1
Flags: W
LayerCount: 2
Fore
SplineSet
400 200 m 1,0,-1
 200 200 l 1,1,-1
 200 100 l 1,2,-1
 100 100 l 1,3,-1
 100 300 l 1,4,-1
 400 300 l 1,5,-1
 400 400 l 1,6,-1
 100 400 l 1,7,-1
 100 500 l 1,8,-1
 500 500 l 1,9,-1
 500 0 l 1,10,-1
 400 0 l 1,11,-1
 400 200 l 1,0,-1
0 100 m 1,12,-1
 100 100 l 1,13,-1
 100 0 l 1,14,-1
 0 0 l 1,15,-1
 0 100 l 1,12,-1
0 400 m 1,16,-1
 100 400 l 1,17,-1
 100 300 l 1,18,-1
 0 300 l 1,19,-1
 0 400 l 1,16,-1
EndSplineSet
EndChar

StartChar: Alpha
Encoding: 913 913 198
Width: 600
GlyphClass: 1
Flags: W
LayerCount: 2
Fore
SplineSet
0 300 m 1,0,-1
 100 300 l 1,1,-1
 100 500 l 1,2,-1
 200 500 l 1,3,-1
 200 300 l 1,4,-1
 300 300 l 1,5,-1
 300 500 l 1,6,-1
 400 500 l 1,7,-1
 400 300 l 1,8,-1
 500 300 l 1,9,-1
 500 0 l 1,10,-1
 400 0 l 1,11,-1
 400 200 l 1,12,-1
 100 200 l 1,13,-1
 100 0 l 1,14,-1
 0 0 l 1,15,-1
 0 300 l 1,0,-1
200 700 m 1,16,-1
 300 700 l 1,17,-1
 300 500 l 1,18,-1
 200 500 l 1,19,-1
 200 700 l 1,16,-1
EndSplineSet
EndChar

StartChar: Beta
Encoding: 914 914 199
Width: 600
GlyphClass: 1
Flags: W
LayerCount: 2
Fore
SplineSet
0 700 m 1,0,-1
 400 700 l 1,1,-1
 400 600 l 1,2,-1
 100 600 l 1,3,-1
 100 400 l 1,4,-1
 400 400 l 1,5,-1
 400 300 l 1,6,-1
 100 300 l 1,7,-1
 100 100 l 1,8,-1
 400 100 l 1,9,-1
 400 0 l 1,10,-1
 0 0 l 1,11,-1
 0 700 l 1,0,-1
400 300 m 1,12,-1
 500 300 l 1,13,-1
 500 100 l 1,14,-1
 400 100 l 1,15,-1
 400 300 l 1,12,-1
400 600 m 1,16,-1
 500 600 l 1,17,-1
 500 400 l 1,18,-1
 400 400 l 1,19,-1
 400 600 l 1,16,-1
EndSplineSet
EndChar

StartChar: Gamma
Encoding: 915 915 200
Width: 600
GlyphClass: 1
Flags: W
LayerCount: 2
Fore
SplineSet
0 700 m 1,0,-1
 400 700 l 1,1,-1
 400 600 l 1,2,-1
 100 600 l 1,3,-1
 100 0 l 1,4,-1
 0 0 l 1,5,-1
 0 700 l 1,0,-1
EndSplineSet
EndChar

StartChar: uni0394
Encoding: 916 916 201
Width: 600
GlyphClass: 1
Flags: W
LayerCount: 2
Fore
SplineSet
0 300 m 1,0,-1
 100 300 l 1,1,-1
 100 100 l 1,2,-1
 400 100 l 1,3,-1
 400 300 l 1,4,-1
 500 300 l 1,5,-1
 500 0 l 1,6,-1
 0 0 l 1,7,-1
 0 300 l 1,0,-1
100 500 m 1,8,-1
 200 500 l 1,9,-1
 200 300 l 1,10,-1
 100 300 l 1,11,-1
 100 500 l 1,8,-1
200 700 m 1,12,-1
 300 700 l 1,13,-1
 300 500 l 1,14,-1
 200 500 l 1,15,-1
 200 700 l 1,12,-1
300 500 m 1,16,-1
 400 500 l 1,17,-1
 400 300 l 1,18,-1
 300 300 l 1,19,-1
 300 500 l 1,16,-1
EndSplineSet
EndChar

StartChar: Epsilon
Encoding: 917 917 202
Width: 600
GlyphClass: 1
Flags: W
LayerCount: 2
Fore
SplineSet
0 600 m 1,0,-1
 100 600 l 1,1,-1
 100 400 l 1,2,-1
 300 400 l 1,3,-1
 300 300 l 1,4,-1
 100 300 l 1,5,-1
 100 100 l 1,6,-1
 0 100 l 1,7,-1
 0 600 l 1,0,-1
100 100 m 1,8,-1
 400 100 l 1,9,-1
 400 0 l 1,10,-1
 100 0 l 1,11,-1
 100 100 l 1,8,-1
100 700 m 1,12,-1
 400 700 l 1,13,-1
 400 600 l 1,14,-1
 100 600 l 1,15,-1
 100 700 l 1,12,-1
400 200 m 1,16,-1
 500 200 l 1,17,-1
 500 100 l 1,18,-1
 400 100 l 1,19,-1
 400 200 l 1,16,-1
400 600 m 1,20,-1
 500 600 l 1,21,-1
 500 500 l 1,22,-1
 400 500 l 1,23,-1
 400 600 l 1,20,-1
EndSplineSet
EndChar

StartChar: Zeta
Encoding: 918 918 203
Width: 600
GlyphClass: 1
Flags: W
LayerCount: 2
Fore
SplineSet
0 700 m 1,0,-1
 500 700 l 1,1,-1
 500 500 l 1,2,-1
 400 500 l 1,3,-1
 400 600 l 1,4,-1
 0 600 l 1,5,-1
 0 700 l 1,0,-1
0 200 m 1,6,-1
 100 200 l 1,7,-1
 100 100 l 1,8,-1
 500 100 l 1,9,-1
 500 0 l 1,10,-1
 0 0 l 1,11,-1
 0 200 l 1,6,-1
100 300 m 1,12,-1
 200 300 l 1,13,-1
 200 200 l 1,14,-1
 100 200 l 1,15,-1
 100 300 l 1,12,-1
200 400 m 1,16,-1
 300 400 l 1,17,-1
 300 300 l 1,18,-1
 200 300 l 1,19,-1
 200 400 l 1,16,-1
300 500 m 1,20,-1
 400 500 l 1,21,-1
 400 400 l 1,22,-1
 300 400 l 1,23,-1
 300 500 l 1,20,-1
EndSplineSet
EndChar

StartChar: Eta
Encoding: 919 919 204
Width: 600
GlyphClass: 1
Flags: W
LayerCount: 2
Fore
SplineSet
0 700 m 1,0,-1
 100 700 l 1,1,-1
 100 400 l 1,2,-1
 400 400 l 1,3,-1
 400 700 l 1,4,-1
 500 700 l 1,5,-1
 500 0 l 1,6,-1
 400 0 l 1,7,-1
 400 300 l 1,8,-1
 100 300 l 1,9,-1
 100 0 l 1,10,-1
 0 0 l 1,11,-1
 0 700 l 1,0,-1
EndSplineSet
EndChar

StartChar: Theta
Encoding: 920 920 205
Width: 600
GlyphClass: 1
Flags: W
LayerCount: 2
Fore
SplineSet
0 600 m 1,0,-1
 100 600 l 1,1,-1
 100 400 l 1,2,-1
 400 400 l 1,3,-1
 400 600 l 1,4,-1
 500 600 l 1,5,-1
 500 100 l 1,6,-1
 400 100 l 1,7,-1
 400 300 l 1,8,-1
 100 300 l 1,9,-1
 100 100 l 1,10,-1
 0 100 l 1,11,-1
 0 600 l 1,0,-1
100 100 m 1,12,-1
 400 100 l 1,13,-1
 400 0 l 1,14,-1
 100 0 l 1,15,-1
 100 100 l 1,12,-1
100 700 m 1,16,-1
 400 700 l 1,17,-1
 400 600 l 1,18,-1
 100 600 l 1,19,-1
 100 700 l 1,16,-1
EndSplineSet
EndChar

StartChar: Iota
Encoding: 921 921 206
Width: 600
GlyphClass: 1
Flags: W
LayerCount: 2
Fore
SplineSet
200 700 m 1,0,-1
 300 700 l 1,1,-1
 300 0 l 1,2,-1
 200 0 l 1,3,-1
 200 700 l 1,0,-1
EndSplineSet
EndChar

StartChar: Kappa
Encoding: 922 922 207
Width: 600
GlyphClass: 1
Flags: W
LayerCount: 2
Fore
SplineSet
0 700 m 1,0,-1
 100 700 l 1,1,-1
 100 400 l 1,2,-1
 200 400 l 1,3,-1
 200 300 l 1,4,-1
 100 300 l 1,5,-1
 100 0 l 1,6,-1
 0 0 l 1,7,-1
 0 700 l 1,0,-1
200 300 m 1,8,-1
 300 300 l 1,9,-1
 300 200 l 1,10,-1
 200 200 l 1,11,-1
 200 300 l 1,8,-1
200 500 m 1,12,-1
 300 500 l 1,13,-1
 300 400 l 1,14,-1
 200 400 l 1,15,-1
 200 500 l 1,12,-1
300 200 m 1,16,-1
 400 200 l 1,17,-1
 400 100 l 1,18,-1
 300 100 l 1,19,-1
 300 200 l 1,16,-1
300 600 m 1,20,-1
 400 600 l 1,21,-1
 400 500 l 1,22,-1
 300 500 l 1,23,-1
 300 600 l 1,20,-1
400 100 m 1,24,-1
 500 100 l 1,25,-1
 500 0 l 1,26,-1
 400 0 l 1,27,-1
 400 100 l 1,24,-1
400 700 m 1,28,-1
 500 700 l 1,29,-1
 500 600 l 1,30,-1
 400 600 l 1,31,-1
 400 700 l 1,28,-1
EndSplineSet
EndChar

StartChar: Lambda
Encoding: 923 923 208
Width: 600
GlyphClass: 1
Flags: W
LayerCount: 2
Fore
SplineSet
0 300 m 1,0,-1
 100 300 l 1,1,-1
 100 0 l 1,2,-1
 0 0 l 1,3,-1
 0 300 l 1,0,-1
100 500 m 1,4,-1
 200 500 l 1,5,-1
 200 300 l 1,6,-1
 100 300 l 1,7,-1
 100 500 l 1,4,-1
200 700 m 1,8,-1
 300 700 l 1,9,-1
 300 500 l 1,10,-1
 200 500 l 1,11,-1
 200 700 l 1,8,-1
300 500 m 1,12,-1
 400 500 l 1,13,-1
 400 300 l 1,14,-1
 300 300 l 1,15,-1
 300 500 l 1,12,-1
400 300 m 1,16,-1
 500 300 l 1,17,-1
 500 0 l 1,18,-1
 400 0 l 1,19,-1
 400 300 l 1,16,-1
EndSplineSet
EndChar

StartChar: Mu
Encoding: 924 924 209
Width: 600
GlyphClass: 1
Flags: W
LayerCount: 2
Fore
SplineSet
0 700 m 1,0,-1
 100 700 l 1,1,-1
 100 600 l 1,2,-1
 200 600 l 1,3,-1
 200 500 l 1,4,-1
 100 500 l 1,5,-1
 100 0 l 1,6,-1
 0 0 l 1,7,-1
 0 700 l 1,0,-1
200 500 m 1,8,-1
 300 500 l 1,9,-1
 300 300 l 1,10,-1
 200 300 l 1,11,-1
 200 500 l 1,8,-1
300 600 m 1,12,-1
 400 600 l 1,13,-1
 400 700 l 1,14,-1
 500 700 l 1,15,-1
 500 0 l 1,16,-1
 400 0 l 1,17,-1
 400 500 l 1,18,-1
 300 500 l 1,19,-1
 300 600 l 1,12,-1
EndSplineSet
EndChar

StartChar: Nu
Encoding: 925 925 210
Width: 600
GlyphClass: 1
Flags: W
LayerCount: 2
Fore
SplineSet
0 700 m 1,0,-1
 100 700 l 1,1,-1
 100 600 l 1,2,-1
 200 600 l 1,3,-1
 200 500 l 1,4,-1
 100 500 l 1,5,-1
 100 0 l 1,6,-1
 0 0 l 1,7,-1
 0 700 l 1,0,-1
200 500 m 1,8,-1
 300 500 l 1,9,-1
 300 300 l 1,10,-1
 200 300 l 1,11,-1
 200 500 l 1,8,-1
300 300 m 1,12,-1
 400 300 l 1,13,-1
 400 700 l 1,14,-1
 500 700 l 1,15,-1
 500 0 l 1,16,-1
 400 0 l 1,17,-1
 400 200 l 1,18,-1
 300 200 l 1,19,-1
 300 300 l 1,12,-1
EndSplineSet
EndChar

StartChar: Xi
Encoding: 926 926 211
Width: 600
GlyphClass: 1
Flags: W
LayerCount: 2
Fore
SplineSet
0 100 m 1,0,-1
 500 100 l 1,1,-1
 500 0 l 1,2,-1
 0 0 l 1,3,-1
 0 100 l 1,0,-1
0 700 m 1,4,-1
 500 700 l 1,5,-1
 500 600 l 1,6,-1
 0 600 l 1,7,-1
 0 700 l 1,4,-1
100 400 m 1,8,-1
 400 400 l 1,9,-1
 400 300 l 1,10,-1
 100 300 l 1,11,-1
 100 400 l 1,8,-1
EndSplineSet
EndChar

StartChar: Omicron
Encoding: 927 927 212
Width: 600
GlyphClass: 1
Flags: W
LayerCount: 2
Fore
SplineSet
0 600 m 1,0,-1
 100 600 l 1,1,-1
 100 100 l 1,2,-1
 0 100 l 1,3,-1
 0 600 l 1,0,-1
100 100 m 1,4,-1
 400 100 l 1,5,-1
 400 0 l 1,6,-1
 100 0 l 1,7,-1
 100 100 l 1,4,-1
100 700 m 1,8,-1
 400 700 l 1,9,-1
 400 600 l 1,10,-1
 100 600 l 1,11,-1
 100 700 l 1,8,-1
400 600 m 1,12,-1
 500 600 l 1,13,-1
 500 100 l 1,14,-1
 400 100 l 1,15,-1
 400 600 l 1,12,-1
EndSplineSet
EndChar

StartChar: Pi
Encoding: 928 928 213
Width: 600
GlyphClass: 1
Flags: W
LayerCount: 2
Fore
SplineSet
0 700 m 1,0,-1
 500 700 l 1,1,-1
 500 0 l 1,2,-1
 400 0 l 1,3,-1
 400 600 l 1,4,-1
 100 600 l 1,5,-1
 100 0 l 1,6,-1
 0 0 l 1,7,-1
 0 700 l 1,0,-1
EndSplineSet
EndChar

StartChar: Rho
Encoding: 929 929 214
Width: 600
GlyphClass: 1
Flags: W
LayerCount: 2
Fore
SplineSet
0 700 m 1,0,-1
 400 700 l 1,1,-1
 400 600 l 1,2,-1
 100 600 l 1,3,-1
 100 400 l 1,4,-1
 400 400 l 1,5,-1
 400 300 l 1,6,-1
 100 300 l 1,7,-1
 100 0 l 1,8,-1
 0 0 l 1,9,-1
 0 700 l 1,0,-1
400 600 m 1,10,-1
 500 600 l 1,11,-1
 500 400 l 1,12,-1
 400 400 l 1,13,-1
 400 600 l 1,10,-1
EndSplineSet
EndChar

StartChar: Sigma
Encoding: 931 931 215
Width: 600
GlyphClass: 1
Flags: W
LayerCount: 2
Fore
SplineSet
100 500 m 1,0,-1
 0 500 l 1,1,-1
 0 700 l 1,2,-1
 500 700 l 1,3,-1
 500 600 l 1,4,-1
 100 600 l 1,5,-1
 100 500 l 1,0,-1
0 200 m 1,6,-1
 100 200 l 1,7,-1
 100 100 l 1,8,-1
 500 100 l 1,9,-1
 500 0 l 1,10,-1
 0 0 l 1,11,-1
 0 200 l 1,6,-1
100 300 m 1,12,-1
 200 300 l 1,13,-1
 200 200 l 1,14,-1
 100 200 l 1,15,-1
 100 300 l 1,12,-1
100 500 m 1,16,-1
 200 500 l 1,17,-1
 200 400 l 1,18,-1
 100 400 l 1,19,-1
 100 500 l 1,16,-1
200 400 m 1,20,-1
 300 400 l 1,21,-1
 300 300 l 1,22,-1
 200 300 l 1,23,-1
 200 400 l 1,20,-1
EndSplineSet
EndChar

StartChar: Tau
Encoding: 932 932 216
Width: 600
GlyphClass: 1
Flags: W
LayerCount: 2
Fore
SplineSet
0 700 m 1,0,-1
 500 700 l 1,1,-1
 500 600 l 1,2,-1
 300 600 l 1,3,-1
 300 0 l 1,4,-1
 200 0 l 1,5,-1
 200 600 l 1,6,-1
 0 600 l 1,7,-1
 0 700 l 1,0,-1
EndSplineSet
EndChar

StartChar: Upsilon
Encoding: 933 933 217
Width: 600
GlyphClass: 1
Flags: W
LayerCount: 2
Fore
SplineSet
100 700 m 1,0,-1
 100 500 l 1,1,-1
 0 500 l 1,2,-1
 0 700 l 1,3,-1
 100 700 l 1,0,-1
100 500 m 1,4,-1
 200 500 l 1,5,-1
 200 400 l 1,6,-1
 300 400 l 1,7,-1
 300 500 l 1,8,-1
 400 500 l 1,9,-1
 400 300 l 1,10,-1
 300 300 l 1,11,-1
 300 0 l 1,12,-1
 200 0 l 1,13,-1
 200 300 l 1,14,-1
 100 300 l 1,15,-1
 100 500 l 1,4,-1
400 700 m 1,16,-1
 500 700 l 1,17,-1
 500 500 l 1,18,-1
 400 500 l 1,19,-1
 400 700 l 1,16,-1
EndSplineSet
EndChar

StartChar: Phi
Encoding: 934 934 218
Width: 600
GlyphClass: 1
Flags: W
LayerCount: 2
Fore
SplineSet
100 500 m 1,0,-1
 100 100 l 1,1,-1
 0 100 l 1,2,-1
 0 500 l 1,3,-1
 100 500 l 1,0,-1
100 100 m 1,4,-1
 200 100 l 1,5,-1
 200 500 l 1,6,-1
 100 500 l 1,7,-1
 100 600 l 1,8,-1
 200 600 l 1,9,-1
 200 700 l 1,10,-1
 300 700 l 1,11,-1
 300 600 l 1,12,-1
 400 600 l 1,13,-1
 400 500 l 1,14,-1
 300 500 l 1,15,-1
 300 100 l 1,16,-1
 400 100 l 1,17,-1
 400 0 l 1,18,-1
 300 0 l 1,19,-1
 300 -100 l 1,20,-1
 200 -100 l 1,21,-1
 200 0 l 1,22,-1
 100 0 l 1,23,-1
 100 100 l 1,4,-1
400 500 m 1,24,-1
 500 500 l 1,25,-1
 500 100 l 1,26,-1
 400 100 l 1,27,-1
 400 500 l 1,24,-1
EndSplineSet
EndChar

StartChar: Chi
Encoding: 935 935 219
Width: 600
GlyphClass: 1
Flags: W
LayerCount: 2
Fore
SplineSet
0 200 m 1,0,-1
 100 200 l 1,1,-1
 100 0 l 1,2,-1
 0 0 l 1,3,-1
 0 200 l 1,0,-1
0 700 m 1,4,-1
 100 700 l 1,5,-1
 100 500 l 1,6,-1
 0 500 l 1,7,-1
 0 700 l 1,4,-1
100 300 m 1,8,-1
 200 300 l 1,9,-1
 200 200 l 1,10,-1
 100 200 l 1,11,-1
 100 300 l 1,8,-1
100 500 m 1,12,-1
 200 500 l 1,13,-1
 200 400 l 1,14,-1
 100 400 l 1,15,-1
 100 500 l 1,12,-1
200 400 m 1,16,-1
 300 400 l 1,17,-1
 300 300 l 1,18,-1
 200 300 l 1,19,-1
 200 400 l 1,16,-1
300 300 m 1,20,-1
 400 300 l 1,21,-1
 400 200 l 1,22,-1
 300 200 l 1,23,-1
 300 300 l 1,20,-1
300 500 m 1,24,-1
 400 500 l 1,25,-1
 400 400 l 1,26,-1
 300 400 l 1,27,-1
 300 500 l 1,24,-1
400 200 m 1,28,-1
 500 200 l 1,29,-1
 500 0 l 1,30,-1
 400 0 l 1,31,-1
 400 200 l 1,28,-1
400 700 m 1,32,-1
 500 700 l 1,33,-1
 500 500 l 1,34,-1
 400 500 l 1,35,-1
 400 700 l 1,32,-1
EndSplineSet
EndChar

StartChar: Psi
Encoding: 936 936 220
Width: 600
GlyphClass: 1
Flags: W
LayerCount: 2
Fore
SplineSet
300 700 m 1,0,-1
 300 200 l 1,1,-1
 400 200 l 1,2,-1
 400 100 l 1,3,-1
 300 100 l 1,4,-1
 300 0 l 1,5,-1
 200 0 l 1,6,-1
 200 100 l 1,7,-1
 100 100 l 1,8,-1
 100 200 l 1,9,-1
 200 200 l 1,10,-1
 200 700 l 1,11,-1
 300 700 l 1,0,-1
0 600 m 1,12,-1
 100 600 l 1,13,-1
 100 200 l 1,14,-1
 0 200 l 1,15,-1
 0 600 l 1,12,-1
400 600 m 1,16,-1
 500 600 l 1,17,-1
 500 200 l 1,18,-1
 400 200 l 1,19,-1
 400 600 l 1,16,-1
EndSplineSet
EndChar

StartChar: uni03A9
Encoding: 937 937 221
Width: 600
GlyphClass: 1
Flags: W
LayerCount: 2
Fore
SplineSet
0 100 m 1,0,-1
 100 100 l 1,1,-1
 100 200 l 1,2,-1
 200 200 l 1,3,-1
 200 0 l 1,4,-1
 0 0 l 1,5,-1
 0 100 l 1,0,-1
0 600 m 1,6,-1
 100 600 l 1,7,-1
 100 200 l 1,8,-1
 0 200 l 1,9,-1
 0 600 l 1,6,-1
100 700 m 1,10,-1
 400 700 l 1,11,-1
 400 600 l 1,12,-1
 100 600 l 1,13,-1
 100 700 l 1,10,-1
300 200 m 1,14,-1
 400 200 l 1,15,-1
 400 100 l 1,16,-1
 500 100 l 1,17,-1
 500 0 l 1,18,-1
 300 0 l 1,19,-1
 300 200 l 1,14,-1
400 600 m 1,20,-1
 500 600 l 1,21,-1
 500 200 l 1,22,-1
 400 200 l 1,23,-1
 400 600 l 1,20,-1
EndSplineSet
EndChar

StartChar: alpha
Encoding: 945 945 222
Width: 600
GlyphClass: 1
Flags: W
LayerCount: 2
Fore
SplineSet
100 400 m 1,0,-1
 100 100 l 1,1,-1
 0 100 l 1,2,-1
 0 400 l 1,3,-1
 100 400 l 1,0,-1
100 100 m 1,4,-1
 300 100 l 1,5,-1
 300 0 l 1,6,-1
 100 0 l 1,7,-1
 100 100 l 1,4,-1
100 500 m 1,8,-1
 300 500 l 1,9,-1
 300 400 l 1,10,-1
 100 400 l 1,11,-1
 100 500 l 1,8,-1
300 400 m 1,12,-1
 400 400 l 1,13,-1
 400 100 l 1,14,-1
 300 100 l 1,15,-1
 300 400 l 1,12,-1
400 100 m 1,16,-1
 500 100 l 1,17,-1
 500 0 l 1,18,-1
 400 0 l 1,19,-1
 400 100 l 1,16,-1
400 500 m 1,20,-1
 500 500 l 1,21,-1
 500 400 l 1,22,-1
 400 400 l 1,23,-1
 400 500 l 1,20,-1
EndSplineSet
EndChar

StartChar: beta
Encoding: 946 946 223
Width: 600
GlyphClass: 1
Flags: W
LayerCount: 2
Fore
SplineSet
0 400 m 1,0,-1
 100 400 l 1,1,-1
 100 100 l 1,2,-1
 400 100 l 1,3,-1
 400 0 l 1,4,-1
 100 0 l 1,5,-1
 100 -100 l 1,6,-1
 0 -100 l 1,7,-1
 0 400 l 1,0,-1
100 500 m 1,8,-1
 400 500 l 1,9,-1
 400 400 l 1,10,-1
 100 400 l 1,11,-1
 100 500 l 1,8,-1
200 300 m 1,12,-1
 400 300 l 1,13,-1
 400 200 l 1,14,-1
 200 200 l 1,15,-1
 200 300 l 1,12,-1
400 200 m 1,16,-1
 500 200 l 1,17,-1
 500 100 l 1,18,-1
 400 100 l 1,19,-1
 400 200 l 1,16,-1
400 400 m 1,20,-1
 500 400 l 1,21,-1
 500 300 l 1,22,-1
 400 300 l 1,23,-1
 400 400 l 1,20,-1
EndSplineSet
EndChar

StartChar: gamma
Encoding: 947 947 224
Width: 600
GlyphClass: 1
Flags: W
LayerCount: 2
Fore
SplineSet
100 500 m 1,0,-1
 100 300 l 1,1,-1
 0 300 l 1,2,-1
 0 500 l 1,3,-1
 100 500 l 1,0,-1
100 300 m 1,4,-1
 200 300 l 1,5,-1
 200 200 l 1,6,-1
 100 200 l 1,7,-1
 100 300 l 1,4,-1
200 200 m 1,8,-1
 400 200 l 1,9,-1
 400 100 l 1,10,-1
 300 100 l 1,11,-1
 300 -100 l 1,12,-1
 200 -100 l 1,13,-1
 200 200 l 1,8,-1
400 500 m 1,14,-1
 500 500 l 1,15,-1
 500 200 l 1,16,-1
 400 200 l 1,17,-1
 400 500 l 1,14,-1
EndSplineSet
EndChar

StartChar: delta
Encoding: 948 948 225
Width: 600
GlyphClass: 1
Flags: W
LayerCount: 2
Fore
SplineSet
100 400 m 1,0,-1
 100 600 l 1,1,-1
 200 600 l 1,2,-1
 200 500 l 1,3,-1
 400 500 l 1,4,-1
 400 400 l 1,5,-1
 200 400 l 1,6,-1
 200 300 l 1,7,-1
 100 300 l 1,8,-1
 100 100 l 1,9,-1
 0 100 l 1,10,-1
 0 400 l 1,11,-1
 100 400 l 1,0,-1
100 100 m 1,12,-1
 400 100 l 1,13,-1
 400 0 l 1,14,-1
 100 0 l 1,15,-1
 100 100 l 1,12,-1
200 700 m 1,16,-1
 400 700 l 1,17,-1
 400 600 l 1,18,-1
 200 600 l 1,19,-1
 200 700 l 1,16,-1
400 400 m 1,20,-1
 500 400 l 1,21,-1
 500 100 l 1,22,-1
 400 100 l 1,23,-1
 400 400 l 1,20,-1
EndSplineSet
EndChar

StartChar: epsilon
Encoding: 949 949 226
Width: 600
GlyphClass: 1
Flags: W
LayerCount: 2
Fore
SplineSet
100 300 m 1,0,-1
 0 300 l 1,1,-1
 0 400 l 1,2,-1
 100 400 l 1,3,-1
 100 300 l 1,0,-1
0 200 m 1,4,-1
 100 200 l 1,5,-1
 100 100 l 1,6,-1
 0 100 l 1,7,-1
 0 200 l 1,4,-1
100 100 m 1,8,-1
 400 100 l 1,9,-1
 400 0 l 1,10,-1
 100 0 l 1,11,-1
 100 100 l 1,8,-1
100 300 m 1,12,-1
 300 300 l 1,13,-1
 300 200 l 1,14,-1
 100 200 l 1,15,-1
 100 300 l 1,12,-1
100 500 m 1,16,-1
 400 500 l 1,17,-1
 400 400 l 1,18,-1
 100 400 l 1,19,-1
 100 500 l 1,16,-1
400 200 m 1,20,-1
 500 200 l 1,21,-1
 500 100 l 1,22,-1
 400 100 l 1,23,-1
 400 200 l 1,20,-1
400 400 m 1,24,-1
 500 400 l 1,25,-1
 500 300 l 1,26,-1
 400 300 l 1,27,-1
 400 400 l 1,24,-1
EndSplineSet
EndChar

StartChar: zeta
Encoding: 950 950 227
Width: 600
GlyphClass: 1
Flags: W
LayerCount: 2
Fore
SplineSet
100 600 m 1,0,-1
 500 600 l 1,1,-1
 500 500 l 1,2,-1
 400 500 l 1,3,-1
 400 400 l 1,4,-1
 300 400 l 1,5,-1
 300 500 l 1,6,-1
 100 500 l 1,7,-1
 100 600 l 1,0,-1
100 300 m 1,8,-1
 200 300 l 1,9,-1
 200 100 l 1,10,-1
 100 100 l 1,11,-1
 100 300 l 1,8,-1
200 100 m 1,12,-1
 400 100 l 1,13,-1
 400 0 l 1,14,-1
 200 0 l 1,15,-1
 200 100 l 1,12,-1
200 400 m 1,16,-1
 300 400 l 1,17,-1
 300 300 l 1,18,-1
 200 300 l 1,19,-1
 200 400 l 1,16,-1
400 0 m 1,20,-1
 500 0 l 1,21,-1
 500 -100 l 1,22,-1
 400 -100 l 1,23,-1
 400 0 l 1,20,-1
EndSplineSet
EndChar

StartChar: eta
Encoding: 951 951 228
Width: 600
GlyphClass: 1
Flags: W
LayerCount: 2
Fore
SplineSet
0 500 m 1,0,-1
 200 500 l 1,1,-1
 200 400 l 1,2,-1
 300 400 l 1,3,-1
 300 300 l 1,4,-1
 200 300 l 1,5,-1
 200 0 l 1,6,-1
 100 0 l 1,7,-1
 100 400 l 1,8,-1
 0 400 l 1,9,-1
 0 500 l 1,0,-1
300 500 m 1,10,-1
 400 500 l 1,11,-1
 400 400 l 1,12,-1
 300 400 l 1,13,-1
 300 500 l 1,10,-1
400 400 m 1,14,-1
 500 400 l 1,15,-1
 500 -100 l 1,16,-1
 400 -100 l 1,17,-1
 400 400 l 1,14,-1
EndSplineSet
EndChar

StartChar: theta
Encoding: 952 952 229
Width: 600
GlyphClass: 1
Flags: W
LayerCount: 2
Fore
SplineSet
200 100 m 1,0,-1
 400 100 l 1,1,-1
 400 0 l 1,2,-1
 200 0 l 1,3,-1
 200 100 l 1,0,-1
100 600 m 1,4,-1
 200 600 l 1,5,-1
 200 400 l 1,6,-1
 400 400 l 1,7,-1
 400 600 l 1,8,-1
 500 600 l 1,9,-1
 500 100 l 1,10,-1
 400 100 l 1,11,-1
 400 300 l 1,12,-1
 200 300 l 1,13,-1
 200 100 l 1,14,-1
 100 100 l 1,15,-1
 100 600 l 1,4,-1
200 700 m 1,16,-1
 400 700 l 1,17,-1
 400 600 l 1,18,-1
 200 600 l 1,19,-1
 200 700 l 1,16,-1
EndSplineSet
EndChar

StartChar: iota
Encoding: 953 953 230
Width: 600
GlyphClass: 1
Flags: W
LayerCount: 2
Fore
SplineSet
300 500 m 1,0,-1
 300 100 l 1,1,-1
 200 100 l 1,2,-1
 200 500 l 1,3,-1
 300 500 l 1,0,-1
300 100 m 1,4,-1
 400 100 l 1,5,-1
 400 0 l 1,6,-1
 300 0 l 1,7,-1
 300 100 l 1,4,-1
EndSplineSet
EndChar

StartChar: kappa
Encoding: 954 954 231
Width: 600
GlyphClass: 1
Flags: W
LayerCount: 2
Fore
SplineSet
100 500 m 1,0,-1
 100 200 l 1,1,-1
 200 200 l 1,2,-1
 200 100 l 1,3,-1
 100 100 l 1,4,-1
 100 0 l 1,5,-1
 0 0 l 1,6,-1
 0 500 l 1,7,-1
 100 500 l 1,0,-1
200 300 m 1,8,-1
 300 300 l 1,9,-1
 300 200 l 1,10,-1
 200 200 l 1,11,-1
 200 300 l 1,8,-1
300 200 m 1,12,-1
 400 200 l 1,13,-1
 400 100 l 1,14,-1
 300 100 l 1,15,-1
 300 200 l 1,12,-1
300 400 m 1,16,-1
 400 400 l 1,17,-1
 400 300 l 1,18,-1
 300 300 l 1,19,-1
 300 400 l 1,16,-1
400 100 m 1,20,-1
 500 100 l 1,21,-1
 500 0 l 1,22,-1
 400 0 l 1,23,-1
 400 100 l 1,20,-1
400 500 m 1,24,-1
 500 500 l 1,25,-1
 500 400 l 1,26,-1
 400 400 l 1,27,-1
 400 500 l 1,24,-1
EndSplineSet
EndChar

StartChar: lambda
Encoding: 955 955 232
Width: 600
GlyphClass: 1
Flags: W
LayerCount: 2
Fore
SplineSet
200 300 m 1,0,-1
 300 300 l 1,1,-1
 300 400 l 1,2,-1
 400 400 l 1,3,-1
 400 200 l 1,4,-1
 200 200 l 1,5,-1
 200 300 l 1,0,-1
0 100 m 1,6,-1
 100 100 l 1,7,-1
 100 0 l 1,8,-1
 0 0 l 1,9,-1
 0 100 l 1,6,-1
0 600 m 1,10,-1
 200 600 l 1,11,-1
 200 500 l 1,12,-1
 0 500 l 1,13,-1
 0 600 l 1,10,-1
100 200 m 1,14,-1
 200 200 l 1,15,-1
 200 100 l 1,16,-1
 100 100 l 1,17,-1
 100 200 l 1,14,-1
200 500 m 1,18,-1
 300 500 l 1,19,-1
 300 400 l 1,20,-1
 200 400 l 1,21,-1
 200 500 l 1,18,-1
400 200 m 1,22,-1
 500 200 l 1,23,-1
 500 0 l 1,24,-1
 400 0 l 1,25,-1
 400 200 l 1,22,-1
EndSplineSet
EndChar

StartChar: nu
Encoding: 957 957 233
Width: 600
GlyphClass: 1
Flags: W
LayerCount: 2
Fore
SplineSet
200 200 m 1,0,-1
 300 200 l 1,1,-1
 300 100 l 1,2,-1
 400 100 l 1,3,-1
 400 0 l 1,4,-1
 200 0 l 1,5,-1
 200 200 l 1,0,-1
100 400 m 1,6,-1
 200 400 l 1,7,-1
 200 200 l 1,8,-1
 100 200 l 1,9,-1
 100 400 l 1,6,-1
400 400 m 1,10,-1
 500 400 l 1,11,-1
 500 100 l 1,12,-1
 400 100 l 1,13,-1
 400 400 l 1,10,-1
EndSplineSet
EndChar

StartChar: xi
Encoding: 958 958 234
Width: 600
GlyphClass: 1
Flags: W
LayerCount: 2
Fore
SplineSet
100 600 m 1,0,-1
 500 600 l 1,1,-1
 500 500 l 1,2,-1
 300 500 l 1,3,-1
 300 400 l 1,4,-1
 200 400 l 1,5,-1
 200 500 l 1,6,-1
 100 500 l 1,7,-1
 100 600 l 1,0,-1
200 300 m 1,8,-1
 300 300 l 1,9,-1
 300 100 l 1,10,-1
 200 100 l 1,11,-1
 200 300 l 1,8,-1
300 100 m 1,12,-1
 500 100 l 1,13,-1
 500 -100 l 1,14,-1
 400 -100 l 1,15,-1
 400 0 l 1,16,-1
 300 0 l 1,17,-1
 300 100 l 1,12,-1
300 400 m 1,18,-1
 400 400 l 1,19,-1
 400 300 l 1,20,-1
 300 300 l 1,21,-1
 300 400 l 1,18,-1
EndSplineSet
EndChar

StartChar: omicron
Encoding: 959 959 235
Width: 600
GlyphClass: 1
Flags: W
LayerCount: 2
Fore
SplineSet
100 100 m 1,0,-1
 400 100 l 1,1,-1
 400 0 l 1,2,-1
 100 0 l 1,3,-1
 100 100 l 1,0,-1
0 400 m 1,4,-1
 100 400 l 1,5,-1
 100 100 l 1,6,-1
 0 100 l 1,7,-1
 0 400 l 1,4,-1
100 500 m 1,8,-1
 400 500 l 1,9,-1
 400 400 l 1,10,-1
 100 400 l 1,11,-1
 100 500 l 1,8,-1
400 400 m 1,12,-1
 500 400 l 1,13,-1
 500 100 l 1,14,-1
 400 100 l 1,15,-1
 400 400 l 1,12,-1
EndSplineSet
EndChar

StartChar: pi
Encoding: 960 960 236
Width: 600
GlyphClass: 1
Flags: W
LayerCount: 2
Fore
SplineSet
0 500 m 1,0,-1
 500 500 l 1,1,-1
 500 400 l 1,2,-1
 400 400 l 1,3,-1
 400 100 l 1,4,-1
 300 100 l 1,5,-1
 300 400 l 1,6,-1
 200 400 l 1,7,-1
 200 0 l 1,8,-1
 100 0 l 1,9,-1
 100 400 l 1,10,-1
 0 400 l 1,11,-1
 0 500 l 1,0,-1
400 100 m 1,12,-1
 500 100 l 1,13,-1
 500 0 l 1,14,-1
 400 0 l 1,15,-1
 400 100 l 1,12,-1
EndSplineSet
EndChar

StartChar: rho
Encoding: 961 961 237
Width: 600
GlyphClass: 1
Flags: W
LayerCount: 2
Fore
SplineSet
0 400 m 1,0,-1
 100 400 l 1,1,-1
 100 200 l 1,2,-1
 200 200 l 1,3,-1
 200 100 l 1,4,-1
 100 100 l 1,5,-1
 100 -100 l 1,6,-1
 0 -100 l 1,7,-1
 0 400 l 1,0,-1
100 500 m 1,8,-1
 400 500 l 1,9,-1
 400 400 l 1,10,-1
 100 400 l 1,11,-1
 100 500 l 1,8,-1
200 100 m 1,12,-1
 400 100 l 1,13,-1
 400 0 l 1,14,-1
 200 0 l 1,15,-1
 200 100 l 1,12,-1
400 400 m 1,16,-1
 500 400 l 1,17,-1
 500 100 l 1,18,-1
 400 100 l 1,19,-1
 400 400 l 1,16,-1
EndSplineSet
EndChar

StartChar: sigma
Encoding: 963 963 238
Width: 600
GlyphClass: 1
Flags: W
LayerCount: 2
Fore
SplineSet
100 400 m 1,0,-1
 100 100 l 1,1,-1
 0 100 l 1,2,-1
 0 400 l 1,3,-1
 100 400 l 1,0,-1
100 100 m 1,4,-1
 400 100 l 1,5,-1
 400 0 l 1,6,-1
 100 0 l 1,7,-1
 100 100 l 1,4,-1
100 500 m 1,8,-1
 600 500 l 1,9,-1
 600 400 l 1,10,-1
 400 400 l 1,11,-1
 400 300 l 1,12,-1
 300 300 l 1,13,-1
 300 400 l 1,14,-1
 100 400 l 1,15,-1
 100 500 l 1,8,-1
400 300 m 1,16,-1
 500 300 l 1,17,-1
 500 100 l 1,18,-1
 400 100 l 1,19,-1
 400 300 l 1,16,-1
EndSplineSet
EndChar

StartChar: tau
Encoding: 964 964 239
Width: 600
GlyphClass: 1
Flags: W
LayerCount: 2
Fore
SplineSet
0 500 m 1,0,-1
 500 500 l 1,1,-1
 500 400 l 1,2,-1
 300 400 l 1,3,-1
 300 100 l 1,4,-1
 200 100 l 1,5,-1
 200 400 l 1,6,-1
 0 400 l 1,7,-1
 0 500 l 1,0,-1
300 100 m 1,8,-1
 400 100 l 1,9,-1
 400 0 l 1,10,-1
 300 0 l 1,11,-1
 300 100 l 1,8,-1
EndSplineSet
EndChar

StartChar: upsilon
Encoding: 965 965 240
Width: 600
GlyphClass: 1
Flags: W
LayerCount: 2
Fore
SplineSet
100 500 m 1,0,-1
 100 200 l 1,1,-1
 200 200 l 1,2,-1
 200 100 l 1,3,-1
 100 100 l 1,4,-1
 100 0 l 1,5,-1
 0 0 l 1,6,-1
 0 500 l 1,7,-1
 100 500 l 1,0,-1
200 100 m 1,8,-1
 400 100 l 1,9,-1
 400 0 l 1,10,-1
 200 0 l 1,11,-1
 200 100 l 1,8,-1
400 500 m 1,12,-1
 500 500 l 1,13,-1
 500 100 l 1,14,-1
 400 100 l 1,15,-1
 400 500 l 1,12,-1
EndSplineSet
EndChar

StartChar: phi
Encoding: 966 966 241
Width: 600
GlyphClass: 1
Flags: W
LayerCount: 2
Fore
SplineSet
100 400 m 1,0,-1
 100 100 l 1,1,-1
 0 100 l 1,2,-1
 0 400 l 1,3,-1
 100 400 l 1,0,-1
100 100 m 1,4,-1
 200 100 l 1,5,-1
 200 400 l 1,6,-1
 300 400 l 1,7,-1
 300 100 l 1,8,-1
 400 100 l 1,9,-1
 400 0 l 1,10,-1
 300 0 l 1,11,-1
 300 -100 l 1,12,-1
 200 -100 l 1,13,-1
 200 0 l 1,14,-1
 100 0 l 1,15,-1
 100 100 l 1,4,-1
300 500 m 1,16,-1
 400 500 l 1,17,-1
 400 400 l 1,18,-1
 300 400 l 1,19,-1
 300 500 l 1,16,-1
400 400 m 1,20,-1
 500 400 l 1,21,-1
 500 100 l 1,22,-1
 400 100 l 1,23,-1
 400 400 l 1,20,-1
EndSplineSet
EndChar

StartChar: chi
Encoding: 967 967 242
Width: 600
GlyphClass: 1
Flags: W
LayerCount: 2
Fore
SplineSet
0 500 m 1,0,-1
 200 500 l 1,1,-1
 200 300 l 1,2,-1
 100 300 l 1,3,-1
 100 400 l 1,4,-1
 0 400 l 1,5,-1
 0 500 l 1,0,-1
0 100 m 1,6,-1
 100 100 l 1,7,-1
 100 0 l 1,8,-1
 0 0 l 1,9,-1
 0 100 l 1,6,-1
100 200 m 1,10,-1
 200 200 l 1,11,-1
 200 100 l 1,12,-1
 100 100 l 1,13,-1
 100 200 l 1,10,-1
200 300 m 1,14,-1
 300 300 l 1,15,-1
 300 200 l 1,16,-1
 200 200 l 1,17,-1
 200 300 l 1,14,-1
300 200 m 1,18,-1
 400 200 l 1,19,-1
 400 100 l 1,20,-1
 500 100 l 1,21,-1
 500 0 l 1,22,-1
 300 0 l 1,23,-1
 300 200 l 1,18,-1
300 400 m 1,24,-1
 400 400 l 1,25,-1
 400 300 l 1,26,-1
 300 300 l 1,27,-1
 300 400 l 1,24,-1
400 500 m 1,28,-1
 500 500 l 1,29,-1
 500 400 l 1,30,-1
 400 400 l 1,31,-1
 400 500 l 1,28,-1
EndSplineSet
EndChar

StartChar: psi
Encoding: 968 968 243
Width: 600
GlyphClass: 1
Flags: W
LayerCount: 2
Fore
SplineSet
300 500 m 1,0,-1
 300 100 l 1,1,-1
 400 100 l 1,2,-1
 400 0 l 1,3,-1
 300 0 l 1,4,-1
 300 -100 l 1,5,-1
 200 -100 l 1,6,-1
 200 0 l 1,7,-1
 0 0 l 1,8,-1
 0 400 l 1,9,-1
 100 400 l 1,10,-1
 100 100 l 1,11,-1
 200 100 l 1,12,-1
 200 500 l 1,13,-1
 300 500 l 1,0,-1
400 400 m 1,14,-1
 500 400 l 1,15,-1
 500 100 l 1,16,-1
 400 100 l 1,17,-1
 400 400 l 1,14,-1
EndSplineSet
EndChar

StartChar: omega
Encoding: 969 969 244
Width: 600
GlyphClass: 1
Flags: W
LayerCount: 2
Fore
SplineSet
100 400 m 1,0,-1
 100 100 l 1,1,-1
 0 100 l 1,2,-1
 0 400 l 1,3,-1
 100 400 l 1,0,-1
100 100 m 1,4,-1
 200 100 l 1,5,-1
 200 0 l 1,6,-1
 100 0 l 1,7,-1
 100 100 l 1,4,-1
100 500 m 1,8,-1
 200 500 l 1,9,-1
 200 400 l 1,10,-1
 100 400 l 1,11,-1
 100 500 l 1,8,-1
200 300 m 1,12,-1
 300 300 l 1,13,-1
 300 100 l 1,14,-1
 200 100 l 1,15,-1
 200 300 l 1,12,-1
300 100 m 1,16,-1
 400 100 l 1,17,-1
 400 0 l 1,18,-1
 300 0 l 1,19,-1
 300 100 l 1,16,-1
300 500 m 1,20,-1
 400 500 l 1,21,-1
 400 400 l 1,22,-1
 300 400 l 1,23,-1
 300 500 l 1,20,-1
400 400 m 1,24,-1
 500 400 l 1,25,-1
 500 100 l 1,26,-1
 400 100 l 1,27,-1
 400 400 l 1,24,-1
EndSplineSet
EndChar

StartChar: uni05D0
Encoding: 1488 1488 245
Width: 600
GlyphClass: 1
Flags: W
LayerCount: 2
Fore
SplineSet
0 500 m 1,0,-1
 100 500 l 1,1,-1
 100 400 l 1,2,-1
 0 400 l 1,3,-1
 0 500 l 1,0,-1
0 200 m 1,4,-1
 100 200 l 1,5,-1
 100 0 l 1,6,-1
 0 0 l 1,7,-1
 0 200 l 1,4,-1
100 400 m 1,8,-1
 200 400 l 1,9,-1
 200 300 l 1,10,-1
 400 300 l 1,11,-1
 400 100 l 1,12,-1
 300 100 l 1,13,-1
 300 200 l 1,14,-1
 100 200 l 1,15,-1
 100 400 l 1,8,-1
400 100 m 1,16,-1
 500 100 l 1,17,-1
 500 0 l 1,18,-1
 400 0 l 1,19,-1
 400 100 l 1,16,-1
400 500 m 1,20,-1
 500 500 l 1,21,-1
 500 300 l 1,22,-1
 400 300 l 1,23,-1
 400 500 l 1,20,-1
EndSplineSet
EndChar

StartChar: uni05D1
Encoding: 1489 1489 246
Width: 600
GlyphClass: 1
Flags: W
LayerCount: 2
Fore
SplineSet
0 100 m 1,0,-1
 300 100 l 1,1,-1
 300 400 l 1,2,-1
 400 400 l 1,3,-1
 400 100 l 1,4,-1
 500 100 l 1,5,-1
 500 0 l 1,6,-1
 0 0 l 1,7,-1
 0 100 l 1,0,-1
0 500 m 1,8,-1
 300 500 l 1,9,-1
 300 400 l 1,10,-1
 0 400 l 1,11,-1
 0 500 l 1,8,-1
EndSplineSet
EndChar

StartChar: uni05D2
Encoding: 1490 1490 247
Width: 600
GlyphClass: 1
Flags: W
LayerCount: 2
Fore
SplineSet
400 100 m 1,0,-1
 500 100 l 1,1,-1
 500 0 l 1,2,-1
 400 0 l 1,3,-1
 400 100 l 1,0,-1
100 200 m 1,4,-1
 200 200 l 1,5,-1
 200 0 l 1,6,-1
 100 0 l 1,7,-1
 100 200 l 1,4,-1
100 500 m 1,8,-1
 300 500 l 1,9,-1
 300 400 l 1,10,-1
 100 400 l 1,11,-1
 100 500 l 1,8,-1
200 300 m 1,12,-1
 300 300 l 1,13,-1
 300 400 l 1,14,-1
 400 400 l 1,15,-1
 400 100 l 1,16,-1
 300 100 l 1,17,-1
 300 200 l 1,18,-1
 200 200 l 1,19,-1
 200 300 l 1,12,-1
EndSplineSet
EndChar

StartChar: uni05D3
Encoding: 1491 1491 248
Width: 600
GlyphClass: 1
Flags: W
LayerCount: 2
Fore
SplineSet
0 500 m 1,0,-1
 500 500 l 1,1,-1
 500 400 l 1,2,-1
 400 400 l 1,3,-1
 400 0 l 1,4,-1
 300 0 l 1,5,-1
 300 400 l 1,6,-1
 0 400 l 1,7,-1
 0 500 l 1,0,-1
EndSplineSet
EndChar

StartChar: uni05D4
Encoding: 1492 1492 249
Width: 600
GlyphClass: 1
Flags: W
LayerCount: 2
Fore
SplineSet
0 500 m 1,0,-1
 400 500 l 1,1,-1
 400 400 l 1,2,-1
 0 400 l 1,3,-1
 0 500 l 1,0,-1
0 300 m 1,4,-1
 100 300 l 1,5,-1
 100 0 l 1,6,-1
 0 0 l 1,7,-1
 0 300 l 1,4,-1
400 400 m 1,8,-1
 500 400 l 1,9,-1
 500 0 l 1,10,-1
 400 0 l 1,11,-1
 400 400 l 1,8,-1
EndSplineSet
EndChar

StartChar: uni05D5
Encoding: 1493 1493 250
Width: 600
GlyphClass: 1
Flags: W
LayerCount: 2
Fore
SplineSet
300 500 m 1,0,-1
 300 0 l 1,1,-1
 200 0 l 1,2,-1
 200 500 l 1,3,-1
 300 500 l 1,0,-1
EndSplineSet
EndChar

StartChar: uni05D6
Encoding: 1494 1494 251
Width: 600
GlyphClass: 1
Flags: W
LayerCount: 2
Fore
SplineSet
100 500 m 1,0,-1
 500 500 l 1,1,-1
 500 400 l 1,2,-1
 400 400 l 1,3,-1
 400 300 l 1,4,-1
 300 300 l 1,5,-1
 300 400 l 1,6,-1
 100 400 l 1,7,-1
 100 500 l 1,0,-1
200 300 m 1,8,-1
 300 300 l 1,9,-1
 300 0 l 1,10,-1
 200 0 l 1,11,-1
 200 300 l 1,8,-1
EndSplineSet
EndChar

StartChar: uni05D7
Encoding: 1495 1495 252
Width: 600
GlyphClass: 1
Flags: W
LayerCount: 2
Fore
SplineSet
0 500 m 1,0,-1
 400 500 l 1,1,-1
 400 400 l 1,2,-1
 100 400 l 1,3,-1
 100 0 l 1,4,-1
 0 0 l 1,5,-1
 0 500 l 1,0,-1
400 400 m 1,6,-1
 500 400 l 1,7,-1
 500 0 l 1,8,-1
 400 0 l 1,9,-1
 400 400 l 1,6,-1
EndSplineSet
EndChar

StartChar: uni05D8
Encoding: 1496 1496 253
Width: 600
GlyphClass: 1
Flags: W
LayerCount: 2
Fore
SplineSet
100 500 m 1,0,-1
 100 100 l 1,1,-1
 0 100 l 1,2,-1
 0 500 l 1,3,-1
 100 500 l 1,0,-1
100 100 m 1,4,-1
 400 100 l 1,5,-1
 400 0 l 1,6,-1
 100 0 l 1,7,-1
 100 100 l 1,4,-1
200 400 m 1,8,-1
 300 400 l 1,9,-1
 300 300 l 1,10,-1
 200 300 l 1,11,-1
 200 400 l 1,8,-1
300 500 m 1,12,-1
 400 500 l 1,13,-1
 400 400 l 1,14,-1
 300 400 l 1,15,-1
 300 500 l 1,12,-1
400 400 m 1,16,-1
 500 400 l 1,17,-1
 500 100 l 1,18,-1
 400 100 l 1,19,-1
 400 400 l 1,16,-1
EndSplineSet
EndChar

StartChar: uni05D9
Encoding: 1497 1497 254
Width: 600
GlyphClass: 1
Flags: W
LayerCount: 2
Fore
SplineSet
300 500 m 1,0,-1
 300 200 l 1,1,-1
 200 200 l 1,2,-1
 200 500 l 1,3,-1
 300 500 l 1,0,-1
EndSplineSet
EndChar

StartChar: uni05DA
Encoding: 1498 1498 255
Width: 600
GlyphClass: 1
Flags: W
LayerCount: 2
Fore
SplineSet
100 500 m 1,0,-1
 400 500 l 1,1,-1
 400 400 l 1,2,-1
 100 400 l 1,3,-1
 100 500 l 1,0,-1
400 400 m 1,4,-1
 500 400 l 1,5,-1
 500 -100 l 1,6,-1
 400 -100 l 1,7,-1
 400 400 l 1,4,-1
EndSplineSet
EndChar

StartChar: uni05DB
Encoding: 1499 1499 256
Width: 600
GlyphClass: 1
Flags: W
LayerCount: 2
Fore
SplineSet
100 500 m 1,0,-1
 400 500 l 1,1,-1
 400 400 l 1,2,-1
 100 400 l 1,3,-1
 100 500 l 1,0,-1
100 100 m 1,4,-1
 400 100 l 1,5,-1
 400 0 l 1,6,-1
 100 0 l 1,7,-1
 100 100 l 1,4,-1
400 400 m 1,8,-1
 500 400 l 1,9,-1
 500 100 l 1,10,-1
 400 100 l 1,11,-1
 400 400 l 1,8,-1
EndSplineSet
EndChar

StartChar: uni05DC
Encoding: 1500 1500 257
Width: 600
GlyphClass: 1
Flags: W
LayerCount: 2
Fore
SplineSet
200 700 m 1,0,-1
 200 500 l 1,1,-1
 500 500 l 1,2,-1
 500 300 l 1,3,-1
 400 300 l 1,4,-1
 400 400 l 1,5,-1
 100 400 l 1,6,-1
 100 700 l 1,7,-1
 200 700 l 1,0,-1
200 200 m 1,8,-1
 300 200 l 1,9,-1
 300 0 l 1,10,-1
 200 0 l 1,11,-1
 200 200 l 1,8,-1
300 300 m 1,12,-1
 400 300 l 1,13,-1
 400 200 l 1,14,-1
 300 200 l 1,15,-1
 300 300 l 1,12,-1
EndSplineSet
EndChar

StartChar: uni05DD
Encoding: 1501 1501 258
Width: 600
GlyphClass: 1
Flags: W
LayerCount: 2
Fore
SplineSet
0 500 m 1,0,-1
 100 500 l 1,1,-1
 100 400 l 1,2,-1
 200 400 l 1,3,-1
 200 300 l 1,4,-1
 100 300 l 1,5,-1
 100 100 l 1,6,-1
 400 100 l 1,7,-1
 400 400 l 1,8,-1
 500 400 l 1,9,-1
 500 0 l 1,10,-1
 0 0 l 1,11,-1
 0 500 l 1,0,-1
200 500 m 1,12,-1
 400 500 l 1,13,-1
 400 400 l 1,14,-1
 200 400 l 1,15,-1
 200 500 l 1,12,-1
EndSplineSet
EndChar

StartChar: uni05DE
Encoding: 1502 1502 259
Width: 600
GlyphClass: 1
Flags: W
LayerCount: 2
Fore
SplineSet
0 500 m 1,0,-1
 100 500 l 1,1,-1
 100 400 l 1,2,-1
 0 400 l 1,3,-1
 0 500 l 1,0,-1
0 200 m 1,4,-1
 100 200 l 1,5,-1
 100 0 l 1,6,-1
 0 0 l 1,7,-1
 0 200 l 1,4,-1
100 400 m 1,8,-1
 200 400 l 1,9,-1
 200 200 l 1,10,-1
 100 200 l 1,11,-1
 100 400 l 1,8,-1
200 500 m 1,12,-1
 400 500 l 1,13,-1
 400 400 l 1,14,-1
 200 400 l 1,15,-1
 200 500 l 1,12,-1
300 100 m 1,16,-1
 400 100 l 1,17,-1
 400 400 l 1,18,-1
 500 400 l 1,19,-1
 500 0 l 1,20,-1
 300 0 l 1,21,-1
 300 100 l 1,16,-1
EndSplineSet
EndChar

StartChar: uni05DF
Encoding: 1503 1503 260
Width: 600
GlyphClass: 1
Flags: W
LayerCount: 2
Fore
SplineSet
300 500 m 1,0,-1
 300 -100 l 1,1,-1
 200 -100 l 1,2,-1
 200 500 l 1,3,-1
 300 500 l 1,0,-1
EndSplineSet
EndChar

StartChar: uni05E0
Encoding: 1504 1504 261
Width: 600
GlyphClass: 1
Flags: W
LayerCount: 2
Fore
SplineSet
100 500 m 1,0,-1
 300 500 l 1,1,-1
 300 400 l 1,2,-1
 100 400 l 1,3,-1
 100 500 l 1,0,-1
100 100 m 1,4,-1
 300 100 l 1,5,-1
 300 400 l 1,6,-1
 400 400 l 1,7,-1
 400 0 l 1,8,-1
 100 0 l 1,9,-1
 100 100 l 1,4,-1
EndSplineSet
EndChar

StartChar: uni05E1
Encoding: 1505 1505 262
Width: 600
GlyphClass: 1
Flags: W
LayerCount: 2
Fore
SplineSet
100 400 m 1,0,-1
 100 100 l 1,1,-1
 0 100 l 1,2,-1
 0 400 l 1,3,-1
 100 400 l 1,0,-1
100 100 m 1,4,-1
 400 100 l 1,5,-1
 400 0 l 1,6,-1
 100 0 l 1,7,-1
 100 100 l 1,4,-1
100 500 m 1,8,-1
 400 500 l 1,9,-1
 400 400 l 1,10,-1
 100 400 l 1,11,-1
 100 500 l 1,8,-1
400 400 m 1,12,-1
 500 400 l 1,13,-1
 500 100 l 1,14,-1
 400 100 l 1,15,-1
 400 400 l 1,12,-1
EndSplineSet
EndChar

StartChar: uni05E2
Encoding: 1506 1506 263
Width: 600
GlyphClass: 1
Flags: W
LayerCount: 2
Fore
SplineSet
200 500 m 1,0,-1
 200 200 l 1,1,-1
 100 200 l 1,2,-1
 100 500 l 1,3,-1
 200 500 l 1,0,-1
100 100 m 1,4,-1
 200 100 l 1,5,-1
 200 200 l 1,6,-1
 300 200 l 1,7,-1
 300 100 l 1,8,-1
 400 100 l 1,9,-1
 400 0 l 1,10,-1
 100 0 l 1,11,-1
 100 100 l 1,4,-1
400 500 m 1,12,-1
 500 500 l 1,13,-1
 500 100 l 1,14,-1
 400 100 l 1,15,-1
 400 500 l 1,12,-1
EndSplineSet
EndChar

StartChar: uni05E3
Encoding: 1507 1507 264
Width: 600
GlyphClass: 1
Flags: W
LayerCount: 2
Fore
SplineSet
200 200 m 1,0,-1
 300 200 l 1,1,-1
 300 100 l 1,2,-1
 200 100 l 1,3,-1
 200 200 l 1,0,-1
100 500 m 1,4,-1
 400 500 l 1,5,-1
 400 400 l 1,6,-1
 200 400 l 1,7,-1
 200 200 l 1,8,-1
 100 200 l 1,9,-1
 100 500 l 1,4,-1
400 400 m 1,10,-1
 500 400 l 1,11,-1
 500 -100 l 1,12,-1
 400 -100 l 1,13,-1
 400 400 l 1,10,-1
EndSplineSet
EndChar

StartChar: uni05E4
Encoding: 1508 1508 265
Width: 600
GlyphClass: 1
Flags: W
LayerCount: 2
Fore
SplineSet
200 300 m 1,0,-1
 300 300 l 1,1,-1
 300 200 l 1,2,-1
 200 200 l 1,3,-1
 200 300 l 1,0,-1
100 100 m 1,4,-1
 400 100 l 1,5,-1
 400 0 l 1,6,-1
 100 0 l 1,7,-1
 100 100 l 1,4,-1
100 500 m 1,8,-1
 400 500 l 1,9,-1
 400 400 l 1,10,-1
 200 400 l 1,11,-1
 200 300 l 1,12,-1
 100 300 l 1,13,-1
 100 500 l 1,8,-1
400 400 m 1,14,-1
 500 400 l 1,15,-1
 500 100 l 1,16,-1
 400 100 l 1,17,-1
 400 400 l 1,14,-1
EndSplineSet
EndChar

StartChar: uni05E5
Encoding: 1509 1509 266
Width: 600
GlyphClass: 1
Flags: W
LayerCount: 2
Fore
SplineSet
200 500 m 1,0,-1
 200 300 l 1,1,-1
 100 300 l 1,2,-1
 100 500 l 1,3,-1
 200 500 l 1,0,-1
200 300 m 1,4,-1
 400 300 l 1,5,-1
 400 200 l 1,6,-1
 300 200 l 1,7,-1
 300 0 l 1,8,-1
 200 0 l 1,9,-1
 200 300 l 1,4,-1
400 500 m 1,10,-1
 500 500 l 1,11,-1
 500 300 l 1,12,-1
 400 300 l 1,13,-1
 400 500 l 1,10,-1
EndSplineSet
EndChar

StartChar: uni05E6
Encoding: 1510 1510 267
Width: 600
GlyphClass: 1
Flags: W
LayerCount: 2
Fore
SplineSet
100 100 m 1,0,-1
 300 100 l 1,1,-1
 300 200 l 1,2,-1
 200 200 l 1,3,-1
 200 300 l 1,4,-1
 400 300 l 1,5,-1
 400 100 l 1,6,-1
 500 100 l 1,7,-1
 500 0 l 1,8,-1
 100 0 l 1,9,-1
 100 100 l 1,0,-1
100 500 m 1,10,-1
 200 500 l 1,11,-1
 200 300 l 1,12,-1
 100 300 l 1,13,-1
 100 500 l 1,10,-1
400 500 m 1,14,-1
 500 500 l 1,15,-1
 500 300 l 1,16,-1
 400 300 l 1,17,-1
 400 500 l 1,14,-1
EndSplineSet
EndChar

StartChar: uni05E7
Encoding: 1511 1511 268
Width: 600
GlyphClass: 1
Flags: W
LayerCount: 2
Fore
SplineSet
200 300 m 1,0,-1
 200 -100 l 1,1,-1
 100 -100 l 1,2,-1
 100 300 l 1,3,-1
 200 300 l 1,0,-1
100 500 m 1,4,-1
 500 500 l 1,5,-1
 500 200 l 1,6,-1
 400 200 l 1,7,-1
 400 400 l 1,8,-1
 100 400 l 1,9,-1
 100 500 l 1,4,-1
300 200 m 1,10,-1
 400 200 l 1,11,-1
 400 0 l 1,12,-1
 300 0 l 1,13,-1
 300 200 l 1,10,-1
EndSplineSet
EndChar

StartChar: uni05E8
Encoding: 1512 1512 269
Width: 600
GlyphClass: 1
Flags: W
LayerCount: 2
Fore
SplineSet
0 500 m 1,0,-1
 300 500 l 1,1,-1
 300 400 l 1,2,-1
 0 400 l 1,3,-1
 0 500 l 1,0,-1
300 400 m 1,4,-1
 400 400 l 1,5,-1
 400 300 l 1,6,-1
 300 300 l 1,7,-1
 300 400 l 1,4,-1
400 300 m 1,8,-1
 500 300 l 1,9,-1
 500 0 l 1,10,-1
 400 0 l 1,11,-1
 400 300 l 1,8,-1
EndSplineSet
EndChar

StartChar: uni05E9
Encoding: 1513 1513 270
Width: 600
GlyphClass: 1
Flags: W
LayerCount: 2
Fore
SplineSet
100 500 m 1,0,-1
 100 200 l 1,1,-1
 200 200 l 1,2,-1
 200 100 l 1,3,-1
 400 100 l 1,4,-1
 400 0 l 1,5,-1
 100 0 l 1,6,-1
 100 100 l 1,7,-1
 0 100 l 1,8,-1
 0 500 l 1,9,-1
 100 500 l 1,0,-1
200 500 m 1,10,-1
 300 500 l 1,11,-1
 300 200 l 1,12,-1
 200 200 l 1,13,-1
 200 500 l 1,10,-1
400 500 m 1,14,-1
 500 500 l 1,15,-1
 500 100 l 1,16,-1
 400 100 l 1,17,-1
 400 500 l 1,14,-1
EndSplineSet
EndChar

StartChar: uni05EA
Encoding: 1514 1514 271
Width: 600
GlyphClass: 1
Flags: W
LayerCount: 2
Fore
SplineSet
0 100 m 1,0,-1
 100 100 l 1,1,-1
 100 0 l 1,2,-1
 0 0 l 1,3,-1
 0 100 l 1,0,-1
0 500 m 1,4,-1
 400 500 l 1,5,-1
 400 400 l 1,6,-1
 200 400 l 1,7,-1
 200 100 l 1,8,-1
 100 100 l 1,9,-1
 100 400 l 1,10,-1
 0 400 l 1,11,-1
 0 500 l 1,4,-1
400 400 m 1,12,-1
 500 400 l 1,13,-1
 500 0 l 1,14,-1
 400 0 l 1,15,-1
 400 400 l 1,12,-1
EndSplineSet
EndChar

StartChar: uni3042
Encoding: 12354 12354 272
Width: 600
GlyphClass: 1
Flags: W
LayerCount: 2
Fore
SplineSet
200 700 m 1,0,-1
 300 700 l 1,1,-1
 300 600 l 1,2,-1
 400 600 l 1,3,-1
 400 500 l 1,4,-1
 300 500 l 1,5,-1
 300 400 l 1,6,-1
 400 400 l 1,7,-1
 400 200 l 1,8,-1
 300 200 l 1,9,-1
 300 100 l 1,10,-1
 200 100 l 1,11,-1
 200 300 l 1,12,-1
 100 300 l 1,13,-1
 100 400 l 1,14,-1
 200 400 l 1,15,-1
 200 500 l 1,16,-1
 100 500 l 1,17,-1
 100 600 l 1,18,-1
 200 600 l 1,19,-1
 200 700 l 1,0,-1
0 300 m 1,20,-1
 100 300 l 1,21,-1
 100 100 l 1,22,-1
 0 100 l 1,23,-1
 0 300 l 1,20,-1
100 100 m 1,24,-1
 200 100 l 1,25,-1
 200 0 l 1,26,-1
 100 0 l 1,27,-1
 100 100 l 1,24,-1
400 200 m 1,28,-1
 500 200 l 1,29,-1
 500 0 l 1,30,-1
 400 0 l 1,31,-1
 400 200 l 1,28,-1
400 500 m 1,32,-1
 500 500 l 1,33,-1
 500 400 l 1,34,-1
 400 400 l 1,35,-1
 400 500 l 1,32,-1
EndSplineSet
EndChar

StartChar: uni3041
Encoding: 12353 12353 273
Width: 600
GlyphClass: 1
Flags: W
LayerCount: 2
Fore
SplineSet
200 600 m 1,0,-1
 300 600 l 1,1,-1
 300 500 l 1,2,-1
 400 500 l 1,3,-1
 400 400 l 1,4,-1
 300 400 l 1,5,-1
 300 300 l 1,6,-1
 400 300 l 1,7,-1
 400 100 l 1,8,-1
 200 100 l 1,9,-1
 200 200 l 1,10,-1
 100 200 l 1,11,-1
 100 300 l 1,12,-1
 200 300 l 1,13,-1
 200 400 l 1,14,-1
 100 400 l 1,15,-1
 100 500 l 1,16,-1
 200 500 l 1,17,-1
 200 600 l 1,0,-1
0 200 m 1,18,-1
 100 200 l 1,19,-1
 100 100 l 1,20,-1
 0 100 l 1,21,-1
 0 200 l 1,18,-1
100 100 m 1,22,-1
 200 100 l 1,23,-1
 200 0 l 1,24,-1
 100 0 l 1,25,-1
 100 100 l 1,22,-1
400 100 m 1,26,-1
 500 100 l 1,27,-1
 500 0 l 1,28,-1
 400 0 l 1,29,-1
 400 100 l 1,26,-1
400 400 m 1,30,-1
 500 400 l 1,31,-1
 500 300 l 1,32,-1
 400 300 l 1,33,-1
 400 400 l 1,30,-1
EndSplineSet
EndChar

StartChar: uni3044
Encoding: 12356 12356 274
Width: 600
GlyphClass: 1
Flags: W
LayerCount: 2
Fore
SplineSet
0 600 m 1,0,-1
 100 600 l 1,1,-1
 100 100 l 1,2,-1
 0 100 l 1,3,-1
 0 600 l 1,0,-1
100 100 m 1,4,-1
 200 100 l 1,5,-1
 200 0 l 1,6,-1
 100 0 l 1,7,-1
 100 100 l 1,4,-1
200 200 m 1,8,-1
 300 200 l 1,9,-1
 300 100 l 1,10,-1
 200 100 l 1,11,-1
 200 200 l 1,8,-1
300 600 m 1,12,-1
 400 600 l 1,13,-1
 400 500 l 1,14,-1
 300 500 l 1,15,-1
 300 600 l 1,12,-1
400 500 m 1,16,-1
 500 500 l 1,17,-1
 500 200 l 1,18,-1
 400 200 l 1,19,-1
 400 500 l 1,16,-1
EndSplineSet
EndChar

StartChar: uni3043
Encoding: 12355 12355 275
Width: 600
GlyphClass: 1
Flags: W
LayerCount: 2
Fore
SplineSet
100 500 m 1,0,-1
 100 100 l 1,1,-1
 0 100 l 1,2,-1
 0 500 l 1,3,-1
 100 500 l 1,0,-1
100 100 m 1,4,-1
 200 100 l 1,5,-1
 200 0 l 1,6,-1
 100 0 l 1,7,-1
 100 100 l 1,4,-1
200 200 m 1,8,-1
 300 200 l 1,9,-1
 300 100 l 1,10,-1
 200 100 l 1,11,-1
 200 200 l 1,8,-1
300 500 m 1,12,-1
 400 500 l 1,13,-1
 400 400 l 1,14,-1
 300 400 l 1,15,-1
 300 500 l 1,12,-1
400 400 m 1,16,-1
 500 400 l 1,17,-1
 500 200 l 1,18,-1
 400 200 l 1,19,-1
 400 400 l 1,16,-1
EndSplineSet
EndChar

StartChar: uni3046
Encoding: 12358 12358 276
Width: 600
GlyphClass: 1
Flags: W
LayerCount: 2
Fore
SplineSet
100 700 m 1,0,-1
 400 700 l 1,1,-1
 400 600 l 1,2,-1
 100 600 l 1,3,-1
 100 700 l 1,0,-1
0 400 m 1,4,-1
 100 400 l 1,5,-1
 100 300 l 1,6,-1
 0 300 l 1,7,-1
 0 400 l 1,4,-1
100 100 m 1,8,-1
 300 100 l 1,9,-1
 300 0 l 1,10,-1
 100 0 l 1,11,-1
 100 100 l 1,8,-1
100 500 m 1,12,-1
 400 500 l 1,13,-1
 400 400 l 1,14,-1
 100 400 l 1,15,-1
 100 500 l 1,12,-1
300 200 m 1,16,-1
 400 200 l 1,17,-1
 400 100 l 1,18,-1
 300 100 l 1,19,-1
 300 200 l 1,16,-1
400 400 m 1,20,-1
 500 400 l 1,21,-1
 500 200 l 1,22,-1
 400 200 l 1,23,-1
 400 400 l 1,20,-1
EndSplineSet
EndChar

StartChar: uni3045
Encoding: 12357 12357 277
Width: 600
GlyphClass: 1
Flags: W
LayerCount: 2
Fore
SplineSet
200 600 m 1,0,-1
 400 600 l 1,1,-1
 400 500 l 1,2,-1
 200 500 l 1,3,-1
 200 600 l 1,0,-1
100 300 m 1,4,-1
 200 300 l 1,5,-1
 200 200 l 1,6,-1
 100 200 l 1,7,-1
 100 300 l 1,4,-1
200 100 m 1,8,-1
 300 100 l 1,9,-1
 300 0 l 1,10,-1
 200 0 l 1,11,-1
 200 100 l 1,8,-1
200 400 m 1,12,-1
 400 400 l 1,13,-1
 400 300 l 1,14,-1
 200 300 l 1,15,-1
 200 400 l 1,12,-1
300 200 m 1,16,-1
 400 200 l 1,17,-1
 400 100 l 1,18,-1
 300 100 l 1,19,-1
 300 200 l 1,16,-1
400 300 m 1,20,-1
 500 300 l 1,21,-1
 500 200 l 1,22,-1
 400 200 l 1,23,-1
 400 300 l 1,20,-1
EndSplineSet
EndChar

StartChar: uni3048
Encoding: 12360 12360 278
Width: 600
GlyphClass: 1
Flags: W
LayerCount: 2
Fore
SplineSet
100 700 m 1,0,-1
 400 700 l 1,1,-1
 400 600 l 1,2,-1
 100 600 l 1,3,-1
 100 700 l 1,0,-1
0 100 m 1,4,-1
 100 100 l 1,5,-1
 100 0 l 1,6,-1
 0 0 l 1,7,-1
 0 100 l 1,4,-1
0 500 m 1,8,-1
 400 500 l 1,9,-1
 400 300 l 1,10,-1
 300 300 l 1,11,-1
 300 400 l 1,12,-1
 0 400 l 1,13,-1
 0 500 l 1,8,-1
100 200 m 1,14,-1
 200 200 l 1,15,-1
 200 100 l 1,16,-1
 100 100 l 1,17,-1
 100 200 l 1,14,-1
200 300 m 1,18,-1
 300 300 l 1,19,-1
 300 200 l 1,20,-1
 200 200 l 1,21,-1
 200 300 l 1,18,-1
300 200 m 1,22,-1
 400 200 l 1,23,-1
 400 100 l 1,24,-1
 500 100 l 1,25,-1
 500 0 l 1,26,-1
 300 0 l 1,27,-1
 300 200 l 1,22,-1
EndSplineSet
EndChar

StartChar: uni3047
Encoding: 12359 12359 279
Width: 600
GlyphClass: 1
Flags: W
LayerCount: 2
Fore
SplineSet
200 600 m 1,0,-1
 400 600 l 1,1,-1
 400 500 l 1,2,-1
 200 500 l 1,3,-1
 200 600 l 1,0,-1
100 100 m 1,4,-1
 200 100 l 1,5,-1
 200 0 l 1,6,-1
 100 0 l 1,7,-1
 100 100 l 1,4,-1
100 400 m 1,8,-1
 400 400 l 1,9,-1
 400 200 l 1,10,-1
 300 200 l 1,11,-1
 300 300 l 1,12,-1
 100 300 l 1,13,-1
 100 400 l 1,8,-1
200 200 m 1,14,-1
 300 200 l 1,15,-1
 300 100 l 1,16,-1
 200 100 l 1,17,-1
 200 200 l 1,14,-1
300 100 m 1,18,-1
 500 100 l 1,19,-1
 500 0 l 1,20,-1
 300 0 l 1,21,-1
 300 100 l 1,18,-1
EndSplineSet
EndChar

StartChar: uni304A
Encoding: 12362 12362 280
Width: 600
GlyphClass: 1
Flags: W
LayerCount: 2
Fore
SplineSet
0 600 m 1,0,-1
 100 600 l 1,1,-1
 100 700 l 1,2,-1
 200 700 l 1,3,-1
 200 600 l 1,4,-1
 300 600 l 1,5,-1
 300 500 l 1,6,-1
 200 500 l 1,7,-1
 200 400 l 1,8,-1
 400 400 l 1,9,-1
 400 300 l 1,10,-1
 200 300 l 1,11,-1
 200 0 l 1,12,-1
 100 0 l 1,13,-1
 100 100 l 1,14,-1
 0 100 l 1,15,-1
 0 300 l 1,16,-1
 100 300 l 1,17,-1
 100 500 l 1,18,-1
 0 500 l 1,19,-1
 0 600 l 1,0,-1
300 100 m 1,20,-1
 400 100 l 1,21,-1
 400 0 l 1,22,-1
 300 0 l 1,23,-1
 300 100 l 1,20,-1
300 700 m 1,24,-1
 400 700 l 1,25,-1
 400 600 l 1,26,-1
 300 600 l 1,27,-1
 300 700 l 1,24,-1
400 300 m 1,28,-1
 500 300 l 1,29,-1
 500 100 l 1,30,-1
 400 100 l 1,31,-1
 400 300 l 1,28,-1
400 600 m 1,32,-1
 500 600 l 1,33,-1
 500 500 l 1,34,-1
 400 500 l 1,35,-1
 400 600 l 1,32,-1
EndSplineSet
EndChar

StartChar: uni3049
Encoding: 12361 12361 281
Width: 600
GlyphClass: 1
Flags: W
LayerCount: 2
Fore
SplineSet
0 500 m 1,0,-1
 100 500 l 1,1,-1
 100 600 l 1,2,-1
 200 600 l 1,3,-1
 200 500 l 1,4,-1
 300 500 l 1,5,-1
 300 400 l 1,6,-1
 200 400 l 1,7,-1
 200 300 l 1,8,-1
 400 300 l 1,9,-1
 400 200 l 1,10,-1
 200 200 l 1,11,-1
 200 0 l 1,12,-1
 100 0 l 1,13,-1
 100 100 l 1,14,-1
 0 100 l 1,15,-1
 0 200 l 1,16,-1
 100 200 l 1,17,-1
 100 400 l 1,18,-1
 0 400 l 1,19,-1
 0 500 l 1,0,-1
300 100 m 1,20,-1
 400 100 l 1,21,-1
 400 0 l 1,22,-1
 300 0 l 1,23,-1
 300 100 l 1,20,-1
400 200 m 1,24,-1
 500 200 l 1,25,-1
 500 100 l 1,26,-1
 400 100 l 1,27,-1
 400 200 l 1,24,-1
400 500 m 1,28,-1
 500 500 l 1,29,-1
 500 400 l 1,30,-1
 400 400 l 1,31,-1
 400 500 l 1,28,-1
EndSplineSet
EndChar

StartChar: uni304B
Encoding: 12363 12363 282
Width: 600
GlyphClass: 1
Flags: W
LayerCount: 2
Fore
SplineSet
0 200 m 1,0,-1
 100 200 l 1,1,-1
 100 0 l 1,2,-1
 0 0 l 1,3,-1
 0 200 l 1,0,-1
0 500 m 1,4,-1
 100 500 l 1,5,-1
 100 700 l 1,6,-1
 200 700 l 1,7,-1
 200 500 l 1,8,-1
 300 500 l 1,9,-1
 300 400 l 1,10,-1
 200 400 l 1,11,-1
 200 200 l 1,12,-1
 100 200 l 1,13,-1
 100 400 l 1,14,-1
 0 400 l 1,15,-1
 0 500 l 1,4,-1
200 100 m 1,16,-1
 300 100 l 1,17,-1
 300 0 l 1,18,-1
 200 0 l 1,19,-1
 200 100 l 1,16,-1
300 400 m 1,20,-1
 400 400 l 1,21,-1
 400 500 l 1,22,-1
 500 500 l 1,23,-1
 500 300 l 1,24,-1
 400 300 l 1,25,-1
 400 100 l 1,26,-1
 300 100 l 1,27,-1
 300 400 l 1,20,-1
300 600 m 1,28,-1
 400 600 l 1,29,-1
 400 500 l 1,30,-1
 300 500 l 1,31,-1
 300 600 l 1,28,-1
EndSplineSet
EndChar

StartChar: uni304C
Encoding: 12364 12364 283
Width: 600
GlyphClass: 1
Flags: W
LayerCount: 2
Fore
SplineSet
200 700 m 1,0,-1
 200 500 l 1,1,-1
 300 500 l 1,2,-1
 300 400 l 1,3,-1
 200 400 l 1,4,-1
 200 200 l 1,5,-1
 100 200 l 1,6,-1
 100 400 l 1,7,-1
 0 400 l 1,8,-1
 0 500 l 1,9,-1
 100 500 l 1,10,-1
 100 700 l 1,11,-1
 200 700 l 1,0,-1
0 200 m 1,12,-1
 100 200 l 1,13,-1
 100 0 l 1,14,-1
 0 0 l 1,15,-1
 0 200 l 1,12,-1
200 100 m 1,16,-1
 300 100 l 1,17,-1
 300 0 l 1,18,-1
 200 0 l 1,19,-1
 200 100 l 1,16,-1
300 400 m 1,20,-1
 400 400 l 1,21,-1
 400 500 l 1,22,-1
 500 500 l 1,23,-1
 500 300 l 1,24,-1
 400 300 l 1,25,-1
 400 100 l 1,26,-1
 300 100 l 1,27,-1
 300 400 l 1,20,-1
300 700 m 1,28,-1
 500 700 l 1,29,-1
 500 600 l 1,30,-1
 300 600 l 1,31,-1
 300 700 l 1,28,-1
EndSplineSet
EndChar

StartChar: uni304D
Encoding: 12365 12365 284
Width: 600
GlyphClass: 1
Flags: W
LayerCount: 2
Fore
SplineSet
0 600 m 1,0,-1
 200 600 l 1,1,-1
 200 700 l 1,2,-1
 300 700 l 1,3,-1
 300 600 l 1,4,-1
 400 600 l 1,5,-1
 400 500 l 1,6,-1
 300 500 l 1,7,-1
 300 400 l 1,8,-1
 500 400 l 1,9,-1
 500 300 l 1,10,-1
 400 300 l 1,11,-1
 400 200 l 1,12,-1
 300 200 l 1,13,-1
 300 300 l 1,14,-1
 200 300 l 1,15,-1
 200 200 l 1,16,-1
 100 200 l 1,17,-1
 100 300 l 1,18,-1
 0 300 l 1,19,-1
 0 400 l 1,20,-1
 200 400 l 1,21,-1
 200 500 l 1,22,-1
 0 500 l 1,23,-1
 0 600 l 1,0,-1
0 200 m 1,24,-1
 100 200 l 1,25,-1
 100 100 l 1,26,-1
 0 100 l 1,27,-1
 0 200 l 1,24,-1
100 100 m 1,28,-1
 400 100 l 1,29,-1
 400 0 l 1,30,-1
 100 0 l 1,31,-1
 100 100 l 1,28,-1
EndSplineSet
EndChar

StartChar: uni304E
Encoding: 12366 12366 285
Width: 600
GlyphClass: 1
Flags: W
LayerCount: 2
Fore
SplineSet
0 600 m 1,0,-1
 200 600 l 1,1,-1
 200 700 l 1,2,-1
 300 700 l 1,3,-1
 300 600 l 1,4,-1
 400 600 l 1,5,-1
 400 500 l 1,6,-1
 300 500 l 1,7,-1
 300 400 l 1,8,-1
 500 400 l 1,9,-1
 500 300 l 1,10,-1
 400 300 l 1,11,-1
 400 200 l 1,12,-1
 300 200 l 1,13,-1
 300 300 l 1,14,-1
 200 300 l 1,15,-1
 200 200 l 1,16,-1
 100 200 l 1,17,-1
 100 300 l 1,18,-1
 0 300 l 1,19,-1
 0 400 l 1,20,-1
 200 400 l 1,21,-1
 200 500 l 1,22,-1
 0 500 l 1,23,-1
 0 600 l 1,0,-1
0 200 m 1,24,-1
 100 200 l 1,25,-1
 100 100 l 1,26,-1
 0 100 l 1,27,-1
 0 200 l 1,24,-1
100 100 m 1,28,-1
 400 100 l 1,29,-1
 400 0 l 1,30,-1
 100 0 l 1,31,-1
 100 100 l 1,28,-1
400 700 m 1,32,-1
 500 700 l 1,33,-1
 500 600 l 1,34,-1
 400 600 l 1,35,-1
 400 700 l 1,32,-1
EndSplineSet
EndChar

StartChar: uni304F
Encoding: 12367 12367 286
Width: 600
GlyphClass: 1
Flags: W
LayerCount: 2
Fore
SplineSet
100 500 m 1,0,-1
 300 500 l 1,1,-1
 300 400 l 1,2,-1
 100 400 l 1,3,-1
 100 500 l 1,0,-1
0 400 m 1,4,-1
 100 400 l 1,5,-1
 100 300 l 1,6,-1
 0 300 l 1,7,-1
 0 400 l 1,4,-1
100 300 m 1,8,-1
 300 300 l 1,9,-1
 300 200 l 1,10,-1
 100 200 l 1,11,-1
 100 300 l 1,8,-1
300 200 m 1,12,-1
 400 200 l 1,13,-1
 400 0 l 1,14,-1
 300 0 l 1,15,-1
 300 200 l 1,12,-1
300 700 m 1,16,-1
 400 700 l 1,17,-1
 400 500 l 1,18,-1
 300 500 l 1,19,-1
 300 700 l 1,16,-1
EndSplineSet
EndChar

StartChar: uni3050
Encoding: 12368 12368 287
Width: 600
GlyphClass: 1
Flags: W
LayerCount: 2
Fore
SplineSet
0 400 m 1,0,-1
 100 400 l 1,1,-1
 100 300 l 1,2,-1
 0 300 l 1,3,-1
 0 400 l 1,0,-1
100 300 m 1,4,-1
 300 300 l 1,5,-1
 300 200 l 1,6,-1
 100 200 l 1,7,-1
 100 300 l 1,4,-1
100 500 m 1,8,-1
 300 500 l 1,9,-1
 300 400 l 1,10,-1
 100 400 l 1,11,-1
 100 500 l 1,8,-1
300 200 m 1,12,-1
 400 200 l 1,13,-1
 400 0 l 1,14,-1
 300 0 l 1,15,-1
 300 200 l 1,12,-1
300 700 m 1,16,-1
 400 700 l 1,17,-1
 400 500 l 1,18,-1
 300 500 l 1,19,-1
 300 700 l 1,16,-1
400 500 m 1,20,-1
 500 500 l 1,21,-1
 500 400 l 1,22,-1
 400 400 l 1,23,-1
 400 500 l 1,20,-1
EndSplineSet
EndChar

StartChar: uni3051
Encoding: 12369 12369 288
Width: 600
GlyphClass: 1
Flags: W
LayerCount: 2
Fore
SplineSet
100 700 m 1,0,-1
 100 100 l 1,1,-1
 0 100 l 1,2,-1
 0 700 l 1,3,-1
 100 700 l 1,0,-1
200 100 m 1,4,-1
 300 100 l 1,5,-1
 300 0 l 1,6,-1
 200 0 l 1,7,-1
 200 100 l 1,4,-1
200 500 m 1,8,-1
 300 500 l 1,9,-1
 300 700 l 1,10,-1
 400 700 l 1,11,-1
 400 500 l 1,12,-1
 500 500 l 1,13,-1
 500 400 l 1,14,-1
 400 400 l 1,15,-1
 400 100 l 1,16,-1
 300 100 l 1,17,-1
 300 400 l 1,18,-1
 200 400 l 1,19,-1
 200 500 l 1,8,-1
EndSplineSet
EndChar

StartChar: uni3052
Encoding: 12370 12370 289
Width: 600
GlyphClass: 1
Flags: W
LayerCount: 2
Fore
SplineSet
500 700 m 1,0,-1
 500 600 l 1,1,-1
 400 600 l 1,2,-1
 400 500 l 1,3,-1
 500 500 l 1,4,-1
 500 400 l 1,5,-1
 400 400 l 1,6,-1
 400 100 l 1,7,-1
 300 100 l 1,8,-1
 300 400 l 1,9,-1
 200 400 l 1,10,-1
 200 500 l 1,11,-1
 300 500 l 1,12,-1
 300 700 l 1,13,-1
 500 700 l 1,0,-1
0 700 m 1,14,-1
 100 700 l 1,15,-1
 100 100 l 1,16,-1
 0 100 l 1,17,-1
 0 700 l 1,14,-1
200 100 m 1,18,-1
 300 100 l 1,19,-1
 300 0 l 1,20,-1
 200 0 l 1,21,-1
 200 100 l 1,18,-1
EndSplineSet
EndChar

StartChar: uni3053
Encoding: 12371 12371 290
Width: 600
GlyphClass: 1
Flags: W
LayerCount: 2
Fore
SplineSet
100 100 m 1,0,-1
 500 100 l 1,1,-1
 500 0 l 1,2,-1
 100 0 l 1,3,-1
 100 100 l 1,0,-1
0 200 m 1,4,-1
 100 200 l 1,5,-1
 100 100 l 1,6,-1
 0 100 l 1,7,-1
 0 200 l 1,4,-1
100 300 m 1,8,-1
 200 300 l 1,9,-1
 200 200 l 1,10,-1
 100 200 l 1,11,-1
 100 300 l 1,8,-1
100 600 m 1,12,-1
 400 600 l 1,13,-1
 400 500 l 1,14,-1
 100 500 l 1,15,-1
 100 600 l 1,12,-1
EndSplineSet
EndChar

StartChar: uni3054
Encoding: 12372 12372 291
Width: 600
GlyphClass: 1
Flags: W
LayerCount: 2
Fore
SplineSet
100 100 m 1,0,-1
 0 100 l 1,1,-1
 0 200 l 1,2,-1
 100 200 l 1,3,-1
 100 100 l 1,0,-1
100 100 m 1,4,-1
 500 100 l 1,5,-1
 500 0 l 1,6,-1
 100 0 l 1,7,-1
 100 100 l 1,4,-1
100 300 m 1,8,-1
 200 300 l 1,9,-1
 200 200 l 1,10,-1
 100 200 l 1,11,-1
 100 300 l 1,8,-1
100 600 m 1,12,-1
 200 600 l 1,13,-1
 200 700 l 1,14,-1
 300 700 l 1,15,-1
 300 600 l 1,16,-1
 400 600 l 1,17,-1
 400 500 l 1,18,-1
 100 500 l 1,19,-1
 100 600 l 1,12,-1
400 700 m 1,20,-1
 500 700 l 1,21,-1
 500 600 l 1,22,-1
 400 600 l 1,23,-1
 400 700 l 1,20,-1
EndSplineSet
EndChar

StartChar: uni3055
Encoding: 12373 12373 292
Width: 600
GlyphClass: 1
Flags: W
LayerCount: 2
Fore
SplineSet
0 500 m 1,0,-1
 200 500 l 1,1,-1
 200 700 l 1,2,-1
 300 700 l 1,3,-1
 300 500 l 1,4,-1
 500 500 l 1,5,-1
 500 400 l 1,6,-1
 400 400 l 1,7,-1
 400 200 l 1,8,-1
 300 200 l 1,9,-1
 300 400 l 1,10,-1
 0 400 l 1,11,-1
 0 500 l 1,0,-1
0 200 m 1,12,-1
 100 200 l 1,13,-1
 100 100 l 1,14,-1
 0 100 l 1,15,-1
 0 200 l 1,12,-1
100 100 m 1,16,-1
 400 100 l 1,17,-1
 400 0 l 1,18,-1
 100 0 l 1,19,-1
 100 100 l 1,16,-1
100 300 m 1,20,-1
 200 300 l 1,21,-1
 200 200 l 1,22,-1
 100 200 l 1,23,-1
 100 300 l 1,20,-1
EndSplineSet
EndChar

StartChar: uni3056
Encoding: 12374 12374 293
Width: 600
GlyphClass: 1
Flags: W
LayerCount: 2
Fore
SplineSet
300 700 m 1,0,-1
 300 500 l 1,1,-1
 500 500 l 1,2,-1
 500 400 l 1,3,-1
 400 400 l 1,4,-1
 400 200 l 1,5,-1
 300 200 l 1,6,-1
 300 400 l 1,7,-1
 0 400 l 1,8,-1
 0 500 l 1,9,-1
 200 500 l 1,10,-1
 200 700 l 1,11,-1
 300 700 l 1,0,-1
0 200 m 1,12,-1
 100 200 l 1,13,-1
 100 100 l 1,14,-1
 0 100 l 1,15,-1
 0 200 l 1,12,-1
100 100 m 1,16,-1
 400 100 l 1,17,-1
 400 0 l 1,18,-1
 100 0 l 1,19,-1
 100 100 l 1,16,-1
100 300 m 1,20,-1
 200 300 l 1,21,-1
 200 200 l 1,22,-1
 100 200 l 1,23,-1
 100 300 l 1,20,-1
400 700 m 1,24,-1
 500 700 l 1,25,-1
 500 600 l 1,26,-1
 400 600 l 1,27,-1
 400 700 l 1,24,-1
EndSplineSet
EndChar

StartChar: uni3057
Encoding: 12375 12375 294
Width: 600
GlyphClass: 1
Flags: W
LayerCount: 2
Fore
SplineSet
200 700 m 1,0,-1
 200 100 l 1,1,-1
 100 100 l 1,2,-1
 100 700 l 1,3,-1
 200 700 l 1,0,-1
200 100 m 1,4,-1
 400 100 l 1,5,-1
 400 0 l 1,6,-1
 200 0 l 1,7,-1
 200 100 l 1,4,-1
400 200 m 1,8,-1
 500 200 l 1,9,-1
 500 100 l 1,10,-1
 400 100 l 1,11,-1
 400 200 l 1,8,-1
EndSplineSet
EndChar

StartChar: uni3058
Encoding: 12376 12376 295
Width: 600
GlyphClass: 1
Flags: W
LayerCount: 2
Fore
SplineSet
200 700 m 1,0,-1
 200 100 l 1,1,-1
 100 100 l 1,2,-1
 100 700 l 1,3,-1
 200 700 l 1,0,-1
200 100 m 1,4,-1
 400 100 l 1,5,-1
 400 0 l 1,6,-1
 200 0 l 1,7,-1
 200 100 l 1,4,-1
300 700 m 1,8,-1
 500 700 l 1,9,-1
 500 600 l 1,10,-1
 300 600 l 1,11,-1
 300 700 l 1,8,-1
400 200 m 1,12,-1
 500 200 l 1,13,-1
 500 100 l 1,14,-1
 400 100 l 1,15,-1
 400 200 l 1,12,-1
EndSplineSet
EndChar

StartChar: uni3059
Encoding: 12377 12377 296
Width: 600
GlyphClass: 1
Flags: W
LayerCount: 2
Fore
SplineSet
0 600 m 1,0,-1
 300 600 l 1,1,-1
 300 700 l 1,2,-1
 400 700 l 1,3,-1
 400 600 l 1,4,-1
 500 600 l 1,5,-1
 500 500 l 1,6,-1
 400 500 l 1,7,-1
 400 100 l 1,8,-1
 300 100 l 1,9,-1
 300 200 l 1,10,-1
 200 200 l 1,11,-1
 200 300 l 1,12,-1
 300 300 l 1,13,-1
 300 400 l 1,14,-1
 200 400 l 1,15,-1
 200 500 l 1,16,-1
 0 500 l 1,17,-1
 0 600 l 1,0,-1
100 400 m 1,18,-1
 200 400 l 1,19,-1
 200 300 l 1,20,-1
 100 300 l 1,21,-1
 100 400 l 1,18,-1
200 100 m 1,22,-1
 300 100 l 1,23,-1
 300 0 l 1,24,-1
 200 0 l 1,25,-1
 200 100 l 1,22,-1
EndSplineSet
EndChar

StartChar: uni305A
Encoding: 12378 12378 297
Width: 600
GlyphClass: 1
Flags: W
LayerCount: 2
Fore
SplineSet
0 600 m 1,0,-1
 200 600 l 1,1,-1
 200 700 l 1,2,-1
 300 700 l 1,3,-1
 300 600 l 1,4,-1
 400 600 l 1,5,-1
 400 700 l 1,6,-1
 500 700 l 1,7,-1
 500 500 l 1,8,-1
 400 500 l 1,9,-1
 400 100 l 1,10,-1
 300 100 l 1,11,-1
 300 200 l 1,12,-1
 200 200 l 1,13,-1
 200 300 l 1,14,-1
 300 300 l 1,15,-1
 300 400 l 1,16,-1
 200 400 l 1,17,-1
 200 500 l 1,18,-1
 0 500 l 1,19,-1
 0 600 l 1,0,-1
100 400 m 1,20,-1
 200 400 l 1,21,-1
 200 300 l 1,22,-1
 100 300 l 1,23,-1
 100 400 l 1,20,-1
200 100 m 1,24,-1
 300 100 l 1,25,-1
 300 0 l 1,26,-1
 200 0 l 1,27,-1
 200 100 l 1,24,-1
EndSplineSet
EndChar

StartChar: uni305B
Encoding: 12379 12379 298
Width: 600
GlyphClass: 1
Flags: W
LayerCount: 2
Fore
SplineSet
200 700 m 1,0,-1
 200 500 l 1,1,-1
 300 500 l 1,2,-1
 300 700 l 1,3,-1
 400 700 l 1,4,-1
 400 500 l 1,5,-1
 500 500 l 1,6,-1
 500 400 l 1,7,-1
 400 400 l 1,8,-1
 400 200 l 1,9,-1
 300 200 l 1,10,-1
 300 400 l 1,11,-1
 200 400 l 1,12,-1
 200 100 l 1,13,-1
 100 100 l 1,14,-1
 100 400 l 1,15,-1
 0 400 l 1,16,-1
 0 500 l 1,17,-1
 100 500 l 1,18,-1
 100 700 l 1,19,-1
 200 700 l 1,0,-1
200 100 m 1,20,-1
 500 100 l 1,21,-1
 500 0 l 1,22,-1
 200 0 l 1,23,-1
 200 100 l 1,20,-1
EndSplineSet
EndChar

StartChar: uni305C
Encoding: 12380 12380 299
Width: 600
GlyphClass: 1
Flags: W
LayerCount: 2
Fore
SplineSet
500 700 m 1,0,-1
 500 600 l 1,1,-1
 400 600 l 1,2,-1
 400 500 l 1,3,-1
 500 500 l 1,4,-1
 500 400 l 1,5,-1
 400 400 l 1,6,-1
 400 200 l 1,7,-1
 300 200 l 1,8,-1
 300 400 l 1,9,-1
 200 400 l 1,10,-1
 200 100 l 1,11,-1
 100 100 l 1,12,-1
 100 400 l 1,13,-1
 0 400 l 1,14,-1
 0 500 l 1,15,-1
 100 500 l 1,16,-1
 100 700 l 1,17,-1
 200 700 l 1,18,-1
 200 500 l 1,19,-1
 300 500 l 1,20,-1
 300 700 l 1,21,-1
 500 700 l 1,0,-1
200 100 m 1,22,-1
 500 100 l 1,23,-1
 500 0 l 1,24,-1
 200 0 l 1,25,-1
 200 100 l 1,22,-1
EndSplineSet
EndChar

StartChar: uni305D
Encoding: 12381 12381 300
Width: 600
GlyphClass: 1
Flags: W
LayerCount: 2
Fore
SplineSet
100 700 m 1,0,-1
 400 700 l 1,1,-1
 400 600 l 1,2,-1
 300 600 l 1,3,-1
 300 500 l 1,4,-1
 200 500 l 1,5,-1
 200 600 l 1,6,-1
 100 600 l 1,7,-1
 100 700 l 1,0,-1
0 400 m 1,8,-1
 100 400 l 1,9,-1
 100 500 l 1,10,-1
 200 500 l 1,11,-1
 200 400 l 1,12,-1
 500 400 l 1,13,-1
 500 300 l 1,14,-1
 300 300 l 1,15,-1
 300 100 l 1,16,-1
 200 100 l 1,17,-1
 200 300 l 1,18,-1
 0 300 l 1,19,-1
 0 400 l 1,8,-1
300 100 m 1,20,-1
 400 100 l 1,21,-1
 400 0 l 1,22,-1
 300 0 l 1,23,-1
 300 100 l 1,20,-1
EndSplineSet
EndChar

StartChar: uni305E
Encoding: 12382 12382 301
Width: 600
GlyphClass: 1
Flags: W
LayerCount: 2
Fore
SplineSet
100 700 m 1,0,-1
 400 700 l 1,1,-1
 400 600 l 1,2,-1
 300 600 l 1,3,-1
 300 500 l 1,4,-1
 200 500 l 1,5,-1
 200 600 l 1,6,-1
 100 600 l 1,7,-1
 100 700 l 1,0,-1
0 400 m 1,8,-1
 100 400 l 1,9,-1
 100 500 l 1,10,-1
 200 500 l 1,11,-1
 200 400 l 1,12,-1
 500 400 l 1,13,-1
 500 300 l 1,14,-1
 300 300 l 1,15,-1
 300 100 l 1,16,-1
 200 100 l 1,17,-1
 200 300 l 1,18,-1
 0 300 l 1,19,-1
 0 400 l 1,8,-1
300 100 m 1,20,-1
 400 100 l 1,21,-1
 400 0 l 1,22,-1
 300 0 l 1,23,-1
 300 100 l 1,20,-1
400 600 m 1,24,-1
 500 600 l 1,25,-1
 500 500 l 1,26,-1
 400 500 l 1,27,-1
 400 600 l 1,24,-1
EndSplineSet
EndChar

StartChar: uni305F
Encoding: 12383 12383 302
Width: 600
GlyphClass: 1
Flags: W
LayerCount: 2
Fore
SplineSet
0 600 m 1,0,-1
 100 600 l 1,1,-1
 100 700 l 1,2,-1
 200 700 l 1,3,-1
 200 600 l 1,4,-1
 300 600 l 1,5,-1
 300 500 l 1,6,-1
 200 500 l 1,7,-1
 200 300 l 1,8,-1
 100 300 l 1,9,-1
 100 500 l 1,10,-1
 0 500 l 1,11,-1
 0 600 l 1,0,-1
0 300 m 1,12,-1
 100 300 l 1,13,-1
 100 0 l 1,14,-1
 0 0 l 1,15,-1
 0 300 l 1,12,-1
200 200 m 1,16,-1
 300 200 l 1,17,-1
 300 100 l 1,18,-1
 200 100 l 1,19,-1
 200 200 l 1,16,-1
300 100 m 1,20,-1
 500 100 l 1,21,-1
 500 0 l 1,22,-1
 300 0 l 1,23,-1
 300 100 l 1,20,-1
300 300 m 1,24,-1
 400 300 l 1,25,-1
 400 200 l 1,26,-1
 300 200 l 1,27,-1
 300 300 l 1,24,-1
300 500 m 1,28,-1
 500 500 l 1,29,-1
 500 400 l 1,30,-1
 300 400 l 1,31,-1
 300 500 l 1,28,-1
EndSplineSet
EndChar

StartChar: uni3060
Encoding: 12384 12384 303
Width: 600
GlyphClass: 1
Flags: W
LayerCount: 2
Fore
SplineSet
0 600 m 1,0,-1
 100 600 l 1,1,-1
 100 700 l 1,2,-1
 200 700 l 1,3,-1
 200 600 l 1,4,-1
 300 600 l 1,5,-1
 300 500 l 1,6,-1
 200 500 l 1,7,-1
 200 300 l 1,8,-1
 100 300 l 1,9,-1
 100 500 l 1,10,-1
 0 500 l 1,11,-1
 0 600 l 1,0,-1
0 300 m 1,12,-1
 100 300 l 1,13,-1
 100 0 l 1,14,-1
 0 0 l 1,15,-1
 0 300 l 1,12,-1
200 200 m 1,16,-1
 300 200 l 1,17,-1
 300 100 l 1,18,-1
 200 100 l 1,19,-1
 200 200 l 1,16,-1
300 100 m 1,20,-1
 500 100 l 1,21,-1
 500 0 l 1,22,-1
 300 0 l 1,23,-1
 300 100 l 1,20,-1
300 300 m 1,24,-1
 400 300 l 1,25,-1
 400 200 l 1,26,-1
 300 200 l 1,27,-1
 300 300 l 1,24,-1
300 500 m 1,28,-1
 500 500 l 1,29,-1
 500 400 l 1,30,-1
 300 400 l 1,31,-1
 300 500 l 1,28,-1
300 700 m 1,32,-1
 500 700 l 1,33,-1
 500 600 l 1,34,-1
 300 600 l 1,35,-1
 300 700 l 1,32,-1
EndSplineSet
EndChar

StartChar: uni3061
Encoding: 12385 12385 304
Width: 600
GlyphClass: 1
Flags: W
LayerCount: 2
Fore
SplineSet
0 600 m 1,0,-1
 200 600 l 1,1,-1
 200 700 l 1,2,-1
 300 700 l 1,3,-1
 300 600 l 1,4,-1
 500 600 l 1,5,-1
 500 500 l 1,6,-1
 200 500 l 1,7,-1
 200 400 l 1,8,-1
 400 400 l 1,9,-1
 400 300 l 1,10,-1
 200 300 l 1,11,-1
 200 200 l 1,12,-1
 100 200 l 1,13,-1
 100 500 l 1,14,-1
 0 500 l 1,15,-1
 0 600 l 1,0,-1
200 100 m 1,16,-1
 400 100 l 1,17,-1
 400 0 l 1,18,-1
 200 0 l 1,19,-1
 200 100 l 1,16,-1
400 300 m 1,20,-1
 500 300 l 1,21,-1
 500 100 l 1,22,-1
 400 100 l 1,23,-1
 400 300 l 1,20,-1
EndSplineSet
EndChar

StartChar: uni3062
Encoding: 12386 12386 305
Width: 600
GlyphClass: 1
Flags: W
LayerCount: 2
Fore
SplineSet
0 600 m 1,0,-1
 200 600 l 1,1,-1
 200 700 l 1,2,-1
 300 700 l 1,3,-1
 300 600 l 1,4,-1
 400 600 l 1,5,-1
 400 700 l 1,6,-1
 500 700 l 1,7,-1
 500 500 l 1,8,-1
 200 500 l 1,9,-1
 200 400 l 1,10,-1
 400 400 l 1,11,-1
 400 300 l 1,12,-1
 200 300 l 1,13,-1
 200 200 l 1,14,-1
 100 200 l 1,15,-1
 100 500 l 1,16,-1
 0 500 l 1,17,-1
 0 600 l 1,0,-1
200 100 m 1,18,-1
 400 100 l 1,19,-1
 400 0 l 1,20,-1
 200 0 l 1,21,-1
 200 100 l 1,18,-1
400 300 m 1,22,-1
 500 300 l 1,23,-1
 500 100 l 1,24,-1
 400 100 l 1,25,-1
 400 300 l 1,22,-1
EndSplineSet
EndChar

StartChar: uni3064
Encoding: 12388 12388 306
Width: 600
GlyphClass: 1
Flags: W
LayerCount: 2
Fore
SplineSet
0 500 m 1,0,-1
 200 500 l 1,1,-1
 200 400 l 1,2,-1
 0 400 l 1,3,-1
 0 500 l 1,0,-1
200 200 m 1,4,-1
 400 200 l 1,5,-1
 400 100 l 1,6,-1
 200 100 l 1,7,-1
 200 200 l 1,4,-1
200 600 m 1,8,-1
 400 600 l 1,9,-1
 400 500 l 1,10,-1
 200 500 l 1,11,-1
 200 600 l 1,8,-1
400 500 m 1,12,-1
 500 500 l 1,13,-1
 500 200 l 1,14,-1
 400 200 l 1,15,-1
 400 500 l 1,12,-1
EndSplineSet
EndChar

StartChar: uni3063
Encoding: 12387 12387 307
Width: 600
GlyphClass: 1
Flags: W
LayerCount: 2
Fore
SplineSet
200 100 m 1,0,-1
 400 100 l 1,1,-1
 400 0 l 1,2,-1
 200 0 l 1,3,-1
 200 100 l 1,0,-1
0 300 m 1,4,-1
 200 300 l 1,5,-1
 200 200 l 1,6,-1
 0 200 l 1,7,-1
 0 300 l 1,4,-1
200 400 m 1,8,-1
 400 400 l 1,9,-1
 400 300 l 1,10,-1
 200 300 l 1,11,-1
 200 400 l 1,8,-1
400 300 m 1,12,-1
 500 300 l 1,13,-1
 500 100 l 1,14,-1
 400 100 l 1,15,-1
 400 300 l 1,12,-1
EndSplineSet
EndChar

StartChar: uni3065
Encoding: 12389 12389 308
Width: 600
GlyphClass: 1
Flags: W
LayerCount: 2
Fore
SplineSet
0 500 m 1,0,-1
 200 500 l 1,1,-1
 200 400 l 1,2,-1
 0 400 l 1,3,-1
 0 500 l 1,0,-1
200 200 m 1,4,-1
 400 200 l 1,5,-1
 400 100 l 1,6,-1
 200 100 l 1,7,-1
 200 200 l 1,4,-1
200 700 m 1,8,-1
 300 700 l 1,9,-1
 300 600 l 1,10,-1
 400 600 l 1,11,-1
 400 500 l 1,12,-1
 200 500 l 1,13,-1
 200 700 l 1,8,-1
400 500 m 1,14,-1
 500 500 l 1,15,-1
 500 200 l 1,16,-1
 400 200 l 1,17,-1
 400 500 l 1,14,-1
400 700 m 1,18,-1
 500 700 l 1,19,-1
 500 600 l 1,20,-1
 400 600 l 1,21,-1
 400 700 l 1,18,-1
EndSplineSet
EndChar

StartChar: uni3066
Encoding: 12390 12390 309
Width: 600
GlyphClass: 1
Flags: W
LayerCount: 2
Fore
SplineSet
0 600 m 1,0,-1
 200 600 l 1,1,-1
 200 500 l 1,2,-1
 0 500 l 1,3,-1
 0 600 l 1,0,-1
200 500 m 1,4,-1
 300 500 l 1,5,-1
 300 200 l 1,6,-1
 200 200 l 1,7,-1
 200 500 l 1,4,-1
200 700 m 1,8,-1
 500 700 l 1,9,-1
 500 600 l 1,10,-1
 400 600 l 1,11,-1
 400 500 l 1,12,-1
 300 500 l 1,13,-1
 300 600 l 1,14,-1
 200 600 l 1,15,-1
 200 700 l 1,8,-1
300 200 m 1,16,-1
 400 200 l 1,17,-1
 400 100 l 1,18,-1
 300 100 l 1,19,-1
 300 200 l 1,16,-1
400 100 m 1,20,-1
 500 100 l 1,21,-1
 500 0 l 1,22,-1
 400 0 l 1,23,-1
 400 100 l 1,20,-1
EndSplineSet
EndChar

StartChar: uni3067
Encoding: 12391 12391 310
Width: 600
GlyphClass: 1
Flags: W
LayerCount: 2
Fore
SplineSet
0 600 m 1,0,-1
 200 600 l 1,1,-1
 200 500 l 1,2,-1
 0 500 l 1,3,-1
 0 600 l 1,0,-1
200 500 m 1,4,-1
 300 500 l 1,5,-1
 300 200 l 1,6,-1
 200 200 l 1,7,-1
 200 500 l 1,4,-1
200 700 m 1,8,-1
 500 700 l 1,9,-1
 500 600 l 1,10,-1
 400 600 l 1,11,-1
 400 500 l 1,12,-1
 300 500 l 1,13,-1
 300 600 l 1,14,-1
 200 600 l 1,15,-1
 200 700 l 1,8,-1
300 200 m 1,16,-1
 400 200 l 1,17,-1
 400 100 l 1,18,-1
 300 100 l 1,19,-1
 300 200 l 1,16,-1
400 100 m 1,20,-1
 500 100 l 1,21,-1
 500 0 l 1,22,-1
 400 0 l 1,23,-1
 400 100 l 1,20,-1
400 500 m 1,24,-1
 500 500 l 1,25,-1
 500 400 l 1,26,-1
 400 400 l 1,27,-1
 400 500 l 1,24,-1
EndSplineSet
EndChar

StartChar: uni3068
Encoding: 12392 12392 311
Width: 600
GlyphClass: 1
Flags: W
LayerCount: 2
Fore
SplineSet
200 700 m 1,0,-1
 200 400 l 1,1,-1
 100 400 l 1,2,-1
 100 700 l 1,3,-1
 200 700 l 1,0,-1
0 200 m 1,4,-1
 100 200 l 1,5,-1
 100 100 l 1,6,-1
 0 100 l 1,7,-1
 0 200 l 1,4,-1
100 100 m 1,8,-1
 500 100 l 1,9,-1
 500 0 l 1,10,-1
 100 0 l 1,11,-1
 100 100 l 1,8,-1
100 300 m 1,12,-1
 200 300 l 1,13,-1
 200 200 l 1,14,-1
 100 200 l 1,15,-1
 100 300 l 1,12,-1
200 400 m 1,16,-1
 400 400 l 1,17,-1
 400 300 l 1,18,-1
 200 300 l 1,19,-1
 200 400 l 1,16,-1
400 500 m 1,20,-1
 500 500 l 1,21,-1
 500 400 l 1,22,-1
 400 400 l 1,23,-1
 400 500 l 1,20,-1
EndSplineSet
EndChar

StartChar: uni3069
Encoding: 12393 12393 312
Width: 600
GlyphClass: 1
Flags: W
LayerCount: 2
Fore
SplineSet
200 700 m 1,0,-1
 200 400 l 1,1,-1
 100 400 l 1,2,-1
 100 700 l 1,3,-1
 200 700 l 1,0,-1
0 200 m 1,4,-1
 100 200 l 1,5,-1
 100 100 l 1,6,-1
 0 100 l 1,7,-1
 0 200 l 1,4,-1
100 100 m 1,8,-1
 500 100 l 1,9,-1
 500 0 l 1,10,-1
 100 0 l 1,11,-1
 100 100 l 1,8,-1
100 300 m 1,12,-1
 200 300 l 1,13,-1
 200 200 l 1,14,-1
 100 200 l 1,15,-1
 100 300 l 1,12,-1
200 400 m 1,16,-1
 400 400 l 1,17,-1
 400 300 l 1,18,-1
 200 300 l 1,19,-1
 200 400 l 1,16,-1
300 700 m 1,20,-1
 500 700 l 1,21,-1
 500 600 l 1,22,-1
 300 600 l 1,23,-1
 300 700 l 1,20,-1
400 500 m 1,24,-1
 500 500 l 1,25,-1
 500 400 l 1,26,-1
 400 400 l 1,27,-1
 400 500 l 1,24,-1
EndSplineSet
EndChar

StartChar: uni306A
Encoding: 12394 12394 313
Width: 600
GlyphClass: 1
Flags: W
LayerCount: 2
Fore
SplineSet
0 600 m 1,0,-1
 100 600 l 1,1,-1
 100 700 l 1,2,-1
 200 700 l 1,3,-1
 200 400 l 1,4,-1
 100 400 l 1,5,-1
 100 500 l 1,6,-1
 0 500 l 1,7,-1
 0 600 l 1,0,-1
0 400 m 1,8,-1
 100 400 l 1,9,-1
 100 300 l 1,10,-1
 0 300 l 1,11,-1
 0 400 l 1,8,-1
100 200 m 1,12,-1
 200 200 l 1,13,-1
 200 100 l 1,14,-1
 100 100 l 1,15,-1
 100 200 l 1,12,-1
200 100 m 1,16,-1
 300 100 l 1,17,-1
 300 0 l 1,18,-1
 200 0 l 1,19,-1
 200 100 l 1,16,-1
200 300 m 1,20,-1
 300 300 l 1,21,-1
 300 600 l 1,22,-1
 500 600 l 1,23,-1
 500 500 l 1,24,-1
 400 500 l 1,25,-1
 400 200 l 1,26,-1
 500 200 l 1,27,-1
 500 100 l 1,28,-1
 300 100 l 1,29,-1
 300 200 l 1,30,-1
 200 200 l 1,31,-1
 200 300 l 1,20,-1
EndSplineSet
EndChar

StartChar: uni306B
Encoding: 12395 12395 314
Width: 600
GlyphClass: 1
Flags: W
LayerCount: 2
Fore
SplineSet
100 700 m 1,0,-1
 100 200 l 1,1,-1
 200 200 l 1,2,-1
 200 100 l 1,3,-1
 100 100 l 1,4,-1
 100 0 l 1,5,-1
 0 0 l 1,6,-1
 0 700 l 1,7,-1
 100 700 l 1,0,-1
200 100 m 1,8,-1
 500 100 l 1,9,-1
 500 0 l 1,10,-1
 200 0 l 1,11,-1
 200 100 l 1,8,-1
200 300 m 1,12,-1
 300 300 l 1,13,-1
 300 200 l 1,14,-1
 200 200 l 1,15,-1
 200 300 l 1,12,-1
200 600 m 1,16,-1
 500 600 l 1,17,-1
 500 500 l 1,18,-1
 200 500 l 1,19,-1
 200 600 l 1,16,-1
EndSplineSet
EndChar

StartChar: uni306C
Encoding: 12396 12396 315
Width: 600
GlyphClass: 1
Flags: W
LayerCount: 2
Fore
SplineSet
200 600 m 1,0,-1
 200 500 l 1,1,-1
 300 500 l 1,2,-1
 300 700 l 1,3,-1
 400 700 l 1,4,-1
 400 400 l 1,5,-1
 500 400 l 1,6,-1
 500 0 l 1,7,-1
 300 0 l 1,8,-1
 300 100 l 1,9,-1
 200 100 l 1,10,-1
 200 300 l 1,11,-1
 300 300 l 1,12,-1
 300 200 l 1,13,-1
 400 200 l 1,14,-1
 400 300 l 1,15,-1
 300 300 l 1,16,-1
 300 400 l 1,17,-1
 200 400 l 1,18,-1
 200 300 l 1,19,-1
 100 300 l 1,20,-1
 100 100 l 1,21,-1
 0 100 l 1,22,-1
 0 400 l 1,23,-1
 100 400 l 1,24,-1
 100 600 l 1,25,-1
 200 600 l 1,0,-1
100 100 m 1,26,-1
 200 100 l 1,27,-1
 200 0 l 1,28,-1
 100 0 l 1,29,-1
 100 100 l 1,26,-1
EndSplineSet
EndChar

StartChar: uni306D
Encoding: 12397 12397 316
Width: 600
GlyphClass: 1
Flags: W
LayerCount: 2
Fore
SplineSet
0 500 m 1,0,-1
 100 500 l 1,1,-1
 100 700 l 1,2,-1
 200 700 l 1,3,-1
 200 500 l 1,4,-1
 300 500 l 1,5,-1
 300 400 l 1,6,-1
 200 400 l 1,7,-1
 200 200 l 1,8,-1
 300 200 l 1,9,-1
 300 100 l 1,10,-1
 200 100 l 1,11,-1
 200 0 l 1,12,-1
 100 0 l 1,13,-1
 100 100 l 1,14,-1
 0 100 l 1,15,-1
 0 300 l 1,16,-1
 100 300 l 1,17,-1
 100 400 l 1,18,-1
 0 400 l 1,19,-1
 0 500 l 1,0,-1
300 100 m 1,20,-1
 400 100 l 1,21,-1
 400 200 l 1,22,-1
 300 200 l 1,23,-1
 300 300 l 1,24,-1
 400 300 l 1,25,-1
 400 500 l 1,26,-1
 500 500 l 1,27,-1
 500 0 l 1,28,-1
 300 0 l 1,29,-1
 300 100 l 1,20,-1
300 600 m 1,30,-1
 400 600 l 1,31,-1
 400 500 l 1,32,-1
 300 500 l 1,33,-1
 300 600 l 1,30,-1
EndSplineSet
EndChar

StartChar: uni306E
Encoding: 12398 12398 317
Width: 600
GlyphClass: 1
Flags: W
LayerCount: 2
Fore
SplineSet
0 500 m 1,0,-1
 100 500 l 1,1,-1
 100 200 l 1,2,-1
 200 200 l 1,3,-1
 200 100 l 1,4,-1
 0 100 l 1,5,-1
 0 500 l 1,0,-1
100 600 m 1,6,-1
 400 600 l 1,7,-1
 400 500 l 1,8,-1
 300 500 l 1,9,-1
 300 200 l 1,10,-1
 200 200 l 1,11,-1
 200 500 l 1,12,-1
 100 500 l 1,13,-1
 100 600 l 1,6,-1
300 100 m 1,14,-1
 400 100 l 1,15,-1
 400 0 l 1,16,-1
 300 0 l 1,17,-1
 300 100 l 1,14,-1
400 500 m 1,18,-1
 500 500 l 1,19,-1
 500 100 l 1,20,-1
 400 100 l 1,21,-1
 400 500 l 1,18,-1
EndSplineSet
EndChar

StartChar: uni306F
Encoding: 12399 12399 318
Width: 600
GlyphClass: 1
Flags: W
LayerCount: 2
Fore
SplineSet
100 700 m 1,0,-1
 100 200 l 1,1,-1
 200 200 l 1,2,-1
 200 100 l 1,3,-1
 100 100 l 1,4,-1
 100 0 l 1,5,-1
 0 0 l 1,6,-1
 0 700 l 1,7,-1
 100 700 l 1,0,-1
200 100 m 1,8,-1
 300 100 l 1,9,-1
 300 0 l 1,10,-1
 200 0 l 1,11,-1
 200 100 l 1,8,-1
200 300 m 1,12,-1
 300 300 l 1,13,-1
 300 400 l 1,14,-1
 200 400 l 1,15,-1
 200 500 l 1,16,-1
 300 500 l 1,17,-1
 300 700 l 1,18,-1
 400 700 l 1,19,-1
 400 500 l 1,20,-1
 500 500 l 1,21,-1
 500 400 l 1,22,-1
 400 400 l 1,23,-1
 400 200 l 1,24,-1
 500 200 l 1,25,-1
 500 100 l 1,26,-1
 300 100 l 1,27,-1
 300 200 l 1,28,-1
 200 200 l 1,29,-1
 200 300 l 1,12,-1
EndSplineSet
EndChar

StartChar: uni3070
Encoding: 12400 12400 319
Width: 600
GlyphClass: 1
Flags: W
LayerCount: 2
Fore
SplineSet
100 700 m 1,0,-1
 100 200 l 1,1,-1
 200 200 l 1,2,-1
 200 100 l 1,3,-1
 100 100 l 1,4,-1
 100 0 l 1,5,-1
 0 0 l 1,6,-1
 0 700 l 1,7,-1
 100 700 l 1,0,-1
200 100 m 1,8,-1
 300 100 l 1,9,-1
 300 0 l 1,10,-1
 200 0 l 1,11,-1
 200 100 l 1,8,-1
200 300 m 1,12,-1
 300 300 l 1,13,-1
 300 400 l 1,14,-1
 200 400 l 1,15,-1
 200 500 l 1,16,-1
 300 500 l 1,17,-1
 300 700 l 1,18,-1
 500 700 l 1,19,-1
 500 600 l 1,20,-1
 400 600 l 1,21,-1
 400 500 l 1,22,-1
 500 500 l 1,23,-1
 500 400 l 1,24,-1
 400 400 l 1,25,-1
 400 200 l 1,26,-1
 500 200 l 1,27,-1
 500 100 l 1,28,-1
 300 100 l 1,29,-1
 300 200 l 1,30,-1
 200 200 l 1,31,-1
 200 300 l 1,12,-1
EndSplineSet
EndChar

StartChar: uni3071
Encoding: 12401 12401 320
Width: 600
GlyphClass: 1
Flags: W
LayerCount: 2
Fore
SplineSet
100 700 m 1,0,-1
 100 200 l 1,1,-1
 200 200 l 1,2,-1
 200 100 l 1,3,-1
 100 100 l 1,4,-1
 100 0 l 1,5,-1
 0 0 l 1,6,-1
 0 700 l 1,7,-1
 100 700 l 1,0,-1
200 100 m 1,8,-1
 300 100 l 1,9,-1
 300 0 l 1,10,-1
 200 0 l 1,11,-1
 200 100 l 1,8,-1
200 300 m 1,12,-1
 300 300 l 1,13,-1
 300 400 l 1,14,-1
 200 400 l 1,15,-1
 200 600 l 1,16,-1
 300 600 l 1,17,-1
 300 500 l 1,18,-1
 400 500 l 1,19,-1
 400 600 l 1,20,-1
 500 600 l 1,21,-1
 500 400 l 1,22,-1
 400 400 l 1,23,-1
 400 200 l 1,24,-1
 500 200 l 1,25,-1
 500 100 l 1,26,-1
 300 100 l 1,27,-1
 300 200 l 1,28,-1
 200 200 l 1,29,-1
 200 300 l 1,12,-1
300 700 m 1,30,-1
 400 700 l 1,31,-1
 400 600 l 1,32,-1
 300 600 l 1,33,-1
 300 700 l 1,30,-1
EndSplineSet
EndChar

StartChar: uni3072
Encoding: 12402 12402 321
Width: 600
GlyphClass: 1
Flags: W
LayerCount: 2
Fore
SplineSet
100 700 m 1,0,-1
 200 700 l 1,1,-1
 200 400 l 1,2,-1
 100 400 l 1,3,-1
 100 500 l 1,4,-1
 0 500 l 1,5,-1
 0 600 l 1,6,-1
 100 600 l 1,7,-1
 100 700 l 1,0,-1
0 400 m 1,8,-1
 100 400 l 1,9,-1
 100 100 l 1,10,-1
 0 100 l 1,11,-1
 0 400 l 1,8,-1
100 100 m 1,12,-1
 300 100 l 1,13,-1
 300 0 l 1,14,-1
 100 0 l 1,15,-1
 100 100 l 1,12,-1
300 700 m 1,16,-1
 400 700 l 1,17,-1
 400 500 l 1,18,-1
 500 500 l 1,19,-1
 500 400 l 1,20,-1
 400 400 l 1,21,-1
 400 100 l 1,22,-1
 300 100 l 1,23,-1
 300 700 l 1,16,-1
EndSplineSet
EndChar

StartChar: uni3073
Encoding: 12403 12403 322
Width: 600
GlyphClass: 1
Flags: W
LayerCount: 2
Fore
SplineSet
100 700 m 1,0,-1
 200 700 l 1,1,-1
 200 400 l 1,2,-1
 100 400 l 1,3,-1
 100 500 l 1,4,-1
 0 500 l 1,5,-1
 0 600 l 1,6,-1
 100 600 l 1,7,-1
 100 700 l 1,0,-1
0 400 m 1,8,-1
 100 400 l 1,9,-1
 100 100 l 1,10,-1
 0 100 l 1,11,-1
 0 400 l 1,8,-1
100 100 m 1,12,-1
 300 100 l 1,13,-1
 300 0 l 1,14,-1
 100 0 l 1,15,-1
 100 100 l 1,12,-1
300 700 m 1,16,-1
 500 700 l 1,17,-1
 500 600 l 1,18,-1
 400 600 l 1,19,-1
 400 500 l 1,20,-1
 500 500 l 1,21,-1
 500 400 l 1,22,-1
 400 400 l 1,23,-1
 400 100 l 1,24,-1
 300 100 l 1,25,-1
 300 700 l 1,16,-1
EndSplineSet
EndChar

StartChar: uni3074
Encoding: 12404 12404 323
Width: 600
GlyphClass: 1
Flags: W
LayerCount: 2
Fore
SplineSet
100 700 m 1,0,-1
 200 700 l 1,1,-1
 200 600 l 1,2,-1
 300 600 l 1,3,-1
 300 500 l 1,4,-1
 200 500 l 1,5,-1
 200 400 l 1,6,-1
 100 400 l 1,7,-1
 100 500 l 1,8,-1
 0 500 l 1,9,-1
 0 600 l 1,10,-1
 100 600 l 1,11,-1
 100 700 l 1,0,-1
0 400 m 1,12,-1
 100 400 l 1,13,-1
 100 100 l 1,14,-1
 0 100 l 1,15,-1
 0 400 l 1,12,-1
100 100 m 1,16,-1
 300 100 l 1,17,-1
 300 0 l 1,18,-1
 100 0 l 1,19,-1
 100 100 l 1,16,-1
300 500 m 1,20,-1
 400 500 l 1,21,-1
 400 600 l 1,22,-1
 500 600 l 1,23,-1
 500 400 l 1,24,-1
 400 400 l 1,25,-1
 400 100 l 1,26,-1
 300 100 l 1,27,-1
 300 500 l 1,20,-1
300 700 m 1,28,-1
 400 700 l 1,29,-1
 400 600 l 1,30,-1
 300 600 l 1,31,-1
 300 700 l 1,28,-1
EndSplineSet
EndChar

StartChar: uni3075
Encoding: 12405 12405 324
Width: 600
GlyphClass: 1
Flags: W
LayerCount: 2
Fore
SplineSet
0 100 m 1,0,-1
 100 100 l 1,1,-1
 100 0 l 1,2,-1
 0 0 l 1,3,-1
 0 100 l 1,0,-1
100 300 m 1,4,-1
 200 300 l 1,5,-1
 200 100 l 1,6,-1
 100 100 l 1,7,-1
 100 300 l 1,4,-1
200 100 m 1,8,-1
 300 100 l 1,9,-1
 300 0 l 1,10,-1
 200 0 l 1,11,-1
 200 100 l 1,8,-1
200 500 m 1,12,-1
 300 500 l 1,13,-1
 300 400 l 1,14,-1
 200 400 l 1,15,-1
 200 500 l 1,12,-1
200 700 m 1,16,-1
 300 700 l 1,17,-1
 300 600 l 1,18,-1
 200 600 l 1,19,-1
 200 700 l 1,16,-1
300 400 m 1,20,-1
 400 400 l 1,21,-1
 400 200 l 1,22,-1
 500 200 l 1,23,-1
 500 0 l 1,24,-1
 400 0 l 1,25,-1
 400 100 l 1,26,-1
 300 100 l 1,27,-1
 300 400 l 1,20,-1
300 600 m 1,28,-1
 400 600 l 1,29,-1
 400 500 l 1,30,-1
 300 500 l 1,31,-1
 300 600 l 1,28,-1
EndSplineSet
EndChar

StartChar: uni3076
Encoding: 12406 12406 325
Width: 600
GlyphClass: 1
Flags: W
LayerCount: 2
Fore
SplineSet
0 100 m 1,0,-1
 100 100 l 1,1,-1
 100 0 l 1,2,-1
 0 0 l 1,3,-1
 0 100 l 1,0,-1
100 300 m 1,4,-1
 200 300 l 1,5,-1
 200 100 l 1,6,-1
 100 100 l 1,7,-1
 100 300 l 1,4,-1
200 100 m 1,8,-1
 300 100 l 1,9,-1
 300 0 l 1,10,-1
 200 0 l 1,11,-1
 200 100 l 1,8,-1
200 500 m 1,12,-1
 300 500 l 1,13,-1
 300 400 l 1,14,-1
 200 400 l 1,15,-1
 200 500 l 1,12,-1
200 700 m 1,16,-1
 300 700 l 1,17,-1
 300 600 l 1,18,-1
 200 600 l 1,19,-1
 200 700 l 1,16,-1
300 400 m 1,20,-1
 400 400 l 1,21,-1
 400 200 l 1,22,-1
 500 200 l 1,23,-1
 500 0 l 1,24,-1
 400 0 l 1,25,-1
 400 100 l 1,26,-1
 300 100 l 1,27,-1
 300 400 l 1,20,-1
300 600 m 1,28,-1
 400 600 l 1,29,-1
 400 500 l 1,30,-1
 300 500 l 1,31,-1
 300 600 l 1,28,-1
400 700 m 1,32,-1
 500 700 l 1,33,-1
 500 600 l 1,34,-1
 400 600 l 1,35,-1
 400 700 l 1,32,-1
EndSplineSet
EndChar

StartChar: uni3077
Encoding: 12407 12407 326
Width: 600
GlyphClass: 1
Flags: W
LayerCount: 2
Fore
SplineSet
0 100 m 1,0,-1
 100 100 l 1,1,-1
 100 0 l 1,2,-1
 0 0 l 1,3,-1
 0 100 l 1,0,-1
100 300 m 1,4,-1
 200 300 l 1,5,-1
 200 100 l 1,6,-1
 100 100 l 1,7,-1
 100 300 l 1,4,-1
200 100 m 1,8,-1
 300 100 l 1,9,-1
 300 0 l 1,10,-1
 200 0 l 1,11,-1
 200 100 l 1,8,-1
200 500 m 1,12,-1
 300 500 l 1,13,-1
 300 400 l 1,14,-1
 200 400 l 1,15,-1
 200 500 l 1,12,-1
200 700 m 1,16,-1
 300 700 l 1,17,-1
 300 600 l 1,18,-1
 200 600 l 1,19,-1
 200 700 l 1,16,-1
300 400 m 1,20,-1
 400 400 l 1,21,-1
 400 200 l 1,22,-1
 500 200 l 1,23,-1
 500 0 l 1,24,-1
 400 0 l 1,25,-1
 400 100 l 1,26,-1
 300 100 l 1,27,-1
 300 400 l 1,20,-1
300 600 m 1,28,-1
 400 600 l 1,29,-1
 400 500 l 1,30,-1
 300 500 l 1,31,-1
 300 600 l 1,28,-1
400 500 m 1,32,-1
 500 500 l 1,33,-1
 500 400 l 1,34,-1
 400 400 l 1,35,-1
 400 500 l 1,32,-1
EndSplineSet
EndChar

StartChar: uni3078
Encoding: 12408 12408 327
Width: 600
GlyphClass: 1
Flags: W
LayerCount: 2
Fore
SplineSet
0 400 m 1,0,-1
 100 400 l 1,1,-1
 100 300 l 1,2,-1
 0 300 l 1,3,-1
 0 400 l 1,0,-1
100 500 m 1,4,-1
 200 500 l 1,5,-1
 200 400 l 1,6,-1
 100 400 l 1,7,-1
 100 500 l 1,4,-1
200 400 m 1,8,-1
 300 400 l 1,9,-1
 300 300 l 1,10,-1
 200 300 l 1,11,-1
 200 400 l 1,8,-1
300 300 m 1,12,-1
 500 300 l 1,13,-1
 500 200 l 1,14,-1
 300 200 l 1,15,-1
 300 300 l 1,12,-1
EndSplineSet
EndChar

StartChar: uni3079
Encoding: 12409 12409 328
Width: 600
GlyphClass: 1
Flags: W
LayerCount: 2
Fore
SplineSet
0 400 m 1,0,-1
 100 400 l 1,1,-1
 100 300 l 1,2,-1
 0 300 l 1,3,-1
 0 400 l 1,0,-1
100 500 m 1,4,-1
 200 500 l 1,5,-1
 200 400 l 1,6,-1
 100 400 l 1,7,-1
 100 500 l 1,4,-1
200 400 m 1,8,-1
 300 400 l 1,9,-1
 300 300 l 1,10,-1
 200 300 l 1,11,-1
 200 400 l 1,8,-1
200 700 m 1,12,-1
 300 700 l 1,13,-1
 300 600 l 1,14,-1
 200 600 l 1,15,-1
 200 700 l 1,12,-1
300 300 m 1,16,-1
 500 300 l 1,17,-1
 500 200 l 1,18,-1
 300 200 l 1,19,-1
 300 300 l 1,16,-1
400 700 m 1,20,-1
 500 700 l 1,21,-1
 500 600 l 1,22,-1
 400 600 l 1,23,-1
 400 700 l 1,20,-1
EndSplineSet
EndChar

StartChar: uni307A
Encoding: 12410 12410 329
Width: 600
GlyphClass: 1
Flags: W
LayerCount: 2
Fore
SplineSet
0 400 m 1,0,-1
 100 400 l 1,1,-1
 100 300 l 1,2,-1
 0 300 l 1,3,-1
 0 400 l 1,0,-1
100 500 m 1,4,-1
 200 500 l 1,5,-1
 200 400 l 1,6,-1
 100 400 l 1,7,-1
 100 500 l 1,4,-1
200 400 m 1,8,-1
 300 400 l 1,9,-1
 300 300 l 1,10,-1
 200 300 l 1,11,-1
 200 400 l 1,8,-1
200 600 m 1,12,-1
 300 600 l 1,13,-1
 300 500 l 1,14,-1
 200 500 l 1,15,-1
 200 600 l 1,12,-1
300 300 m 1,16,-1
 500 300 l 1,17,-1
 500 200 l 1,18,-1
 300 200 l 1,19,-1
 300 300 l 1,16,-1
300 500 m 1,20,-1
 400 500 l 1,21,-1
 400 400 l 1,22,-1
 300 400 l 1,23,-1
 300 500 l 1,20,-1
300 700 m 1,24,-1
 400 700 l 1,25,-1
 400 600 l 1,26,-1
 300 600 l 1,27,-1
 300 700 l 1,24,-1
400 600 m 1,28,-1
 500 600 l 1,29,-1
 500 500 l 1,30,-1
 400 500 l 1,31,-1
 400 600 l 1,28,-1
EndSplineSet
EndChar

StartChar: uni307B
Encoding: 12411 12411 330
Width: 600
GlyphClass: 1
Flags: W
LayerCount: 2
Fore
SplineSet
0 700 m 1,0,-1
 100 700 l 1,1,-1
 100 0 l 1,2,-1
 0 0 l 1,3,-1
 0 700 l 1,0,-1
200 200 m 1,4,-1
 300 200 l 1,5,-1
 300 300 l 1,6,-1
 200 300 l 1,7,-1
 200 400 l 1,8,-1
 300 400 l 1,9,-1
 300 500 l 1,10,-1
 200 500 l 1,11,-1
 200 600 l 1,12,-1
 500 600 l 1,13,-1
 500 500 l 1,14,-1
 400 500 l 1,15,-1
 400 400 l 1,16,-1
 500 400 l 1,17,-1
 500 300 l 1,18,-1
 400 300 l 1,19,-1
 400 200 l 1,20,-1
 500 200 l 1,21,-1
 500 100 l 1,22,-1
 400 100 l 1,23,-1
 400 0 l 1,24,-1
 200 0 l 1,25,-1
 200 200 l 1,4,-1
EndSplineSet
EndChar

StartChar: uni307C
Encoding: 12412 12412 331
Width: 600
GlyphClass: 1
Flags: W
LayerCount: 2
Fore
SplineSet
100 700 m 1,0,-1
 100 0 l 1,1,-1
 0 0 l 1,2,-1
 0 700 l 1,3,-1
 100 700 l 1,0,-1
200 200 m 1,4,-1
 300 200 l 1,5,-1
 300 300 l 1,6,-1
 200 300 l 1,7,-1
 200 400 l 1,8,-1
 300 400 l 1,9,-1
 300 500 l 1,10,-1
 200 500 l 1,11,-1
 200 700 l 1,12,-1
 300 700 l 1,13,-1
 300 600 l 1,14,-1
 400 600 l 1,15,-1
 400 700 l 1,16,-1
 500 700 l 1,17,-1
 500 500 l 1,18,-1
 400 500 l 1,19,-1
 400 400 l 1,20,-1
 500 400 l 1,21,-1
 500 300 l 1,22,-1
 400 300 l 1,23,-1
 400 200 l 1,24,-1
 500 200 l 1,25,-1
 500 100 l 1,26,-1
 400 100 l 1,27,-1
 400 0 l 1,28,-1
 200 0 l 1,29,-1
 200 200 l 1,4,-1
EndSplineSet
EndChar

StartChar: uni307D
Encoding: 12413 12413 332
Width: 600
GlyphClass: 1
Flags: W
LayerCount: 2
Fore
SplineSet
100 700 m 1,0,-1
 100 0 l 1,1,-1
 0 0 l 1,2,-1
 0 700 l 1,3,-1
 100 700 l 1,0,-1
200 200 m 1,4,-1
 300 200 l 1,5,-1
 300 300 l 1,6,-1
 200 300 l 1,7,-1
 200 400 l 1,8,-1
 300 400 l 1,9,-1
 300 500 l 1,10,-1
 400 500 l 1,11,-1
 400 400 l 1,12,-1
 500 400 l 1,13,-1
 500 300 l 1,14,-1
 400 300 l 1,15,-1
 400 200 l 1,16,-1
 500 200 l 1,17,-1
 500 100 l 1,18,-1
 400 100 l 1,19,-1
 400 0 l 1,20,-1
 200 0 l 1,21,-1
 200 200 l 1,4,-1
200 600 m 1,22,-1
 300 600 l 1,23,-1
 300 500 l 1,24,-1
 200 500 l 1,25,-1
 200 600 l 1,22,-1
300 700 m 1,26,-1
 400 700 l 1,27,-1
 400 600 l 1,28,-1
 300 600 l 1,29,-1
 300 700 l 1,26,-1
400 600 m 1,30,-1
 500 600 l 1,31,-1
 500 500 l 1,32,-1
 400 500 l 1,33,-1
 400 600 l 1,30,-1
EndSplineSet
EndChar

StartChar: uni307E
Encoding: 12414 12414 333
Width: 600
GlyphClass: 1
Flags: W
LayerCount: 2
Fore
SplineSet
0 600 m 1,0,-1
 200 600 l 1,1,-1
 200 700 l 1,2,-1
 300 700 l 1,3,-1
 300 600 l 1,4,-1
 500 600 l 1,5,-1
 500 500 l 1,6,-1
 300 500 l 1,7,-1
 300 400 l 1,8,-1
 500 400 l 1,9,-1
 500 300 l 1,10,-1
 300 300 l 1,11,-1
 300 200 l 1,12,-1
 400 200 l 1,13,-1
 400 100 l 1,14,-1
 300 100 l 1,15,-1
 300 0 l 1,16,-1
 0 0 l 1,17,-1
 0 200 l 1,18,-1
 200 200 l 1,19,-1
 200 300 l 1,20,-1
 0 300 l 1,21,-1
 0 400 l 1,22,-1
 200 400 l 1,23,-1
 200 500 l 1,24,-1
 0 500 l 1,25,-1
 0 600 l 1,0,-1
400 100 m 1,26,-1
 500 100 l 1,27,-1
 500 0 l 1,28,-1
 400 0 l 1,29,-1
 400 100 l 1,26,-1
EndSplineSet
EndChar

StartChar: uni307F
Encoding: 12415 12415 334
Width: 600
GlyphClass: 1
Flags: W
LayerCount: 2
Fore
SplineSet
100 700 m 1,0,-1
 300 700 l 1,1,-1
 300 500 l 1,2,-1
 200 500 l 1,3,-1
 200 600 l 1,4,-1
 100 600 l 1,5,-1
 100 700 l 1,0,-1
0 300 m 1,6,-1
 100 300 l 1,7,-1
 100 500 l 1,8,-1
 200 500 l 1,9,-1
 200 400 l 1,10,-1
 300 400 l 1,11,-1
 300 500 l 1,12,-1
 400 500 l 1,13,-1
 400 300 l 1,14,-1
 500 300 l 1,15,-1
 500 200 l 1,16,-1
 400 200 l 1,17,-1
 400 100 l 1,18,-1
 300 100 l 1,19,-1
 300 300 l 1,20,-1
 200 300 l 1,21,-1
 200 100 l 1,22,-1
 0 100 l 1,23,-1
 0 300 l 1,6,-1
200 100 m 1,24,-1
 300 100 l 1,25,-1
 300 0 l 1,26,-1
 200 0 l 1,27,-1
 200 100 l 1,24,-1
EndSplineSet
EndChar

StartChar: uni3080
Encoding: 12416 12416 335
Width: 600
GlyphClass: 1
Flags: W
LayerCount: 2
Fore
SplineSet
0 500 m 1,0,-1
 0 600 l 1,1,-1
 100 600 l 1,2,-1
 100 700 l 1,3,-1
 200 700 l 1,4,-1
 200 600 l 1,5,-1
 300 600 l 1,6,-1
 300 500 l 1,7,-1
 200 500 l 1,8,-1
 200 100 l 1,9,-1
 400 100 l 1,10,-1
 400 0 l 1,11,-1
 100 0 l 1,12,-1
 100 100 l 1,13,-1
 0 100 l 1,14,-1
 0 300 l 1,15,-1
 100 300 l 1,16,-1
 100 500 l 1,17,-1
 0 500 l 1,0,-1
300 700 m 1,18,-1
 400 700 l 1,19,-1
 400 600 l 1,20,-1
 300 600 l 1,21,-1
 300 700 l 1,18,-1
400 200 m 1,22,-1
 500 200 l 1,23,-1
 500 100 l 1,24,-1
 400 100 l 1,25,-1
 400 200 l 1,22,-1
400 600 m 1,26,-1
 500 600 l 1,27,-1
 500 500 l 1,28,-1
 400 500 l 1,29,-1
 400 600 l 1,26,-1
EndSplineSet
EndChar

StartChar: uni3081
Encoding: 12417 12417 336
Width: 600
GlyphClass: 1
Flags: W
LayerCount: 2
Fore
SplineSet
200 600 m 1,0,-1
 200 500 l 1,1,-1
 300 500 l 1,2,-1
 300 700 l 1,3,-1
 400 700 l 1,4,-1
 400 400 l 1,5,-1
 500 400 l 1,6,-1
 500 0 l 1,7,-1
 400 0 l 1,8,-1
 400 300 l 1,9,-1
 300 300 l 1,10,-1
 300 400 l 1,11,-1
 200 400 l 1,12,-1
 200 300 l 1,13,-1
 100 300 l 1,14,-1
 100 100 l 1,15,-1
 0 100 l 1,16,-1
 0 400 l 1,17,-1
 100 400 l 1,18,-1
 100 600 l 1,19,-1
 200 600 l 1,0,-1
100 100 m 1,20,-1
 200 100 l 1,21,-1
 200 0 l 1,22,-1
 100 0 l 1,23,-1
 100 100 l 1,20,-1
200 300 m 1,24,-1
 300 300 l 1,25,-1
 300 100 l 1,26,-1
 200 100 l 1,27,-1
 200 300 l 1,24,-1
EndSplineSet
EndChar

StartChar: uni3082
Encoding: 12418 12418 337
Width: 600
GlyphClass: 1
Flags: W
LayerCount: 2
Fore
SplineSet
0 600 m 1,0,-1
 200 600 l 1,1,-1
 200 700 l 1,2,-1
 300 700 l 1,3,-1
 300 600 l 1,4,-1
 400 600 l 1,5,-1
 400 500 l 1,6,-1
 200 500 l 1,7,-1
 200 400 l 1,8,-1
 400 400 l 1,9,-1
 400 300 l 1,10,-1
 200 300 l 1,11,-1
 200 100 l 1,12,-1
 100 100 l 1,13,-1
 100 300 l 1,14,-1
 0 300 l 1,15,-1
 0 400 l 1,16,-1
 100 400 l 1,17,-1
 100 500 l 1,18,-1
 0 500 l 1,19,-1
 0 600 l 1,0,-1
200 100 m 1,20,-1
 400 100 l 1,21,-1
 400 0 l 1,22,-1
 200 0 l 1,23,-1
 200 100 l 1,20,-1
400 200 m 1,24,-1
 500 200 l 1,25,-1
 500 100 l 1,26,-1
 400 100 l 1,27,-1
 400 200 l 1,24,-1
EndSplineSet
EndChar

StartChar: uni3084
Encoding: 12420 12420 338
Width: 600
GlyphClass: 1
Flags: W
LayerCount: 2
Fore
SplineSet
200 700 m 1,0,-1
 200 600 l 1,1,-1
 300 600 l 1,2,-1
 300 700 l 1,3,-1
 400 700 l 1,4,-1
 400 500 l 1,5,-1
 200 500 l 1,6,-1
 200 300 l 1,7,-1
 100 300 l 1,8,-1
 100 400 l 1,9,-1
 0 400 l 1,10,-1
 0 500 l 1,11,-1
 100 500 l 1,12,-1
 100 700 l 1,13,-1
 200 700 l 1,0,-1
200 300 m 1,14,-1
 300 300 l 1,15,-1
 300 0 l 1,16,-1
 200 0 l 1,17,-1
 200 300 l 1,14,-1
300 400 m 1,18,-1
 400 400 l 1,19,-1
 400 500 l 1,20,-1
 500 500 l 1,21,-1
 500 300 l 1,22,-1
 300 300 l 1,23,-1
 300 400 l 1,18,-1
EndSplineSet
EndChar

StartChar: uni3083
Encoding: 12419 12419 339
Width: 600
GlyphClass: 1
Flags: W
LayerCount: 2
Fore
SplineSet
200 600 m 1,0,-1
 200 500 l 1,1,-1
 300 500 l 1,2,-1
 300 600 l 1,3,-1
 400 600 l 1,4,-1
 400 400 l 1,5,-1
 200 400 l 1,6,-1
 200 200 l 1,7,-1
 100 200 l 1,8,-1
 100 300 l 1,9,-1
 0 300 l 1,10,-1
 0 400 l 1,11,-1
 100 400 l 1,12,-1
 100 600 l 1,13,-1
 200 600 l 1,0,-1
200 200 m 1,14,-1
 300 200 l 1,15,-1
 300 0 l 1,16,-1
 200 0 l 1,17,-1
 200 200 l 1,14,-1
300 300 m 1,18,-1
 400 300 l 1,19,-1
 400 400 l 1,20,-1
 500 400 l 1,21,-1
 500 200 l 1,22,-1
 300 200 l 1,23,-1
 300 300 l 1,18,-1
EndSplineSet
EndChar

StartChar: uni3086
Encoding: 12422 12422 340
Width: 600
GlyphClass: 1
Flags: W
LayerCount: 2
Fore
SplineSet
100 600 m 1,0,-1
 100 500 l 1,1,-1
 200 500 l 1,2,-1
 200 700 l 1,3,-1
 300 700 l 1,4,-1
 300 600 l 1,5,-1
 400 600 l 1,6,-1
 400 500 l 1,7,-1
 300 500 l 1,8,-1
 300 300 l 1,9,-1
 400 300 l 1,10,-1
 400 200 l 1,11,-1
 300 200 l 1,12,-1
 300 100 l 1,13,-1
 200 100 l 1,14,-1
 200 400 l 1,15,-1
 100 400 l 1,16,-1
 100 200 l 1,17,-1
 0 200 l 1,18,-1
 0 600 l 1,19,-1
 100 600 l 1,0,-1
100 100 m 1,20,-1
 200 100 l 1,21,-1
 200 0 l 1,22,-1
 100 0 l 1,23,-1
 100 100 l 1,20,-1
400 500 m 1,24,-1
 500 500 l 1,25,-1
 500 300 l 1,26,-1
 400 300 l 1,27,-1
 400 500 l 1,24,-1
EndSplineSet
EndChar

